SplineFontDB: 3.2
FontName: CSLSans-SemiBoldItalic
FullName: CSL Sans SemiBold Italic
FamilyName: CSL Sans SemiBold
Weight: Demi
Copyright: Copyright (c) 2019 IBM Corp. with Reserved Font Name "Plex"  Copyright (c) 2019 The HMI Sans Project Authors (https://github.com/somegoodpixels/hmi-sans) Copyright (c) 2021 The CSL Sans Project Authors (https://github.com/cssobral2013/CSL-Sans) This Font Software is licensed under the SIL Open Font License, Version 1.1. This license is copied below, and is also available with a FAQ at: http://scripts.sil.org/OFL.
Version: 2.001;January 31, 2022;FontCreator 14.0.0.2808 64-bit
ItalicAngle: -11
UnderlinePosition: -225
UnderlineWidth: 100
Ascent: 800
Descent: 200
InvalidEm: 0
sfntRevision: 0x00020042
LayerCount: 2
Layer: 0 1 "Back" 1
Layer: 1 1 "Fore" 0
XUID: [1021 651 537639564 25080]
StyleMap: 0x0001
FSType: 0
OS2Version: 3
OS2_WeightWidthSlopeOnly: 0
OS2_UseTypoMetrics: 0
CreationTime: 1550580418
ModificationTime: 1643631570
PfmFamily: 81
TTFWeight: 600
TTFWidth: 5
LineGap: 0
VLineGap: 0
Panose: 0 0 8 0 0 0 0 0 0 0
OS2TypoAscent: 1000
OS2TypoAOffset: 0
OS2TypoDescent: -220
OS2TypoDOffset: 0
OS2TypoLinegap: 0
OS2WinAscent: 1000
OS2WinAOffset: 0
OS2WinDescent: 220
OS2WinDOffset: 0
HheadAscent: 1000
HheadAOffset: 0
HheadDescent: -220
HheadDOffset: 0
OS2SubXSize: 650
OS2SubYSize: 600
OS2SubXOff: -15
OS2SubYOff: 75
OS2SupXSize: 650
OS2SupYSize: 600
OS2SupXOff: 70
OS2SupYOff: 350
OS2StrikeYSize: 100
OS2StrikeYPos: 315
OS2CapHeight: 698
OS2XHeight: 525
OS2Vendor: 'UKWN'
OS2CodePages: 2000019f.00000000
OS2UnicodeRanges: 20000287.10000013.00000000.00000000
Lookup: 258 0 0 "'kern' Kerning Horizontal lookup 0" { "'kern' Kerning Horizontal lookup 0 per glyph data 0"  "'kern' Kerning Horizontal lookup 0 kerning class 1"  "'kern' Kerning Horizontal lookup 0 kerning class 2"  "'kern' Kerning Horizontal lookup 0 kerning class 3"  } ['kern' ('DFLT' <'dflt' > 'cyrl' <'dflt' > 'grek' <'dflt' > 'latn' <'dflt' > ) ]
DEI: 91125

StartChar: .notdef
Encoding: 65536 -1 0
Width: 472
Flags: W
LayerCount: 2
Fore
SplineSet
440 0 m 1,0,-1
 32 0 l 1,1,-1
 32 780 l 1,2,-1
 440 780 l 1,3,-1
 440 0 l 1,0,-1
355 85 m 1,4,-1
 355 695 l 1,5,-1
 117 695 l 1,6,-1
 117 85 l 1,7,-1
 355 85 l 1,4,-1
EndSplineSet
EndChar

StartChar: exclam
Encoding: 33 33 2
Width: 298
GlyphClass: 1
Flags: W
LayerCount: 2
Fore
SplineSet
166 207 m 1,0,-1
 113 207 l 1,1,-1
 135 500 l 1,2,-1
 174 698 l 1,3,-1
 299 698 l 1,4,-1
 260 500 l 1,5,-1
 166 207 l 1,0,-1
99 -12 m 0,6,7
 32 -12 32 -12 32 40 c 0,8,9
 32 147 32 147 123 147 c 0,10,11
 158 147 158 147 174 133 c 128,-1,12
 190 119 190 119 190 95 c 0,13,14
 190 -12 190 -12 99 -12 c 0,6,7
EndSplineSet
EndChar

StartChar: quotedbl
Encoding: 34 34 3
Width: 458
GlyphClass: 7
Flags: W
LayerCount: 2
Fore
SplineSet
214 431 m 1,0,-1
 105 431 l 1,1,-1
 167 740 l 1,2,-1
 276 740 l 1,3,-1
 214 431 l 1,0,-1
420 431 m 1,4,-1
 312 431 l 1,5,-1
 373 740 l 1,6,-1
 482 740 l 1,7,-1
 420 431 l 1,4,-1
EndSplineSet
EndChar

StartChar: numbersign
Encoding: 35 35 4
Width: 655
GlyphClass: 5
Flags: W
LayerCount: 2
Fore
SplineSet
369 0 m 1,0,-1
 287 0 l 1,1,-1
 356 185 l 1,2,-1
 209 185 l 1,3,-1
 140 0 l 1,4,-1
 59 0 l 1,5,-1
 127 185 l 1,6,-1
 13 185 l 1,7,-1
 29 263 l 1,8,-1
 156 263 l 1,9,-1
 220 435 l 1,10,-1
 105 435 l 1,11,-1
 121 513 l 1,12,-1
 248 513 l 1,13,-1
 317 698 l 1,14,-1
 399 698 l 1,15,-1
 330 513 l 1,16,-1
 477 513 l 1,17,-1
 546 698 l 1,18,-1
 628 698 l 1,19,-1
 559 513 l 1,20,-1
 673 513 l 1,21,-1
 657 435 l 1,22,-1
 530 435 l 1,23,-1
 466 263 l 1,24,-1
 580 263 l 1,25,-1
 565 185 l 1,26,-1
 438 185 l 1,27,-1
 369 0 l 1,0,-1
384 263 m 1,28,-1
 448 435 l 1,29,-1
 302 435 l 1,30,-1
 237 263 l 1,31,-1
 384 263 l 1,28,-1
EndSplineSet
EndChar

StartChar: dollar
Encoding: 36 36 5
Width: 570
Flags: W
LayerCount: 2
Fore
SplineSet
286 429 m 1,0,-1
 319 591 l 1,1,2
 222 585 222 585 222 508 c 0,3,4
 222 483 222 483 238 462 c 0,5,6
 250 445 250 445 286 429 c 1,0,-1
296 108 m 1,7,8
 344 111 344 111 369 134 c 0,9,10
 399 160 399 160 399 205 c 0,11,12
 399 228 399 228 384 251 c 0,13,14
 371 271 371 271 332 288 c 1,15,-1
 296 108 l 1,7,8
195 7 m 1,16,17
 87 28 87 28 19 112 c 1,18,-1
 103 192 l 1,19,20
 153 130 153 130 222 113 c 1,21,-1
 263 313 l 1,22,-1
 261 314 l 1,23,24
 98 375 98 375 98 501 c 0,25,26
 98 583 98 583 160 641 c 0,27,28
 221 697 221 697 335 698 c 1,29,-1
 338 716 l 1,30,-1
 350 780 l 1,31,-1
 437 780 l 1,32,-1
 419 690 l 1,33,34
 512 670 512 670 571 597 c 1,35,-1
 487 519 l 1,36,37
 450 568 450 568 392 584 c 1,38,-1
 355 402 l 1,39,-1
 362 399 l 2,40,41
 462 360 462 360 498 305 c 0,42,43
 522 266 522 266 522 216 c 0,44,45
 522 118 522 118 454 59 c 0,46,47
 389 3 389 3 280 0 c 1,48,-1
 279 -6 l 1,49,-1
 264 -82 l 1,50,-1
 177 -82 l 1,51,-1
 193 0 l 1,52,-1
 195 7 l 1,16,17
EndSplineSet
EndChar

StartChar: percent
Encoding: 37 37 6
Width: 925
Flags: W
LayerCount: 2
Fore
SplineSet
242 0 m 1,0,-1
 135 0 l 1,1,-1
 714 698 l 1,2,-1
 821 698 l 1,3,-1
 242 0 l 1,0,-1
240 314 m 0,4,5
 175 314 175 314 135.5 351 c 128,-1,6
 96 388 96 388 96 468 c 0,7,8
 96 566 96 566 152.5 638 c 128,-1,9
 209 710 209 710 294 710 c 0,10,11
 357 710 357 710 397 673.5 c 128,-1,12
 437 637 437 637 437 556 c 0,13,14
 437 450 437 450 378 382 c 128,-1,15
 319 314 319 314 240 314 c 0,4,5
246 386 m 0,16,17
 277 386 277 386 296 414 c 0,18,19
 310 436 310 436 324 488.5 c 128,-1,20
 338 541 338 541 338 579 c 0,21,22
 336 638 336 638 288 638 c 0,23,24
 266 638 266 638 250 625.5 c 128,-1,25
 234 613 234 613 221.5 578 c 128,-1,26
 209 543 209 543 202 507 c 128,-1,27
 195 471 195 471 195 445 c 0,28,29
 197 386 197 386 246 386 c 0,16,17
662 -12 m 0,30,31
 596 -12 596 -12 557 26 c 128,-1,32
 518 64 518 64 518 142 c 0,33,34
 518 240 518 240 574.5 312 c 128,-1,35
 631 384 631 384 716 384 c 0,36,37
 779 384 779 384 819 347.5 c 128,-1,38
 859 311 859 311 859 230 c 0,39,40
 859 124 859 124 800 56 c 128,-1,41
 741 -12 741 -12 662 -12 c 0,30,31
668 60 m 0,42,43
 699 60 699 60 718 88 c 0,44,45
 732 110 732 110 746 162.5 c 128,-1,46
 760 215 760 215 760 253 c 0,47,48
 758 312 758 312 710 312 c 0,49,50
 688 312 688 312 672 299.5 c 128,-1,51
 656 287 656 287 643.5 252 c 128,-1,52
 631 217 631 217 624 181 c 128,-1,53
 617 145 617 145 617 119 c 0,54,55
 619 60 619 60 668 60 c 0,42,43
EndSplineSet
EndChar

StartChar: ampersand
Encoding: 38 38 7
Width: 691
GlyphClass: 3
Flags: W
LayerCount: 2
Fore
SplineSet
227 -12 m 0,0,1
 127 -12 127 -12 80 36.5 c 128,-1,2
 33 85 33 85 33 155 c 0,3,4
 33 298 33 298 212 379 c 1,5,6
 161 442 161 442 161 515 c 0,7,8
 161 594 161 594 220 652 c 128,-1,9
 279 710 279 710 377 710 c 0,10,11
 448 710 448 710 496.5 673 c 128,-1,12
 545 636 545 636 545 568 c 0,13,14
 545 448 545 448 362 362 c 1,15,-1
 457 227 l 1,16,17
 493 296 493 296 511 378 c 1,18,-1
 668 378 l 1,19,-1
 648 278 l 1,20,-1
 573 278 l 1,21,22
 552 207 552 207 514 148 c 1,23,-1
 619 0 l 1,24,-1
 483 0 l 1,25,-1
 434 68 l 1,26,27
 348 -12 348 -12 227 -12 c 0,0,1
313 429 m 1,28,-1
 318 432 l 1,29,30
 366 455 366 455 397 482.5 c 128,-1,31
 428 510 428 510 428 555 c 0,32,33
 428 585 428 585 409 601 c 128,-1,34
 390 617 390 617 362 617 c 0,35,36
 319 617 319 617 297.5 588.5 c 128,-1,37
 276 560 276 560 276 520 c 0,38,39
 276 478 276 478 313 429 c 1,28,-1
255 88 m 0,40,41
 329 88 329 88 385 137 c 1,42,-1
 259 312 l 1,43,44
 152 267 152 267 152 175 c 0,45,46
 153 88 153 88 255 88 c 0,40,41
EndSplineSet
EndChar

StartChar: quotesingle
Encoding: 39 39 8
Width: 252
Flags: W
LayerCount: 2
Fore
SplineSet
214 431 m 1,0,-1
 105 431 l 1,1,-1
 167 740 l 1,2,-1
 276 740 l 1,3,-1
 214 431 l 1,0,-1
EndSplineSet
EndChar

StartChar: parenleft
Encoding: 40 40 9
Width: 344
Flags: W
LayerCount: 2
Fore
SplineSet
296 -138 m 1,0,-1
 188 -138 l 1,1,2
 134 -75 134 -75 100.5 17.5 c 128,-1,3
 67 110 67 110 67 213 c 0,4,5
 67 325 67 325 106.5 429.5 c 128,-1,6
 146 534 146 534 210.5 619 c 128,-1,7
 275 704 275 704 353 760 c 1,8,-1
 475 760 l 1,9,10
 373 683 373 683 297 583 c 128,-1,11
 221 483 221 483 196 368 c 2,12,-1
 177 274 l 2,13,14
 171 238 171 238 171 210 c 0,15,16
 171 9 171 9 296 -138 c 1,0,-1
EndSplineSet
EndChar

StartChar: parenright
Encoding: 41 41 10
Width: 344
GlyphClass: 3
Flags: W
LayerCount: 2
Fore
SplineSet
14 -138 m 1,0,-1
 -108 -138 l 1,1,2
 -2 -58 -2 -58 71.5 41.5 c 128,-1,3
 145 141 145 141 171 255 c 2,4,-1
 190 349 l 2,5,6
 194 378 194 378 195 401 c 2,7,-1
 196 413 l 1,8,9
 196 611 196 611 71 760 c 1,10,-1
 178 760 l 1,11,12
 233 696 233 696 266.5 603 c 128,-1,13
 300 510 300 510 300 410 c 0,14,15
 300 300 300 300 261.5 196 c 128,-1,16
 223 92 223 92 159 6 c 128,-1,17
 95 -80 95 -80 14 -138 c 1,0,-1
EndSplineSet
EndChar

StartChar: asterisk
Encoding: 42 42 11
Width: 540
Flags: W
LayerCount: 2
Fore
SplineSet
181 293 m 1,0,-1
 104 360 l 1,1,-1
 240 494 l 1,2,-1
 92 541 l 1,3,-1
 135 638 l 1,4,-1
 281 573 l 1,5,-1
 309 747 l 1,6,-1
 415 747 l 1,7,-1
 375 575 l 1,8,-1
 532 635 l 1,9,-1
 556 541 l 1,10,-1
 385 489 l 1,11,-1
 465 350 l 1,12,-1
 377 295 l 1,13,-1
 307 442 l 1,14,-1
 181 293 l 1,0,-1
EndSplineSet
EndChar

StartChar: plus
Encoding: 43 43 12
Width: 600
Flags: W
LayerCount: 2
Fore
SplineSet
313 62 m 1,0,-1
 207 62 l 1,1,-1
 246 257 l 1,2,-1
 69 257 l 1,3,-1
 88 354 l 1,4,-1
 265 354 l 1,5,-1
 304 548 l 1,6,-1
 409 548 l 1,7,-1
 371 354 l 1,8,-1
 547 354 l 1,9,-1
 528 257 l 1,10,-1
 351 257 l 1,11,-1
 313 62 l 1,0,-1
EndSplineSet
EndChar

StartChar: comma
Encoding: 44 44 13
Width: 294
GlyphClass: 3
Flags: W
LayerCount: 2
Fore
SplineSet
52 -141 m 1,0,-1
 -39 -141 l 1,1,2
 40 -78 40 -78 76 -7 c 1,3,4
 32 3 32 3 32 42 c 0,5,6
 32 88 32 88 52.5 118.5 c 128,-1,7
 73 149 73 149 121 149 c 0,8,9
 157 149 157 149 172.5 132 c 128,-1,10
 188 115 188 115 188 93 c 0,11,12
 188 42 188 42 151.5 -25.5 c 128,-1,13
 115 -93 115 -93 52 -141 c 1,0,-1
EndSplineSet
EndChar

StartChar: hyphen
Encoding: 45 45 14
Width: 392
Flags: W
LayerCount: 2
Fore
SplineSet
333 247 m 1,0,-1
 54 247 l 1,1,-1
 77 362 l 1,2,-1
 356 362 l 1,3,-1
 333 247 l 1,0,-1
EndSplineSet
EndChar

StartChar: period
Encoding: 46 46 15
Width: 294
Flags: W
LayerCount: 2
Fore
SplineSet
96 -12 m 0,0,1
 59 -12 59 -12 44 4 c 128,-1,2
 29 20 29 20 29 41 c 0,3,4
 29 149 29 149 120 149 c 0,5,6
 156 149 156 149 171.5 132.5 c 128,-1,7
 187 116 187 116 187 96 c 0,8,9
 187 84 187 84 186 78.5 c 128,-1,10
 185 73 185 73 184 68 c 128,-1,11
 183 63 183 63 181 55 c 0,12,13
 169 -12 169 -12 96 -12 c 0,0,1
EndSplineSet
EndChar

StartChar: slash
Encoding: 47 47 16
Width: 440
GlyphClass: 3
Flags: W
LayerCount: 2
Fore
SplineSet
34 -151 m 1,0,-1
 -72 -151 l 1,1,-1
 385 740 l 1,2,-1
 492 740 l 1,3,-1
 34 -151 l 1,0,-1
EndSplineSet
EndChar

StartChar: zero
Encoding: 48 48 17
Width: 600
GlyphClass: 5
Flags: W
LayerCount: 2
Fore
SplineSet
259 -12 m 0,0,1
 188 -12 188 -12 143 20 c 128,-1,2
 98 52 98 52 76.5 108 c 128,-1,3
 55 164 55 164 55 238 c 0,4,5
 55 328 55 328 75.5 412.5 c 128,-1,6
 96 497 96 497 135.5 564 c 128,-1,7
 175 631 175 631 233.5 670.5 c 128,-1,8
 292 710 292 710 368 710 c 0,9,10
 439 710 439 710 484 678.5 c 128,-1,11
 529 647 529 647 550.5 590.5 c 128,-1,12
 572 534 572 534 572 460 c 0,13,14
 572 330 572 330 528 212.5 c 128,-1,15
 484 95 484 95 393 29 c 0,16,17
 335 -12 335 -12 259 -12 c 0,0,1
271 89 m 2,18,19
 386 89 386 89 424 295 c 2,20,-1
 446 404 l 2,21,22
 454 442 454 442 454 484 c 0,23,24
 454 609 454 609 356 609 c 0,25,26
 239 609 239 609 204 403 c 1,27,-1
 181 294 l 2,28,29
 173 251 173 251 173 214 c 0,30,31
 173 89 173 89 267 89 c 2,32,-1
 271 89 l 2,18,19
EndSplineSet
EndChar

StartChar: one
Encoding: 49 49 18
Width: 600
Flags: W
LayerCount: 2
Fore
SplineSet
348 0 m 1,0,-1
 230 0 l 1,1,-1
 347 581 l 1,2,-1
 179 492 l 1,3,-1
 204 613 l 1,4,-1
 359 698 l 1,5,-1
 488 698 l 1,6,-1
 348 0 l 1,0,-1
EndSplineSet
EndChar

StartChar: two
Encoding: 50 50 19
Width: 600
Flags: W
LayerCount: 2
Fore
SplineSet
481 0 m 1,0,-1
 21 0 l 1,1,-1
 44 117 l 1,2,-1
 298 311 l 2,3,4
 435 414 435 414 435 516 c 0,5,6
 435 557 435 557 409.5 580.5 c 128,-1,7
 384 604 384 604 345 604 c 0,8,9
 292 604 292 604 260.5 574.5 c 128,-1,10
 229 545 229 545 211 496 c 1,11,-1
 108 539 l 1,12,13
 142 616 142 616 202.5 663 c 128,-1,14
 263 710 263 710 355 710 c 0,15,16
 455 710 455 710 509 655.5 c 128,-1,17
 563 601 563 601 563 524 c 0,18,19
 563 438 563 438 505.5 367.5 c 128,-1,20
 448 297 448 297 346 226 c 2,21,-1
 179 103 l 1,22,-1
 502 103 l 1,23,-1
 481 0 l 1,0,-1
EndSplineSet
EndChar

StartChar: three
Encoding: 51 51 20
Width: 600
Flags: W
LayerCount: 2
Fore
SplineSet
245 -12 m 0,0,1
 154 -12 154 -12 99 25.5 c 128,-1,2
 44 63 44 63 24 117 c 1,3,-1
 115 181 l 1,4,5
 144 89 144 89 253 89 c 0,6,7
 313 89 313 89 350.5 122 c 128,-1,8
 388 155 388 155 388 224 c 0,9,10
 388 267 388 267 360 289 c 128,-1,11
 332 311 332 311 283 311 c 2,12,-1
 210 311 l 1,13,-1
 231 414 l 1,14,-1
 298 414 l 2,15,16
 368 414 368 414 394.5 441.5 c 128,-1,17
 421 469 421 469 430 522 c 1,18,19
 430 547 430 547 424.5 562.5 c 128,-1,20
 419 578 419 578 403 590 c 0,21,22
 379 608 379 608 339 608 c 0,23,24
 247 608 247 608 194 524 c 1,25,-1
 123 599 l 1,26,27
 163 650 163 650 217.5 680 c 128,-1,28
 272 710 272 710 358 710 c 0,29,30
 447 710 447 710 503.5 665.5 c 128,-1,31
 560 621 560 621 560 549 c 0,32,33
 560 474 560 474 514.5 428 c 128,-1,34
 469 382 469 382 399 368 c 1,35,-1
 398 363 l 1,36,37
 454 351 454 351 482.5 313 c 128,-1,38
 511 275 511 275 511 217 c 0,39,40
 511 115 511 115 438 51.5 c 128,-1,41
 365 -12 365 -12 245 -12 c 0,0,1
EndSplineSet
EndChar

StartChar: four
Encoding: 52 52 21
Width: 600
GlyphClass: 2
Flags: W
LayerCount: 2
Fore
SplineSet
414 0 m 1,0,-1
 301 0 l 1,1,-1
 328 135 l 1,2,-1
 19 135 l 1,3,-1
 41 244 l 1,4,-1
 403 698 l 1,5,-1
 554 698 l 1,6,-1
 460 231 l 1,7,-1
 550 231 l 1,8,-1
 531 135 l 1,9,-1
 441 135 l 1,10,-1
 414 0 l 1,0,-1
347 231 m 1,11,-1
 414 564 l 1,12,-1
 406 564 l 1,13,-1
 141 231 l 1,14,-1
 347 231 l 1,11,-1
EndSplineSet
EndChar

StartChar: five
Encoding: 53 53 22
Width: 600
Flags: W
LayerCount: 2
Fore
SplineSet
258 -12 m 0,0,1
 167 -12 167 -12 110.5 26 c 128,-1,2
 54 64 54 64 35 118 c 1,3,-1
 132 182 l 1,4,5
 159 90 159 90 266 90 c 0,6,7
 329 90 329 90 369 131.5 c 128,-1,8
 409 173 409 173 409 254 c 0,9,10
 409 297 409 297 383.5 322 c 128,-1,11
 358 347 358 347 309 347 c 0,12,13
 239 347 239 347 188 290 c 1,14,-1
 92 304 l 1,15,-1
 192 698 l 1,16,-1
 582 698 l 1,17,-1
 561 592 l 1,18,-1
 259 592 l 1,19,-1
 198 348 l 1,20,-1
 207 348 l 1,21,22
 233 398 233 398 269 423 c 128,-1,23
 305 448 305 448 362 448 c 0,24,25
 436 448 436 448 486 401.5 c 128,-1,26
 536 355 536 355 536 260 c 0,27,28
 536 191 536 191 503.5 128.5 c 128,-1,29
 471 66 471 66 409 27 c 128,-1,30
 347 -12 347 -12 258 -12 c 0,0,1
EndSplineSet
EndChar

StartChar: six
Encoding: 54 54 23
Width: 600
GlyphClass: 2
Flags: W
LayerCount: 2
Fore
SplineSet
265 -12 m 0,0,1
 157 -12 157 -12 105.5 50.5 c 128,-1,2
 54 113 54 113 54 215 c 0,3,4
 54 309 54 309 99.5 401.5 c 128,-1,5
 145 494 145 494 219 571 c 128,-1,6
 293 648 293 648 381 698 c 1,7,-1
 552 698 l 1,8,9
 411 614 411 614 322.5 528 c 128,-1,10
 234 442 234 442 199 343 c 1,11,-1
 206 341 l 1,12,13
 234 391 234 391 272 417.5 c 128,-1,14
 310 444 310 444 365 444 c 0,15,16
 446 444 446 444 491.5 390 c 128,-1,17
 537 336 537 336 537 253 c 0,18,19
 537 182 537 182 504 121.5 c 128,-1,20
 471 61 471 61 410 24.5 c 128,-1,21
 349 -12 349 -12 265 -12 c 0,0,1
274 87 m 0,22,23
 342 87 342 87 378 131.5 c 128,-1,24
 414 176 414 176 414 245 c 0,25,26
 414 347 414 347 312 347 c 0,27,28
 247 347 247 347 210 303 c 128,-1,29
 173 259 173 259 173 189 c 0,30,31
 173 87 173 87 274 87 c 0,22,23
EndSplineSet
EndChar

StartChar: seven
Encoding: 55 55 24
Width: 600
Flags: W
LayerCount: 2
Fore
SplineSet
246 0 m 1,0,-1
 118 0 l 1,1,-1
 476 597 l 1,2,-1
 131 597 l 1,3,-1
 151 698 l 1,4,-1
 617 698 l 1,5,-1
 596 590 l 1,6,-1
 246 0 l 1,0,-1
EndSplineSet
EndChar

StartChar: eight
Encoding: 56 56 25
Width: 600
Flags: W
LayerCount: 2
Fore
SplineSet
260 -12 m 0,0,1
 150 -12 150 -12 95 38.5 c 128,-1,2
 40 89 40 89 40 167 c 0,3,4
 40 237 40 237 82.5 291 c 128,-1,5
 125 345 125 345 210 363 c 1,6,-1
 212 370 l 1,7,8
 125 403 125 403 125 505 c 0,9,10
 125 560 125 560 154.5 606.5 c 128,-1,11
 184 653 184 653 239.5 681.5 c 128,-1,12
 295 710 295 710 374 710 c 0,13,14
 477 710 477 710 525 664.5 c 128,-1,15
 573 619 573 619 573 551 c 0,16,17
 573 485 573 485 533 437.5 c 128,-1,18
 493 390 493 390 427 368 c 1,19,-1
 426 360 l 1,20,21
 530 330 530 330 530 215 c 0,22,23
 530 122 530 122 456 55 c 128,-1,24
 382 -12 382 -12 260 -12 c 0,0,1
268 85 m 0,25,26
 378 85 378 85 402 187 c 0,27,28
 404 197 404 197 405 206.5 c 128,-1,29
 406 216 406 216 406 226 c 0,30,31
 404 314 404 314 301 314 c 0,32,33
 243 314 243 314 203 280 c 128,-1,34
 163 246 163 246 163 172 c 0,35,36
 164 85 164 85 268 85 c 0,25,26
330 406 m 0,37,38
 391 406 391 406 423 441.5 c 128,-1,39
 455 477 455 477 455 535 c 0,40,41
 455 613 455 613 359 613 c 0,42,43
 299 613 299 613 266.5 578.5 c 128,-1,44
 234 544 234 544 234 485 c 0,45,46
 234 451 234 451 257 428.5 c 128,-1,47
 280 406 280 406 330 406 c 0,37,38
EndSplineSet
EndChar

StartChar: nine
Encoding: 57 57 26
Width: 600
GlyphClass: 1
Flags: W
LayerCount: 2
Fore
SplineSet
250 0 m 1,0,-1
 79 0 l 1,1,2
 215 79 215 79 304 165.5 c 128,-1,3
 393 252 393 252 432 355 c 1,4,-1
 425 357 l 1,5,6
 396 309 396 309 358.5 281.5 c 128,-1,7
 321 254 321 254 266 254 c 0,8,9
 181 254 181 254 137.5 307.5 c 128,-1,10
 94 361 94 361 94 445 c 0,11,12
 94 514 94 514 126 574.5 c 128,-1,13
 158 635 158 635 219 672.5 c 128,-1,14
 280 710 280 710 366 710 c 0,15,16
 473 710 473 710 525 646.5 c 128,-1,17
 577 583 577 583 577 483 c 0,18,19
 577 388 577 388 531 295 c 128,-1,20
 485 202 485 202 411 125.5 c 128,-1,21
 337 49 337 49 250 0 c 1,0,-1
319 351 m 0,22,23
 388 351 388 351 423 396 c 128,-1,24
 458 441 458 441 458 509 c 0,25,26
 458 611 458 611 357 611 c 0,27,28
 287 611 287 611 252 565 c 128,-1,29
 217 519 217 519 217 453 c 0,30,31
 217 351 217 351 319 351 c 0,22,23
EndSplineSet
EndChar

StartChar: colon
Encoding: 58 58 27
Width: 314
Flags: W
LayerCount: 2
Fore
SplineSet
106 -12 m 0,0,1
 69 -12 69 -12 54 4 c 128,-1,2
 39 20 39 20 39 41 c 0,3,4
 39 149 39 149 130 149 c 0,5,6
 166 149 166 149 181.5 132.5 c 128,-1,7
 197 116 197 116 197 96 c 0,8,9
 197 84 197 84 196 78.5 c 128,-1,10
 195 73 195 73 194 68 c 128,-1,11
 193 63 193 63 191 55 c 0,12,13
 179 -12 179 -12 106 -12 c 0,0,1
182 371 m 0,14,15
 146 371 146 371 131 387 c 128,-1,16
 116 403 116 403 116 424 c 0,17,18
 116 532 116 532 206 532 c 0,19,20
 243 532 243 532 258 516 c 128,-1,21
 273 500 273 500 273 479 c 0,22,23
 273 371 273 371 182 371 c 0,14,15
EndSplineSet
EndChar

StartChar: semicolon
Encoding: 59 59 28
Width: 314
GlyphClass: 2
Flags: W
LayerCount: 2
Fore
SplineSet
62 -141 m 1,0,-1
 -29 -141 l 1,1,2
 50 -78 50 -78 86 -7 c 1,3,4
 42 3 42 3 42 42 c 0,5,6
 42 88 42 88 62.5 118.5 c 128,-1,7
 83 149 83 149 131 149 c 0,8,9
 167 149 167 149 182.5 132 c 128,-1,10
 198 115 198 115 198 93 c 0,11,12
 198 42 198 42 161.5 -25.5 c 128,-1,13
 125 -93 125 -93 62 -141 c 1,0,-1
182 371 m 0,14,15
 146 371 146 371 131 387 c 128,-1,16
 116 403 116 403 116 424 c 0,17,18
 116 532 116 532 206 532 c 0,19,20
 243 532 243 532 258 516 c 128,-1,21
 273 500 273 500 273 479 c 0,22,23
 273 371 273 371 182 371 c 0,14,15
EndSplineSet
EndChar

StartChar: less
Encoding: 60 60 29
Width: 600
Flags: W
LayerCount: 2
Fore
SplineSet
444 -6 m 1,0,-1
 97 252 l 1,1,-1
 114 335 l 1,2,-1
 563 589 l 1,3,-1
 537 458 l 1,4,-1
 229 290 l 1,5,-1
 227 282 l 1,6,-1
 468 111 l 1,7,-1
 444 -6 l 1,0,-1
EndSplineSet
EndChar

StartChar: equal
Encoding: 61 61 30
Width: 600
GlyphClass: 2
Flags: W
LayerCount: 2
Fore
SplineSet
551 368 m 1,0,-1
 93 368 l 1,1,-1
 112 464 l 1,2,-1
 570 464 l 1,3,-1
 551 368 l 1,0,-1
507 147 m 1,4,-1
 49 147 l 1,5,-1
 69 244 l 1,6,-1
 526 244 l 1,7,-1
 507 147 l 1,4,-1
EndSplineSet
EndChar

StartChar: greater
Encoding: 62 62 31
Width: 600
GlyphClass: 5
Flags: W
LayerCount: 2
Fore
SplineSet
51 -6 m 1,0,-1
 77 125 l 1,1,-1
 386 296 l 1,2,-1
 388 304 l 1,3,-1
 147 473 l 1,4,-1
 170 589 l 1,5,-1
 518 334 l 1,6,-1
 501 251 l 1,7,-1
 51 -6 l 1,0,-1
EndSplineSet
EndChar

StartChar: question
Encoding: 63 63 32
Width: 482
GlyphClass: 3
Flags: W
LayerCount: 2
Fore
SplineSet
270 224 m 1,0,-1
 156 224 l 1,1,-1
 189 381 l 1,2,3
 378 399 378 399 378 531 c 0,4,5
 378 570 378 570 353 588.5 c 128,-1,6
 328 607 328 607 293 607 c 0,7,8
 243 607 243 607 213.5 579.5 c 128,-1,9
 184 552 184 552 168 506 c 1,10,-1
 72 549 l 1,11,12
 139 710 139 710 308 710 c 0,13,14
 402 710 402 710 452 664.5 c 128,-1,15
 502 619 502 619 502 545 c 0,16,17
 502 464 502 464 443.5 398 c 128,-1,18
 385 332 385 332 288 312 c 1,19,-1
 270 224 l 1,0,-1
173 -12 m 0,20,21
 106 -12 106 -12 106 40 c 0,22,23
 106 147 106 147 198 147 c 0,24,25
 232 147 232 147 248.5 132.5 c 128,-1,26
 265 118 265 118 265 95 c 0,27,28
 265 -12 265 -12 173 -12 c 0,20,21
EndSplineSet
EndChar

StartChar: at
Encoding: 64 64 33
Width: 880
Flags: W
LayerCount: 2
Fore
SplineSet
576 -121 m 1,0,-1
 375 -121 l 2,1,2
 302 -121 302 -121 243.5 -97.5 c 128,-1,3
 185 -74 185 -74 144 -31.5 c 128,-1,4
 103 11 103 11 82 71 c 128,-1,5
 61 131 61 131 61 204 c 0,6,7
 61 311 61 311 96.5 403.5 c 128,-1,8
 132 496 132 496 193.5 563.5 c 128,-1,9
 255 631 255 631 339 669.5 c 128,-1,10
 423 708 423 708 520 708 c 0,11,12
 588 708 588 708 646.5 686 c 128,-1,13
 705 664 705 664 747.5 624 c 128,-1,14
 790 584 790 584 814 527 c 128,-1,15
 838 470 838 470 838 399 c 0,16,17
 838 354 838 354 829 313 c 0,18,19
 817 259 817 259 797 216 c 0,20,21
 754 126 754 126 686 94 c 0,22,23
 651 77 651 77 612 77 c 0,24,25
 509 80 509 80 509 162 c 2,26,-1
 509 174 l 1,27,-1
 504 174 l 1,28,29
 490 132 490 132 457 104.5 c 128,-1,30
 424 77 424 77 379 77 c 0,31,32
 319 77 319 77 284 115 c 128,-1,33
 249 153 249 153 249 231 c 0,34,35
 249 267 249 267 256 301 c 2,36,-1
 258 308 l 2,37,38
 281 400 281 400 327.5 451 c 128,-1,39
 374 502 374 502 444 502 c 0,40,41
 528 502 528 502 546 427 c 1,42,-1
 550 427 l 1,43,-1
 563 493 l 1,44,-1
 658 493 l 1,45,-1
 602 216 l 2,46,47
 599 200 599 200 599 186 c 0,48,49
 599 152 599 152 632 152 c 0,50,51
 670 152 670 152 698.5 191 c 128,-1,52
 727 230 727 230 744 312 c 0,53,54
 748 328 748 328 751 346 c 128,-1,55
 754 364 754 364 756 383 c 0,56,57
 756 402 756 402 757 408 c 0,58,59
 757 512 757 512 684 577 c 0,60,61
 618 633 618 633 510 633 c 0,62,63
 380 633 380 633 285 549.5 c 128,-1,64
 190 466 190 466 162 328 c 2,65,-1
 153 281 l 2,66,67
 144 244 144 244 144 213 c 2,68,-1
 144 204 l 2,69,70
 144 147 144 147 161 100.5 c 128,-1,71
 178 54 178 54 209 22 c 128,-1,72
 240 -10 240 -10 284.5 -27.5 c 128,-1,73
 329 -45 329 -45 386 -45 c 2,74,-1
 591 -45 l 1,75,-1
 576 -121 l 1,0,-1
414 157 m 0,76,77
 453 157 453 157 479 183 c 128,-1,78
 505 209 505 209 513 244 c 0,79,80
 536 343 536 343 536 362 c 0,81,82
 536 387 536 387 514.5 404 c 128,-1,83
 493 421 493 421 461 421 c 0,84,85
 418 421 418 421 394.5 395.5 c 128,-1,86
 371 370 371 370 363.5 331 c 128,-1,87
 356 292 356 292 348 254 c 0,88,89
 345 242 345 242 345 227 c 0,90,91
 348 157 348 157 414 157 c 0,76,77
EndSplineSet
EndChar

StartChar: A
Encoding: 65 65 34
Width: 645
GlyphClass: 5
Flags: W
LayerCount: 2
Fore
SplineSet
573 0 m 1,0,-1
 450 0 l 1,1,-1
 430 183 l 1,2,-1
 189 183 l 1,3,-1
 97 0 l 1,4,-1
 -32 0 l 1,5,-1
 333 698 l 1,6,-1
 488 698 l 1,7,-1
 573 0 l 1,0,-1
421 286 m 1,8,-1
 392 588 l 1,9,-1
 385 588 l 1,10,-1
 238 286 l 1,11,-1
 421 286 l 1,8,-1
EndSplineSet
EndChar

StartChar: B
Encoding: 66 66 35
Width: 642
GlyphClass: 7
Flags: W
LayerCount: 2
Fore
SplineSet
350 0 m 2,0,-1
 29 0 l 1,1,-1
 169 698 l 1,2,-1
 451 698 l 2,3,4
 525 698 525 698 573.5 662.5 c 128,-1,5
 622 627 622 627 622 553 c 0,6,7
 622 488 622 488 588.5 436.5 c 128,-1,8
 555 385 555 385 484 364 c 1,9,-1
 483 359 l 1,10,11
 586 332 586 332 586 228 c 0,12,13
 586 126 586 126 522.5 63 c 128,-1,14
 459 0 459 0 350 0 c 2,0,-1
349 105 m 2,15,16
 436 105 436 105 452 187 c 0,17,18
 460 231 460 231 461 245 c 0,19,20
 461 304 461 304 377 304 c 2,21,-1
 210 304 l 1,22,-1
 170 105 l 1,23,-1
 349 105 l 2,15,16
382 404 m 2,24,25
 470 404 470 404 487 481 c 0,26,27
 489 489 489 489 490 494.5 c 128,-1,28
 491 500 491 500 491.5 503 c 128,-1,29
 492 506 492 506 495 536 c 0,30,31
 495 568 495 568 475.5 580.5 c 128,-1,32
 456 593 456 593 415 593 c 2,33,-1
 268 593 l 1,34,-1
 230 404 l 1,35,-1
 382 404 l 2,24,25
EndSplineSet
EndChar

StartChar: C
Encoding: 67 67 36
Width: 622
Flags: W
LayerCount: 2
Fore
SplineSet
300 -12 m 0,0,1
 192 -12 192 -12 124 59 c 128,-1,2
 56 130 56 130 56 270 c 0,3,4
 56 387 56 387 100 487.5 c 128,-1,5
 144 588 144 588 222.5 649 c 128,-1,6
 301 710 301 710 406 710 c 0,7,8
 585 710 585 710 637 544 c 1,9,-1
 529 498 l 1,10,11
 515 548 515 548 484.5 575 c 128,-1,12
 454 602 454 602 396 602 c 0,13,14
 317 602 317 602 269.5 550 c 128,-1,15
 222 498 222 498 206 414 c 2,16,-1
 183 302 l 2,17,18
 177 270 177 270 177 246 c 0,19,20
 177 176 177 176 209.5 136 c 128,-1,21
 242 96 242 96 310 96 c 0,22,23
 370 96 370 96 410 125 c 128,-1,24
 450 154 450 154 478 210 c 1,25,-1
 578 163 l 1,26,27
 489 -12 489 -12 300 -12 c 0,0,1
EndSplineSet
EndChar

StartChar: D
Encoding: 68 68 37
Width: 671
Flags: W
LayerCount: 2
Fore
SplineSet
283 0 m 2,0,-1
 29 0 l 1,1,-1
 169 698 l 1,2,-1
 385 698 l 2,3,4
 461 698 461 698 519 670 c 128,-1,5
 577 642 577 642 609.5 583 c 128,-1,6
 642 524 642 524 642 433 c 0,7,8
 642 351 642 351 619.5 273.5 c 128,-1,9
 597 196 597 196 552.5 134.5 c 128,-1,10
 508 73 508 73 440.5 36.5 c 128,-1,11
 373 0 373 0 283 0 c 2,0,-1
291 107 m 2,12,13
 363 107 363 107 417 151 c 128,-1,14
 471 195 471 195 493 293 c 2,15,-1
 512 389 l 2,16,17
 518 425 518 425 518 441 c 2,18,-1
 519 453 l 1,19,20
 519 526 519 526 483.5 558.5 c 128,-1,21
 448 591 448 591 390 591 c 2,22,-1
 268 591 l 1,23,-1
 171 107 l 1,24,-1
 291 107 l 2,12,13
EndSplineSet
EndChar

StartChar: E
Encoding: 69 69 38
Width: 573
Flags: W
LayerCount: 2
Fore
SplineSet
476 0 m 1,0,-1
 29 0 l 1,1,-1
 169 698 l 1,2,-1
 603 698 l 1,3,-1
 581 591 l 1,4,-1
 268 591 l 1,5,-1
 231 406 l 1,6,-1
 510 406 l 1,7,-1
 488 299 l 1,8,-1
 210 299 l 1,9,-1
 171 107 l 1,10,-1
 497 107 l 1,11,-1
 476 0 l 1,0,-1
EndSplineSet
EndChar

StartChar: F
Encoding: 70 70 39
Width: 551
GlyphClass: 2
Flags: W
LayerCount: 2
Fore
SplineSet
149 0 m 1,0,-1
 29 0 l 1,1,-1
 169 698 l 1,2,-1
 592 698 l 1,3,-1
 570 591 l 1,4,-1
 268 591 l 1,5,-1
 231 406 l 1,6,-1
 501 406 l 1,7,-1
 480 299 l 1,8,-1
 209 299 l 1,9,-1
 149 0 l 1,0,-1
EndSplineSet
EndChar

StartChar: G
Encoding: 71 71 40
Width: 685
Flags: W
LayerCount: 2
Fore
SplineSet
282 -12 m 0,0,1
 182 -12 182 -12 119 58 c 128,-1,2
 56 128 56 128 56 267 c 0,3,4
 56 383 56 383 98 484.5 c 128,-1,5
 140 586 140 586 220.5 648 c 128,-1,6
 301 710 301 710 417 710 c 0,7,8
 504 710 504 710 570 670.5 c 128,-1,9
 636 631 636 631 663 547 c 1,10,-1
 560 495 l 1,11,12
 528 602 528 602 408 602 c 0,13,14
 320 602 320 602 270.5 550.5 c 128,-1,15
 221 499 221 499 205 411 c 2,16,-1
 198 378 l 2,17,18
 178 290 178 290 178 246 c 0,19,20
 178 168 178 168 216.5 132 c 128,-1,21
 255 96 255 96 313 96 c 0,22,23
 381 96 381 96 430 132 c 128,-1,24
 479 168 479 168 494 231 c 2,25,-1
 503 273 l 1,26,-1
 368 273 l 1,27,-1
 389 376 l 1,28,-1
 639 376 l 1,29,-1
 564 0 l 1,30,-1
 461 0 l 1,31,-1
 483 108 l 1,32,-1
 476 108 l 1,33,34
 452 57 452 57 404.5 22.5 c 128,-1,35
 357 -12 357 -12 282 -12 c 0,0,1
EndSplineSet
EndChar

StartChar: H
Encoding: 72 72 41
Width: 694
GlyphClass: 5
Flags: W
LayerCount: 2
Fore
SplineSet
560 0 m 1,0,-1
 440 0 l 1,1,-1
 500 299 l 1,2,-1
 210 299 l 1,3,-1
 149 0 l 1,4,-1
 29 0 l 1,5,-1
 169 698 l 1,6,-1
 289 698 l 1,7,-1
 231 406 l 1,8,-1
 522 406 l 1,9,-1
 580 698 l 1,10,-1
 700 698 l 1,11,-1
 560 0 l 1,0,-1
EndSplineSet
EndChar

StartChar: I
Encoding: 73 73 42
Width: 282
Flags: W
LayerCount: 2
Fore
SplineSet
149 0 m 1,0,-1
 29 0 l 1,1,-1
 169 698 l 1,2,-1
 289 698 l 1,3,-1
 149 0 l 1,0,-1
EndSplineSet
EndChar

StartChar: J
Encoding: 74 74 43
Width: 521
GlyphClass: 2
Flags: W
LayerCount: 2
Fore
SplineSet
198 -12 m 0,0,1
 134 -12 134 -12 92.5 12 c 128,-1,2
 51 36 51 36 29.5 77 c 128,-1,3
 8 118 8 118 4 170 c 1,4,-1
 118 193 l 1,5,6
 123 95 123 95 200 95 c 0,7,8
 286 95 286 95 308 201 c 2,9,-1
 406 698 l 1,10,-1
 528 698 l 1,11,-1
 426 187 l 2,12,13
 407 95 407 95 351.5 41.5 c 128,-1,14
 296 -12 296 -12 198 -12 c 0,0,1
EndSplineSet
EndChar

StartChar: K
Encoding: 75 75 44
Width: 641
GlyphClass: 5
Flags: W
LayerCount: 2
Fore
SplineSet
578 0 m 1,0,-1
 445 0 l 1,1,-1
 308 316 l 1,2,-1
 189 198 l 1,3,-1
 149 0 l 1,4,-1
 29 0 l 1,5,-1
 169 698 l 1,6,-1
 290 698 l 1,7,-1
 221 355 l 1,8,-1
 227 355 l 1,9,-1
 340 480 l 1,10,-1
 552 698 l 1,11,-1
 700 698 l 1,12,-1
 402 397 l 1,13,-1
 578 0 l 1,0,-1
EndSplineSet
EndChar

StartChar: L
Encoding: 76 76 45
Width: 502
GlyphClass: 3
Flags: W
LayerCount: 2
Fore
SplineSet
418 0 m 1,0,-1
 29 0 l 1,1,-1
 169 698 l 1,2,-1
 290 698 l 1,3,-1
 171 107 l 1,4,-1
 439 107 l 1,5,-1
 418 0 l 1,0,-1
EndSplineSet
EndChar

StartChar: M
Encoding: 77 77 46
Width: 795
GlyphClass: 5
Flags: W
LayerCount: 2
Fore
SplineSet
661 0 m 1,0,-1
 545 0 l 1,1,-1
 647 509 l 1,2,-1
 642 509 l 1,3,-1
 486 289 l 1,4,-1
 374 134 l 1,5,-1
 251 510 l 1,6,-1
 246 510 l 1,7,-1
 145 0 l 1,8,-1
 29 0 l 1,9,-1
 169 698 l 1,10,-1
 303 698 l 1,11,-1
 410 348 l 1,12,-1
 414 348 l 1,13,-1
 658 698 l 1,14,-1
 801 698 l 1,15,-1
 661 0 l 1,0,-1
EndSplineSet
EndChar

StartChar: N
Encoding: 78 78 47
Width: 694
GlyphClass: 5
Flags: W
LayerCount: 2
Fore
SplineSet
560 0 m 1,0,-1
 428 0 l 1,1,-1
 299 369 l 1,2,-1
 253 518 l 1,3,-1
 247 518 l 1,4,-1
 143 0 l 1,5,-1
 29 0 l 1,6,-1
 169 698 l 1,7,-1
 301 698 l 1,8,-1
 429 329 l 1,9,-1
 476 180 l 1,10,-1
 482 180 l 1,11,-1
 586 698 l 1,12,-1
 700 698 l 1,13,-1
 560 0 l 1,0,-1
EndSplineSet
EndChar

StartChar: O
Encoding: 79 79 48
Width: 690
GlyphClass: 5
Flags: W
LayerCount: 2
Fore
SplineSet
305 -12 m 0,0,1
 196 -12 196 -12 126 61.5 c 128,-1,2
 56 135 56 135 56 267 c 0,3,4
 56 388 56 388 108 499 c 128,-1,5
 160 610 160 610 264 672 c 0,6,7
 330 710 330 710 414 710 c 0,8,9
 527 710 527 710 595 635.5 c 128,-1,10
 663 561 663 561 663 431 c 0,11,12
 663 316 663 316 618.5 214.5 c 128,-1,13
 574 113 574 113 493.5 50.5 c 128,-1,14
 413 -12 413 -12 305 -12 c 0,0,1
315 96 m 0,15,16
 399 96 399 96 448.5 149.5 c 128,-1,17
 498 203 498 203 515 299 c 2,18,-1
 535 398 l 2,19,20
 540 423 540 423 540 442 c 2,21,-1
 541 456 l 1,22,23
 538 602 538 602 405 602 c 0,24,25
 244 602 244 602 203 398 c 2,26,-1
 184 300 l 2,27,28
 179 275 179 275 179 256 c 2,29,-1
 178 242 l 1,30,31
 178 96 178 96 315 96 c 0,15,16
EndSplineSet
EndChar

StartChar: P
Encoding: 80 80 49
Width: 618
GlyphClass: 7
Flags: W
LayerCount: 2
Fore
SplineSet
149 0 m 1,0,-1
 29 0 l 1,1,-1
 169 698 l 1,2,-1
 426 698 l 2,3,4
 531 698 531 698 579.5 647.5 c 128,-1,5
 628 597 628 597 628 518 c 0,6,7
 628 412 628 412 557 341.5 c 128,-1,8
 486 271 486 271 371 271 c 2,9,-1
 203 271 l 1,10,-1
 149 0 l 1,0,-1
388 378 m 2,11,12
 427 378 427 378 453 400.5 c 128,-1,13
 479 423 479 423 491.5 457.5 c 128,-1,14
 504 492 504 492 504 527 c 0,15,16
 504 591 504 591 428 591 c 2,17,-1
 268 591 l 1,18,-1
 225 378 l 1,19,-1
 388 378 l 2,11,12
EndSplineSet
EndChar

StartChar: Q
Encoding: 81 81 50
Width: 696
GlyphClass: 7
Flags: W
LayerCount: 2
Fore
SplineSet
315 96 m 0,0,1
 399 96 399 96 448.5 149.5 c 128,-1,2
 498 203 498 203 515 299 c 2,3,-1
 535 398 l 2,4,5
 540 423 540 423 540 442 c 2,6,-1
 541 456 l 1,7,8
 538 602 538 602 405 602 c 0,9,10
 244 602 244 602 203 398 c 2,11,-1
 184 300 l 2,12,13
 179 275 179 275 179 256 c 2,14,-1
 178 242 l 1,15,16
 178 96 178 96 315 96 c 0,0,1
514 68 m 1,17,-1
 625 -5 l 1,18,-1
 554 -95 l 1,19,-1
 404 3 l 1,20,21
 358 -12 358 -12 305 -12 c 0,22,23
 196 -12 196 -12 126 61.5 c 128,-1,24
 56 135 56 135 56 267 c 0,25,26
 56 388 56 388 108 499 c 128,-1,27
 160 610 160 610 264 672 c 0,28,29
 330 710 330 710 414 710 c 0,30,31
 527 710 527 710 595 635.5 c 128,-1,32
 663 561 663 561 663 431 c 0,33,34
 663 316 663 316 619 215 c 0,35,36
 580 126 580 126 514 68 c 1,17,-1
EndSplineSet
EndChar

StartChar: R
Encoding: 82 82 51
Width: 644
GlyphClass: 5
Flags: W
LayerCount: 2
Fore
SplineSet
543 0 m 1,0,-1
 414 0 l 1,1,-1
 335 275 l 1,2,-1
 204 275 l 1,3,-1
 149 0 l 1,4,-1
 29 0 l 1,5,-1
 169 698 l 1,6,-1
 432 698 l 2,7,8
 534 698 534 698 581 648.5 c 128,-1,9
 628 599 628 599 628 523 c 0,10,11
 628 443 628 443 582 379 c 128,-1,12
 536 315 536 315 453 289 c 1,13,-1
 543 0 l 1,0,-1
388 378 m 2,14,15
 427 378 427 378 453 400.5 c 128,-1,16
 479 423 479 423 491.5 457.5 c 128,-1,17
 504 492 504 492 504 527 c 0,18,19
 504 591 504 591 428 591 c 2,20,-1
 268 591 l 1,21,-1
 225 378 l 1,22,-1
 388 378 l 2,14,15
EndSplineSet
EndChar

StartChar: S
Encoding: 83 83 52
Width: 607
GlyphClass: 7
Flags: W
LayerCount: 2
Fore
SplineSet
267 -12 m 0,0,1
 102 -12 102 -12 8 104 c 1,2,-1
 94 187 l 1,3,4
 166 99 166 99 274 99 c 0,5,6
 339 99 339 99 370 126.5 c 128,-1,7
 401 154 401 154 401 200 c 0,8,9
 401 224 401 224 385.5 247.5 c 128,-1,10
 370 271 370 271 319 291 c 2,11,-1
 258 313 l 2,12,13
 89 376 89 376 89 506 c 0,14,15
 89 591 89 591 153.5 650.5 c 128,-1,16
 218 710 218 710 340 710 c 0,17,18
 494 710 494 710 578 606 c 1,19,-1
 492 525 l 1,20,21
 436 599 436 599 333 599 c 0,22,23
 217 599 217 599 217 513 c 0,24,25
 217 488 217 488 233.5 466 c 128,-1,26
 250 444 250 444 300 426 c 2,27,-1
 362 401 l 2,28,29
 466 360 466 360 503 303 c 0,30,31
 528 263 528 263 528 211 c 0,32,33
 528 110 528 110 457.5 49 c 128,-1,34
 387 -12 387 -12 267 -12 c 0,0,1
EndSplineSet
EndChar

StartChar: T
Encoding: 84 84 53
Width: 564
GlyphClass: 1
Flags: W
LayerCount: 2
Fore
SplineSet
289 0 m 1,0,-1
 169 0 l 1,1,-1
 287 591 l 1,2,-1
 92 591 l 1,3,-1
 114 698 l 1,4,-1
 624 698 l 1,5,-1
 603 591 l 1,6,-1
 408 591 l 1,7,-1
 289 0 l 1,0,-1
EndSplineSet
EndChar

StartChar: U
Encoding: 85 85 54
Width: 669
GlyphClass: 3
Flags: W
LayerCount: 2
Fore
SplineSet
297 -12 m 0,0,1
 184 -12 184 -12 130 45.5 c 128,-1,2
 76 103 76 103 76 205 c 0,3,4
 76 247 76 247 86 300 c 2,5,-1
 165 698 l 1,6,-1
 285 698 l 1,7,-1
 201 278 l 2,8,9
 193 240 193 240 193 211 c 0,10,11
 196 99 196 99 305 99 c 0,12,13
 376 99 376 99 416 142 c 128,-1,14
 456 185 456 185 473 275 c 0,15,16
 526 542 526 542 558 698 c 1,17,-1
 677 698 l 1,18,-1
 593 276 l 2,19,20
 564 124 564 124 494.5 56 c 128,-1,21
 425 -12 425 -12 297 -12 c 0,0,1
EndSplineSet
EndChar

StartChar: V
Encoding: 86 86 55
Width: 616
Flags: W
LayerCount: 2
Fore
SplineSet
325 0 m 1,0,-1
 186 0 l 1,1,-1
 104 698 l 1,2,-1
 225 698 l 1,3,-1
 242 527 l 2,4,5
 253 422 253 422 257 369 c 2,6,-1
 276 127 l 1,7,-1
 282 127 l 1,8,-1
 392 362 l 2,9,10
 415 411 415 411 462 503 c 2,11,-1
 560 698 l 1,12,-1
 688 698 l 1,13,-1
 325 0 l 1,0,-1
EndSplineSet
EndChar

StartChar: W
Encoding: 87 87 56
Width: 911
Flags: W
LayerCount: 2
Fore
SplineSet
674 0 m 1,0,-1
 535 0 l 1,1,-1
 528 190 l 2,2,3
 524 282 524 282 523 344 c 2,4,-1
 519 563 l 1,5,-1
 512 563 l 1,6,-1
 273 0 l 1,7,-1
 131 0 l 1,8,-1
 111 698 l 1,9,-1
 230 698 l 1,10,-1
 231 390 l 1,11,-1
 229 302 l 2,12,13
 227 215 227 215 227 127 c 1,14,-1
 235 127 l 1,15,-1
 334 375 l 2,16,17
 355 426 355 426 402 535 c 2,18,-1
 473 698 l 1,19,-1
 608 698 l 1,20,-1
 617 445 l 1,21,-1
 619 279 l 1,22,-1
 619 122 l 1,23,-1
 627 122 l 1,24,-1
 677 254 l 2,25,26
 728 391 728 391 768 491 c 2,27,-1
 851 698 l 1,28,-1
 973 698 l 1,29,-1
 674 0 l 1,0,-1
EndSplineSet
EndChar

StartChar: X
Encoding: 88 88 57
Width: 624
Flags: W
LayerCount: 2
Fore
SplineSet
548 0 m 1,0,-1
 418 0 l 1,1,-1
 311 260 l 1,2,-1
 304 260 l 1,3,-1
 106 0 l 1,4,-1
 -34 0 l 1,5,-1
 255 365 l 1,6,-1
 111 698 l 1,7,-1
 239 698 l 1,8,-1
 344 446 l 1,9,-1
 350 446 l 1,10,-1
 547 698 l 1,11,-1
 686 698 l 1,12,-1
 397 346 l 1,13,-1
 548 0 l 1,0,-1
EndSplineSet
EndChar

StartChar: Y
Encoding: 89 89 58
Width: 606
Flags: W
LayerCount: 2
Fore
SplineSet
309 0 m 1,0,-1
 189 0 l 1,1,-1
 244 272 l 1,2,-1
 96 698 l 1,3,-1
 219 698 l 1,4,-1
 322 386 l 1,5,-1
 327 386 l 1,6,-1
 547 698 l 1,7,-1
 682 698 l 1,8,-1
 363 264 l 1,9,-1
 309 0 l 1,0,-1
EndSplineSet
EndChar

StartChar: Z
Encoding: 90 90 59
Width: 568
Flags: W
LayerCount: 2
Fore
SplineSet
481 0 m 1,0,-1
 -12 0 l 1,1,-1
 10 109 l 1,2,-1
 450 591 l 1,3,-1
 119 591 l 1,4,-1
 140 698 l 1,5,-1
 615 698 l 1,6,-1
 593 589 l 1,7,-1
 152 107 l 1,8,-1
 502 107 l 1,9,-1
 481 0 l 1,0,-1
EndSplineSet
EndChar

StartChar: bracketleft
Encoding: 91 91 60
Width: 321
Flags: W
LayerCount: 2
Fore
SplineSet
197 -138 m 1,0,-1
 2 -138 l 1,1,-1
 182 760 l 1,2,-1
 377 760 l 1,3,-1
 360 676 l 1,4,-1
 270 676 l 1,5,-1
 123 -54 l 1,6,-1
 213 -54 l 1,7,-1
 197 -138 l 1,0,-1
EndSplineSet
EndChar

StartChar: backslash
Encoding: 92 92 61
Width: 440
Flags: W
LayerCount: 2
Fore
SplineSet
341 -151 m 1,0,-1
 245 -151 l 1,1,-1
 146 740 l 1,2,-1
 242 740 l 1,3,-1
 341 -151 l 1,0,-1
EndSplineSet
EndChar

StartChar: bracketright
Encoding: 93 93 62
Width: 320
Flags: W
LayerCount: 2
Fore
SplineSet
160 -138 m 1,0,-1
 -35 -138 l 1,1,-1
 -18 -54 l 1,2,-1
 72 -54 l 1,3,-1
 218 676 l 1,4,-1
 127 676 l 1,5,-1
 144 760 l 1,6,-1
 340 760 l 1,7,-1
 160 -138 l 1,0,-1
EndSplineSet
EndChar

StartChar: asciicircum
Encoding: 94 94 63
Width: 600
Flags: W
LayerCount: 2
Fore
SplineSet
476 286 m 1,0,-1
 369 578 l 1,1,-1
 361 578 l 1,2,-1
 145 286 l 1,3,-1
 58 338 l 1,4,-1
 324 698 l 1,5,-1
 438 698 l 1,6,-1
 573 325 l 1,7,-1
 476 286 l 1,0,-1
EndSplineSet
EndChar

StartChar: underscore
Encoding: 95 95 64
Width: 548
Flags: W
LayerCount: 2
Fore
SplineSet
432 -178 m 1,0,-1
 -59 -178 l 1,1,-1
 -39 -79 l 1,2,-1
 451 -79 l 1,3,-1
 432 -178 l 1,0,-1
EndSplineSet
EndChar

StartChar: grave
Encoding: 96 96 65
Width: 588
Flags: W
LayerCount: 2
Fore
SplineSet
283 581 m 1,0,-1
 186 752 l 1,1,-1
 290 801 l 1,2,-1
 355 614 l 1,3,-1
 283 581 l 1,0,-1
EndSplineSet
EndChar

StartChar: a
Encoding: 97 97 66
Width: 588
Flags: W
LayerCount: 2
Fore
SplineSet
185 -12 m 0,0,1
 149 -12 149 -12 121.5 2 c 128,-1,2
 94 16 94 16 75.5 40.5 c 128,-1,3
 57 65 57 65 47.5 99.5 c 128,-1,4
 38 134 38 134 38 176 c 0,5,6
 38 244 38 244 55 308.5 c 128,-1,7
 72 373 72 373 103.5 422.5 c 128,-1,8
 135 472 135 472 181.5 503 c 128,-1,9
 228 534 228 534 286 534 c 0,10,11
 337 534 337 534 373.5 506 c 128,-1,12
 410 478 410 478 418 433 c 1,13,-1
 423 433 l 1,14,-1
 440 522 l 1,15,-1
 556 522 l 1,16,-1
 471 95 l 1,17,-1
 535 95 l 1,18,-1
 516 0 l 1,19,-1
 433 0 l 2,20,21
 360 2 360 2 354 62 c 2,22,-1
 353 76 l 1,23,24
 356 105 356 105 359 118 c 1,25,-1
 355 118 l 1,26,27
 324 54 324 54 285.5 21 c 128,-1,28
 247 -12 247 -12 185 -12 c 0,0,1
235 86 m 0,29,30
 286 86 286 86 328 132 c 128,-1,31
 370 178 370 178 385 247 c 2,32,-1
 396 304 l 2,33,34
 406 352 406 352 406 359 c 0,35,36
 406 390 406 390 381 413 c 128,-1,37
 356 436 356 436 310 436 c 0,38,39
 204 436 204 436 177 304 c 2,40,-1
 170 270 l 2,41,42
 157 216 157 216 157 177 c 0,43,44
 159 86 159 86 235 86 c 0,29,30
EndSplineSet
EndChar

StartChar: b
Encoding: 98 98 67
Width: 579
Flags: W
LayerCount: 2
Fore
SplineSet
293 -12 m 0,0,1
 243 -12 243 -12 206.5 13 c 128,-1,2
 170 38 170 38 161 88 c 1,3,-1
 156 88 l 1,4,-1
 139 0 l 1,5,-1
 23 0 l 1,6,-1
 171 740 l 1,7,-1
 287 740 l 1,8,-1
 220 404 l 1,9,-1
 224 404 l 1,10,11
 254 468 254 468 294 501 c 128,-1,12
 334 534 334 534 394 534 c 0,13,14
 468 534 468 534 504.5 481 c 128,-1,15
 541 428 541 428 541 346 c 0,16,17
 541 249 541 249 509 167.5 c 128,-1,18
 477 86 477 86 421 37 c 128,-1,19
 365 -12 365 -12 293 -12 c 0,0,1
269 86 m 0,20,21
 377 86 377 86 402 218 c 0,22,23
 406 245 406 245 411 268 c 0,24,25
 422 303 422 303 422 345 c 0,26,27
 421 385 421 385 402.5 410.5 c 128,-1,28
 384 436 384 436 343 436 c 0,29,30
 291 436 291 436 250 389.5 c 128,-1,31
 209 343 209 343 194 275 c 2,32,-1
 174 174 l 1,33,34
 174 151 174 151 179 135 c 128,-1,35
 184 119 184 119 199 107 c 0,36,37
 224 86 224 86 269 86 c 0,20,21
EndSplineSet
EndChar

StartChar: c
Encoding: 99 99 68
Width: 492
Flags: W
LayerCount: 2
Fore
SplineSet
237 -12 m 0,0,1
 151 -12 151 -12 94.5 42 c 128,-1,2
 38 96 38 96 38 209 c 0,3,4
 38 300 38 300 72.5 373.5 c 128,-1,5
 107 447 107 447 168 490.5 c 128,-1,6
 229 534 229 534 307 534 c 0,7,8
 381 534 381 534 428 498.5 c 128,-1,9
 475 463 475 463 489 404 c 1,10,-1
 391 365 l 1,11,12
 380 401 380 401 360.5 419 c 128,-1,13
 341 437 341 437 301 437 c 0,14,15
 200 437 200 437 176 313 c 2,16,-1
 158 226 l 2,17,18
 153 201 153 201 153 183 c 0,19,20
 153 84 153 84 248 84 c 0,21,22
 285 84 285 84 311 106 c 128,-1,23
 337 128 337 128 362 174 c 1,24,-1
 451 132 l 1,25,26
 382 -12 382 -12 237 -12 c 0,0,1
EndSplineSet
EndChar

StartChar: d
Encoding: 100 100 69
Width: 588
Flags: W
LayerCount: 2
Fore
SplineSet
185 -12 m 0,0,1
 149 -12 149 -12 121.5 2 c 128,-1,2
 94 16 94 16 75.5 40.5 c 128,-1,3
 57 65 57 65 47.5 99.5 c 128,-1,4
 38 134 38 134 38 176 c 0,5,6
 38 244 38 244 55 309 c 128,-1,7
 72 374 72 374 104 423.5 c 128,-1,8
 136 473 136 473 182 503.5 c 128,-1,9
 228 534 228 534 286 534 c 0,10,11
 337 534 337 534 373.5 506.5 c 128,-1,12
 410 479 410 479 418 433 c 1,13,-1
 423 433 l 1,14,-1
 484 740 l 1,15,-1
 600 740 l 1,16,-1
 471 95 l 1,17,-1
 535 95 l 1,18,-1
 516 0 l 1,19,-1
 433 0 l 2,20,21
 369 1 369 1 361 52 c 0,22,23
 357 61 357 61 355.5 69 c 128,-1,24
 354 77 354 77 354 84 c 0,25,26
 355 101 355 101 359 118 c 1,27,-1
 355 118 l 1,28,29
 323 53 323 53 285 20.5 c 128,-1,30
 247 -12 247 -12 185 -12 c 0,0,1
236 86 m 0,31,32
 275 86 275 86 305.5 110 c 128,-1,33
 336 134 336 134 356.5 170.5 c 128,-1,34
 377 207 377 207 385 246 c 0,35,36
 405 348 405 348 405 358 c 0,37,38
 405 393 405 393 381 414.5 c 128,-1,39
 357 436 357 436 309 436 c 0,40,41
 204 436 204 436 177 304 c 2,42,-1
 171 271 l 2,43,44
 157 215 157 215 157 177 c 0,45,46
 161 86 161 86 236 86 c 0,31,32
EndSplineSet
EndChar

StartChar: e
Encoding: 101 101 70
Width: 513
Flags: W
LayerCount: 2
Fore
SplineSet
250 -12 m 0,0,1
 139 -12 139 -12 88.5 48.5 c 128,-1,2
 38 109 38 109 38 210 c 0,3,4
 38 285 38 285 69 359.5 c 128,-1,5
 100 434 100 434 162 484 c 128,-1,6
 224 534 224 534 317 534 c 0,7,8
 391 534 391 534 444 497 c 128,-1,9
 497 460 497 460 497 390 c 0,10,11
 497 304 497 304 411 261 c 128,-1,12
 325 218 325 218 156 213 c 1,13,-1
 155 203 l 2,14,15
 153 192 153 192 153 183 c 0,16,17
 153 84 153 84 258 84 c 0,18,19
 341 84 341 84 397 161 c 1,20,-1
 470 101 l 1,21,22
 423 43 423 43 370 15.5 c 128,-1,23
 317 -12 317 -12 250 -12 c 0,0,1
169 291 m 1,24,25
 292 296 292 296 337.5 317 c 128,-1,26
 383 338 383 338 383 382 c 0,27,28
 383 443 383 443 309 443 c 0,29,30
 199 443 199 443 170 299 c 1,31,-1
 169 291 l 1,24,25
EndSplineSet
EndChar

StartChar: f
Encoding: 102 102 71
Width: 335
Flags: W
LayerCount: 2
Fore
SplineSet
-10 -200 m 2,0,-1
 -82 -200 l 1,1,-1
 -63 -105 l 1,2,-1
 32 -105 l 1,3,-1
 138 426 l 1,4,-1
 63 426 l 1,5,-1
 82 522 l 1,6,-1
 158 522 l 1,7,-1
 174 604 l 2,8,9
 198 740 198 740 341 740 c 2,10,-1
 417 740 l 1,11,-1
 398 645 l 1,12,-1
 298 645 l 1,13,-1
 274 522 l 1,14,-1
 375 522 l 1,15,-1
 357 426 l 1,16,-1
 254 426 l 1,17,-1
 156 -64 l 2,18,19
 131 -200 131 -200 -10 -200 c 2,0,-1
EndSplineSet
EndChar

StartChar: g
Encoding: 103 103 72
Width: 568
Flags: W
LayerCount: 2
Fore
SplineSet
204 -212 m 0,0,1
 67 -212 67 -212 1 -120 c 1,2,-1
 77 -52 l 1,3,4
 118 -117 118 -117 202 -117 c 0,5,6
 312 -117 312 -117 339 17 c 2,7,-1
 361 127 l 1,8,-1
 356 127 l 1,9,10
 326 61 326 61 285 29 c 128,-1,11
 244 -3 244 -3 186 -3 c 0,12,13
 115 -3 115 -3 77.5 49 c 128,-1,14
 40 101 40 101 40 185 c 0,15,16
 40 281 40 281 70 360 c 128,-1,17
 100 439 100 439 155 486.5 c 128,-1,18
 210 534 210 534 285 534 c 0,19,20
 333 534 333 534 370.5 507.5 c 128,-1,21
 408 481 408 481 418 433 c 1,22,-1
 423 433 l 1,23,-1
 440 522 l 1,24,-1
 556 522 l 1,25,-1
 454 9 l 2,26,27
 434 -96 434 -96 375 -154 c 128,-1,28
 316 -212 316 -212 204 -212 c 0,0,1
237 94 m 0,29,30
 286 94 286 94 328.5 138.5 c 128,-1,31
 371 183 371 183 386 255 c 2,32,-1
 398 318 l 2,33,34
 404 349 404 349 404 355 c 0,35,36
 404 372 404 372 396.5 391 c 128,-1,37
 389 410 389 410 368.5 423 c 128,-1,38
 348 436 348 436 309 436 c 0,39,40
 203 436 203 436 178 304 c 0,41,42
 172 272 172 272 165.5 241 c 128,-1,43
 159 210 159 210 159 185 c 0,44,45
 159 99 159 99 237 94 c 0,29,30
EndSplineSet
EndChar

StartChar: h
Encoding: 104 104 73
Width: 578
Flags: W
LayerCount: 2
Fore
SplineSet
509 0 m 1,0,-1
 426 0 l 2,1,2
 388 0 388 0 369 19 c 128,-1,3
 350 38 350 38 350 69 c 0,4,5
 350 101 350 101 363 153 c 0,6,7
 369 177 369 177 374 204 c 2,8,-1
 377 219 l 2,9,10
 403 330 403 330 403 369 c 0,11,12
 403 435 403 435 340 435 c 0,13,14
 304 435 304 435 273 411 c 128,-1,15
 242 387 242 387 221.5 351 c 128,-1,16
 201 315 201 315 194 277 c 2,17,-1
 139 0 l 1,18,-1
 23 0 l 1,19,-1
 171 740 l 1,20,-1
 287 740 l 1,21,-1
 220 407 l 1,22,-1
 226 407 l 1,23,24
 254 469 254 469 294 501.5 c 128,-1,25
 334 534 334 534 394 534 c 0,26,27
 461 534 461 534 491.5 495.5 c 128,-1,28
 522 457 522 457 522 395 c 0,29,30
 522 359 522 359 514 324 c 2,31,-1
 468 95 l 1,32,-1
 528 95 l 1,33,-1
 509 0 l 1,0,-1
EndSplineSet
EndChar

StartChar: i
Encoding: 105 105 74
Width: 274
Flags: W
LayerCount: 2
Fore
SplineSet
203 603 m 0,0,1
 143 603 143 603 143 648 c 0,2,3
 143 666 143 666 149 688.5 c 128,-1,4
 155 711 155 711 173.5 728 c 128,-1,5
 192 745 192 745 228 745 c 0,6,7
 260 745 260 745 274.5 732 c 128,-1,8
 289 719 289 719 289 700 c 0,9,10
 289 663 289 663 270 633 c 128,-1,11
 251 603 251 603 203 603 c 0,0,1
203 0 m 1,12,-1
 121 0 l 2,13,14
 79 0 79 0 59 21 c 128,-1,15
 39 42 39 42 39 73 c 0,16,17
 39 85 39 85 127 522 c 1,18,-1
 243 522 l 1,19,-1
 157 95 l 1,20,-1
 222 95 l 1,21,-1
 203 0 l 1,12,-1
EndSplineSet
EndChar

StartChar: j
Encoding: 106 106 75
Width: 267
Flags: W
LayerCount: 2
Fore
SplineSet
-19 -200 m 2,0,-1
 -93 -200 l 1,1,-1
 -74 -105 l 1,2,-1
 4 -105 l 1,3,-1
 130 522 l 1,4,-1
 246 522 l 1,5,-1
 125 -76 l 1,6,7
 107 -200 107 -200 -19 -200 c 2,0,-1
206 603 m 0,8,9
 145 603 145 603 145 648 c 0,10,11
 145 665 145 665 151 688 c 128,-1,12
 157 711 157 711 175.5 728 c 128,-1,13
 194 745 194 745 231 745 c 0,14,15
 262 745 262 745 276.5 732 c 128,-1,16
 291 719 291 719 291 700 c 0,17,18
 291 663 291 663 272.5 633 c 128,-1,19
 254 603 254 603 206 603 c 0,8,9
EndSplineSet
EndChar

StartChar: k
Encoding: 107 107 76
Width: 538
Flags: W
LayerCount: 2
Fore
SplineSet
472 0 m 1,0,-1
 409 0 l 2,1,2
 337 0 337 0 315 70 c 1,3,-1
 253 234 l 1,4,-1
 169 155 l 1,5,-1
 139 0 l 1,6,-1
 23 0 l 1,7,-1
 171 740 l 1,8,-1
 287 740 l 1,9,-1
 198 294 l 1,10,-1
 204 294 l 1,11,-1
 283 383 l 1,12,-1
 427 522 l 1,13,-1
 564 522 l 1,14,-1
 344 311 l 1,15,-1
 429 95 l 1,16,-1
 491 95 l 1,17,-1
 472 0 l 1,0,-1
EndSplineSet
EndChar

StartChar: l
Encoding: 108 108 77
Width: 274
Flags: W
LayerCount: 2
Fore
SplineSet
207 0 m 1,0,-1
 121 0 l 2,1,2
 78 0 78 0 58.5 21 c 128,-1,3
 39 42 39 42 39 73 c 0,4,5
 39 83 39 83 170 740 c 1,6,-1
 286 740 l 1,7,-1
 157 95 l 1,8,-1
 225 95 l 1,9,-1
 207 0 l 1,0,-1
EndSplineSet
EndChar

StartChar: m
Encoding: 109 109 78
Width: 865
Flags: W
LayerCount: 2
Fore
SplineSet
796 0 m 1,0,-1
 713 0 l 2,1,2
 637 0 637 0 637 69 c 0,3,4
 637 77 637 77 663 209 c 2,5,-1
 675 267 l 2,6,7
 691 330 691 330 691 370 c 0,8,9
 691 435 691 435 633 435 c 0,10,11
 585 435 585 435 545.5 386.5 c 128,-1,12
 506 338 506 338 495 277 c 2,13,-1
 439 0 l 1,14,-1
 323 0 l 1,15,-1
 386 314 l 2,16,17
 393 344 393 344 393 370 c 0,18,19
 393 435 393 435 337 435 c 0,20,21
 300 435 300 435 270 409.5 c 128,-1,22
 240 384 240 384 220.5 348 c 128,-1,23
 201 312 201 312 194 277 c 2,24,-1
 139 0 l 1,25,-1
 23 0 l 1,26,-1
 127 522 l 1,27,-1
 243 522 l 1,28,-1
 220 407 l 1,29,-1
 226 407 l 1,30,31
 254 469 254 469 293 501.5 c 128,-1,32
 332 534 332 534 390 534 c 0,33,34
 506 534 506 534 511 407 c 1,35,-1
 516 407 l 1,36,37
 543 467 543 467 583.5 500.5 c 128,-1,38
 624 534 624 534 686 534 c 0,39,40
 750 534 750 534 779.5 495.5 c 128,-1,41
 809 457 809 457 809 397 c 0,42,43
 809 356 809 356 799 315 c 2,44,-1
 755 95 l 1,45,-1
 815 95 l 1,46,-1
 796 0 l 1,0,-1
EndSplineSet
EndChar

StartChar: n
Encoding: 110 110 79
Width: 578
Flags: W
LayerCount: 2
Fore
SplineSet
509 0 m 1,0,-1
 426 0 l 2,1,2
 388 0 388 0 369 19 c 128,-1,3
 350 38 350 38 350 69 c 0,4,5
 350 101 350 101 363 151 c 2,6,-1
 374 203 l 2,7,8
 403 326 403 326 403 369 c 0,9,10
 403 435 403 435 340 435 c 0,11,12
 304 435 304 435 273 411 c 128,-1,13
 242 387 242 387 221.5 351 c 128,-1,14
 201 315 201 315 194 277 c 2,15,-1
 139 0 l 1,16,-1
 23 0 l 1,17,-1
 127 522 l 1,18,-1
 243 522 l 1,19,-1
 220 407 l 1,20,-1
 226 407 l 1,21,22
 254 468 254 468 294.5 501 c 128,-1,23
 335 534 335 534 394 534 c 0,24,25
 461 534 461 534 491.5 495.5 c 128,-1,26
 522 457 522 457 522 395 c 0,27,28
 522 355 522 355 512 313 c 2,29,-1
 468 95 l 1,30,-1
 528 95 l 1,31,-1
 509 0 l 1,0,-1
EndSplineSet
EndChar

StartChar: o
Encoding: 111 111 80
Width: 546
Flags: W
LayerCount: 2
Fore
SplineSet
239 -12 m 0,0,1
 151 -12 151 -12 94.5 41 c 128,-1,2
 38 94 38 94 38 204 c 0,3,4
 38 288 38 288 70 363.5 c 128,-1,5
 102 439 102 439 162 486.5 c 128,-1,6
 222 534 222 534 307 534 c 0,7,8
 394 534 394 534 451 480.5 c 128,-1,9
 508 427 508 427 508 317 c 0,10,11
 508 178 508 178 430.5 83 c 128,-1,12
 353 -12 353 -12 239 -12 c 0,0,1
246 84 m 0,13,14
 344 84 344 84 373 225 c 2,15,-1
 389 301 l 2,16,17
 393 313 393 313 393 340 c 0,18,19
 392 384 392 384 369.5 410.5 c 128,-1,20
 347 437 347 437 300 437 c 0,21,22
 203 437 203 437 173 297 c 2,23,-1
 157 220 l 2,24,25
 153 204 153 204 153 182 c 0,26,27
 153 138 153 138 174.5 111 c 128,-1,28
 196 84 196 84 246 84 c 0,13,14
EndSplineSet
EndChar

StartChar: p
Encoding: 112 112 81
Width: 579
Flags: W
LayerCount: 2
Fore
SplineSet
99 -200 m 1,0,-1
 -17 -200 l 1,1,-1
 127 522 l 1,2,-1
 243 522 l 1,3,-1
 220 404 l 1,4,-1
 224 404 l 1,5,6
 254 468 254 468 294 501 c 128,-1,7
 334 534 334 534 394 534 c 0,8,9
 468 534 468 534 504.5 481 c 128,-1,10
 541 428 541 428 541 346 c 0,11,12
 541 249 541 249 509 167.5 c 128,-1,13
 477 86 477 86 421 37 c 128,-1,14
 365 -12 365 -12 293 -12 c 0,15,16
 242 -12 242 -12 206 13.5 c 128,-1,17
 170 39 170 39 161 88 c 1,18,-1
 156 88 l 1,19,-1
 99 -200 l 1,0,-1
269 86 m 0,20,21
 377 86 377 86 402 218 c 0,22,23
 406 245 406 245 411 268 c 0,24,25
 422 303 422 303 422 345 c 0,26,27
 421 385 421 385 402.5 410.5 c 128,-1,28
 384 436 384 436 343 436 c 0,29,30
 289 436 289 436 249 388 c 128,-1,31
 209 340 209 340 194 275 c 2,32,-1
 174 174 l 1,33,34
 174 151 174 151 179 135 c 128,-1,35
 184 119 184 119 199 107 c 0,36,37
 224 86 224 86 269 86 c 0,20,21
EndSplineSet
EndChar

StartChar: q
Encoding: 113 113 82
Width: 578
Flags: W
LayerCount: 2
Fore
SplineSet
412 -200 m 1,0,-1
 296 -200 l 1,1,-1
 359 118 l 1,2,-1
 355 118 l 1,3,4
 323 51 323 51 283 19.5 c 128,-1,5
 243 -12 243 -12 185 -12 c 0,6,7
 108 -12 108 -12 73 42 c 128,-1,8
 38 96 38 96 38 176 c 0,9,10
 38 262 38 262 66.5 344.5 c 128,-1,11
 95 427 95 427 150.5 480.5 c 128,-1,12
 206 534 206 534 286 534 c 0,13,14
 335 534 335 534 372 507 c 128,-1,15
 409 480 409 480 418 433 c 1,16,-1
 423 433 l 1,17,-1
 440 522 l 1,18,-1
 556 522 l 1,19,-1
 412 -200 l 1,0,-1
236 86 m 0,20,21
 287 86 287 86 328.5 132 c 128,-1,22
 370 178 370 178 385 246 c 2,23,-1
 403 335 l 2,24,25
 405 351 405 351 405 358 c 0,26,27
 405 393 405 393 381 414.5 c 128,-1,28
 357 436 357 436 309 436 c 0,29,30
 204 436 204 436 177 304 c 2,31,-1
 170 270 l 2,32,33
 157 216 157 216 157 177 c 0,34,35
 158 136 158 136 176.5 111 c 128,-1,36
 195 86 195 86 236 86 c 0,20,21
EndSplineSet
EndChar

StartChar: r
Encoding: 114 114 83
Width: 383
Flags: W
LayerCount: 2
Fore
SplineSet
139 0 m 1,0,-1
 23 0 l 1,1,-1
 127 522 l 1,2,-1
 243 522 l 1,3,-1
 220 404 l 1,4,-1
 226 404 l 1,5,6
 245 452 245 452 287 487 c 128,-1,7
 329 522 329 522 381 522 c 2,8,-1
 409 522 l 1,9,-1
 385 408 l 1,10,-1
 350 408 l 2,11,12
 281 408 281 408 244 378.5 c 128,-1,13
 207 349 207 349 196 288 c 2,14,-1
 139 0 l 1,0,-1
EndSplineSet
EndChar

StartChar: s
Encoding: 115 115 84
Width: 497
Flags: W
LayerCount: 2
Fore
SplineSet
223 -12 m 0,0,1
 86 -12 86 -12 9 85 c 1,2,-1
 85 157 l 1,3,4
 141 85 141 85 229 85 c 0,5,6
 307 85 307 85 315 133 c 2,7,-1
 316 144 l 2,8,9
 316 183 316 183 260 203 c 0,10,11
 187 229 187 229 156 243 c 0,12,13
 118 261 118 261 93.5 293.5 c 128,-1,14
 69 326 69 326 69 371 c 0,15,16
 69 446 69 446 123.5 490 c 128,-1,17
 178 534 178 534 267 534 c 0,18,19
 342 534 342 534 388 511.5 c 128,-1,20
 434 489 434 489 468 451 c 1,21,-1
 395 379 l 1,22,23
 343 437 343 437 270 437 c 0,24,25
 227 437 227 437 207.5 420.5 c 128,-1,26
 188 404 188 404 188 380 c 0,27,28
 188 336 188 336 248 320 c 1,29,-1
 298 303 l 2,30,31
 433 256 433 256 436 158 c 0,32,33
 436 80 436 80 376.5 34 c 128,-1,34
 317 -12 317 -12 223 -12 c 0,0,1
EndSplineSet
EndChar

StartChar: t
Encoding: 116 116 85
Width: 340
Flags: W
LayerCount: 2
Fore
SplineSet
257 0 m 1,0,-1
 166 0 l 2,1,2
 70 0 70 0 64 76 c 2,3,-1
 63 86 l 1,4,5
 65 115 65 115 67 125 c 2,6,-1
 128 426 l 1,7,-1
 52 426 l 1,8,-1
 70 522 l 1,9,-1
 108 522 l 2,10,11
 138 522 138 522 149 534 c 128,-1,12
 160 546 160 546 164 573 c 2,13,-1
 182 664 l 1,14,-1
 290 664 l 1,15,-1
 262 522 l 1,16,-1
 367 522 l 1,17,-1
 348 426 l 1,18,-1
 243 426 l 1,19,-1
 177 95 l 1,20,-1
 276 95 l 1,21,-1
 257 0 l 1,0,-1
EndSplineSet
EndChar

StartChar: u
Encoding: 117 117 86
Width: 574
Flags: W
LayerCount: 2
Fore
SplineSet
176 -12 m 0,0,1
 110 -12 110 -12 79.5 26 c 128,-1,2
 49 64 49 64 49 127 c 0,3,4
 49 162 49 162 57 199 c 2,5,-1
 121 522 l 1,6,-1
 237 522 l 1,7,-1
 175 207 l 2,8,9
 168 179 168 179 168 154 c 0,10,11
 168 87 168 87 228 87 c 0,12,13
 279 87 279 87 318.5 136.5 c 128,-1,14
 358 186 358 186 371 246 c 2,15,-1
 427 522 l 1,16,-1
 543 522 l 1,17,-1
 457 95 l 1,18,-1
 521 95 l 1,19,-1
 503 0 l 1,20,-1
 418 0 l 1,21,22
 340 4 340 4 340 72 c 0,23,24
 340 85 340 85 344 106 c 2,25,-1
 345 115 l 1,26,-1
 340 115 l 1,27,28
 309 50 309 50 270 19 c 128,-1,29
 231 -12 231 -12 176 -12 c 0,0,1
EndSplineSet
EndChar

StartChar: v
Encoding: 118 118 87
Width: 501
Flags: W
LayerCount: 2
Fore
SplineSet
264 0 m 1,0,-1
 124 0 l 1,1,-1
 54 522 l 1,2,-1
 168 522 l 1,3,-1
 189 335 l 2,4,5
 194 291 194 291 211 105 c 1,6,-1
 217 105 l 1,7,-1
 307 302 l 2,8,9
 327 340 327 340 417 522 c 1,10,-1
 541 522 l 1,11,-1
 264 0 l 1,0,-1
EndSplineSet
EndChar

StartChar: w
Encoding: 119 119 88
Width: 772
Flags: W
LayerCount: 2
Fore
SplineSet
561 0 m 1,0,-1
 435 0 l 1,1,-1
 421 153 l 2,2,3
 416 200 416 200 414 236 c 2,4,-1
 405 373 l 1,5,-1
 399 373 l 1,6,-1
 300 155 l 1,7,-1
 228 0 l 1,8,-1
 98 0 l 1,9,-1
 63 522 l 1,10,-1
 177 522 l 1,11,-1
 189 125 l 1,12,-1
 194 125 l 1,13,-1
 374 522 l 1,14,-1
 483 522 l 1,15,-1
 512 123 l 1,16,-1
 517 123 l 1,17,-1
 685 522 l 1,18,-1
 799 522 l 1,19,-1
 561 0 l 1,0,-1
EndSplineSet
EndChar

StartChar: x
Encoding: 120 120 89
Width: 509
Flags: W
LayerCount: 2
Fore
SplineSet
444 0 m 1,0,-1
 319 0 l 1,1,-1
 240 187 l 1,2,-1
 235 187 l 1,3,-1
 86 0 l 1,4,-1
 -42 0 l 1,5,-1
 188 271 l 1,6,-1
 71 522 l 1,7,-1
 196 522 l 1,8,-1
 270 338 l 1,9,-1
 275 338 l 1,10,-1
 420 522 l 1,11,-1
 548 522 l 1,12,-1
 321 255 l 1,13,-1
 444 0 l 1,0,-1
EndSplineSet
EndChar

StartChar: y
Encoding: 121 121 90
Width: 500
Flags: W
LayerCount: 2
Fore
SplineSet
53 -200 m 2,0,-1
 -26 -200 l 1,1,-1
 -7 -105 l 1,2,-1
 89 -105 l 1,3,-1
 131 -25 l 1,4,-1
 54 522 l 1,5,-1
 168 522 l 1,6,-1
 185 381 l 2,7,8
 190 345 190 345 192.5 322 c 128,-1,9
 195 299 195 299 213 109 c 1,10,-1
 219 109 l 1,11,-1
 301 284 l 2,12,13
 316 318 316 318 352 388 c 2,14,-1
 419 522 l 1,15,-1
 543 522 l 1,16,-1
 210 -97 l 2,17,18
 182 -151 182 -151 147.5 -175.5 c 128,-1,19
 113 -200 113 -200 53 -200 c 2,0,-1
EndSplineSet
EndChar

StartChar: z
Encoding: 122 122 91
Width: 475
Flags: W
LayerCount: 2
Fore
SplineSet
396 0 m 1,0,-1
 -9 0 l 1,1,-1
 10 95 l 1,2,-1
 329 427 l 1,3,-1
 78 427 l 1,4,-1
 97 522 l 1,5,-1
 487 522 l 1,6,-1
 468 427 l 1,7,-1
 148 95 l 1,8,-1
 415 95 l 1,9,-1
 396 0 l 1,0,-1
EndSplineSet
EndChar

StartChar: braceleft
Encoding: 123 123 92
Width: 349
Flags: W
LayerCount: 2
Fore
SplineSet
225 -138 m 1,0,-1
 129 -138 l 2,1,2
 60 -135 60 -135 55 -76 c 2,3,-1
 54 -60 l 2,4,5
 54 -52 54 -52 56 -42 c 0,6,7
 99 172 99 172 99 182 c 0,8,9
 99 262 99 262 24 262 c 1,10,-1
 45 362 l 1,11,12
 140 362 140 362 155 450 c 2,13,-1
 198 667 l 2,14,15
 217 760 217 760 307 760 c 2,16,-1
 405 760 l 1,17,-1
 388 671 l 1,18,-1
 305 671 l 1,19,-1
 259 440 l 2,20,21
 250 393 250 393 222.5 357.5 c 128,-1,22
 195 322 195 322 135 315 c 1,23,-1
 134 307 l 1,24,25
 170 299 170 299 191 275.5 c 128,-1,26
 212 252 212 252 212 213 c 0,27,28
 212 210 212 210 161 -49 c 1,29,-1
 244 -49 l 1,30,-1
 225 -138 l 1,0,-1
EndSplineSet
EndChar

StartChar: bar
Encoding: 124 124 93
Width: 361
Flags: W
LayerCount: 2
Fore
SplineSet
153 -138 m 1,0,-1
 49 -138 l 1,1,-1
 229 760 l 1,2,-1
 332 760 l 1,3,-1
 153 -138 l 1,0,-1
EndSplineSet
EndChar

StartChar: braceright
Encoding: 125 125 94
Width: 350
Flags: W
LayerCount: 2
Fore
SplineSet
69 -138 m 2,0,-1
 -37 -138 l 1,1,-1
 -19 -49 l 1,2,-1
 62 -49 l 1,3,-1
 108 182 l 1,4,5
 125 292 125 292 233 307 c 1,6,-1
 234 315 l 1,7,8
 157 331 157 331 157 410 c 0,9,10
 157 422 157 422 162 450 c 2,11,-1
 206 671 l 1,12,-1
 124 671 l 1,13,-1
 142 760 l 1,14,-1
 239 760 l 2,15,16
 273 759 273 759 293.5 742 c 128,-1,17
 314 725 314 725 314 690 c 0,18,19
 314 674 314 674 312 664 c 0,20,21
 268 445 268 445 268 440 c 2,22,-1
 269 422 l 2,23,24
 273 361 273 361 344 361 c 1,25,-1
 324 261 l 1,26,27
 231 261 231 261 213 172 c 2,28,-1
 170 -45 l 2,29,30
 150 -138 150 -138 69 -138 c 2,0,-1
EndSplineSet
EndChar

StartChar: asciitilde
Encoding: 126 126 95
Width: 600
Flags: W
LayerCount: 2
Fore
SplineSet
404 220 m 0,0,1
 368 220 368 220 342 230.5 c 128,-1,2
 316 241 316 241 280 261 c 0,3,4
 256 275 256 275 234.5 284 c 128,-1,5
 213 293 213 293 185 293 c 0,6,7
 160 293 160 293 141.5 285.5 c 128,-1,8
 123 278 123 278 100 262 c 1,9,-1
 68 333 l 1,10,11
 117 390 117 390 203 390 c 0,12,13
 232 390 232 390 252 384.5 c 128,-1,14
 272 379 272 379 299 362 c 128,-1,15
 326 345 326 345 358 331.5 c 128,-1,16
 390 318 390 318 423 318 c 0,17,18
 446 318 446 318 465 325 c 128,-1,19
 484 332 484 332 507 349 c 1,20,-1
 540 277 l 1,21,22
 513 249 513 249 480.5 234.5 c 128,-1,23
 448 220 448 220 404 220 c 0,0,1
EndSplineSet
EndChar

StartChar: exclamdown
Encoding: 161 161 97
Width: 298
Flags: W
LayerCount: 2
Fore
SplineSet
124 -176 m 1,0,-1
 -3 -176 l 1,1,-1
 37 22 l 1,2,-1
 132 315 l 1,3,-1
 185 315 l 1,4,-1
 163 22 l 1,5,-1
 124 -176 l 1,0,-1
171 374 m 0,6,7
 136 374 136 374 120 388 c 128,-1,8
 104 402 104 402 104 426 c 0,9,10
 104 534 104 534 196 534 c 0,11,12
 230 534 230 534 246.5 519.5 c 128,-1,13
 263 505 263 505 263 482 c 0,14,15
 263 376 263 376 171 374 c 0,6,7
EndSplineSet
EndChar

StartChar: cent
Encoding: 162 162 98
Width: 522
Flags: W
LayerCount: 2
Fore
SplineSet
252 -114 m 1,0,-1
 158 -114 l 1,1,-1
 180 -4 l 1,2,3
 39 38 39 38 39 213 c 0,4,5
 39 329 39 329 102.5 417 c 128,-1,6
 166 505 166 505 286 526 c 1,7,-1
 307 630 l 1,8,-1
 401 630 l 1,9,-1
 379 522 l 1,10,11
 479 493 479 493 507 402 c 1,12,-1
 414 358 l 1,13,14
 401 410 401 410 353 429 c 1,15,-1
 285 85 l 1,16,17
 344 99 344 99 384 167 c 1,18,-1
 465 119 l 1,19,20
 403 8 403 8 273 -9 c 1,21,-1
 252 -114 l 1,0,-1
205 90 m 1,22,-1
 273 428 l 1,23,24
 192 403 192 403 172 306 c 2,25,-1
 165 273 l 2,26,27
 151 225 151 225 151 184 c 0,28,29
 151 114 151 114 205 90 c 1,22,-1
EndSplineSet
EndChar

StartChar: sterling
Encoding: 163 163 99
Width: 586
Flags: W
LayerCount: 2
Fore
SplineSet
484 0 m 1,0,-1
 29 0 l 1,1,-1
 53 122 l 1,2,3
 155 166 155 166 155 290 c 1,4,-1
 59 290 l 1,5,-1
 79 389 l 1,6,-1
 145 389 l 1,7,8
 140 420 140 420 140 453 c 0,9,10
 140 524 140 524 172.5 582.5 c 128,-1,11
 205 641 205 641 264.5 675.5 c 128,-1,12
 324 710 324 710 404 710 c 0,13,14
 553 710 553 710 613 591 c 1,15,-1
 516 529 l 1,16,17
 494 568 494 568 466 585.5 c 128,-1,18
 438 603 438 603 395 603 c 0,19,20
 332 603 332 603 296 561.5 c 128,-1,21
 260 520 260 520 260 445 c 0,22,23
 260 415 260 415 265 389 c 1,24,-1
 462 389 l 1,25,-1
 442 290 l 1,26,-1
 276 290 l 1,27,28
 270 222 270 222 240.5 177.5 c 128,-1,29
 211 133 211 133 172 113 c 1,30,-1
 170 106 l 1,31,-1
 505 106 l 1,32,-1
 484 0 l 1,0,-1
EndSplineSet
EndChar

StartChar: yen
Encoding: 165 165 100
Width: 614
Flags: W
LayerCount: 2
Fore
SplineSet
315 0 m 1,0,-1
 194 0 l 1,1,-1
 222 139 l 1,2,-1
 58 139 l 1,3,-1
 74 219 l 1,4,-1
 238 219 l 1,5,-1
 254 298 l 1,6,-1
 90 298 l 1,7,-1
 106 378 l 1,8,-1
 221 378 l 1,9,-1
 115 698 l 1,10,-1
 244 698 l 1,11,-1
 332 410 l 1,12,-1
 336 410 l 1,13,-1
 538 698 l 1,14,-1
 678 698 l 1,15,-1
 442 378 l 1,16,-1
 558 378 l 1,17,-1
 542 298 l 1,18,-1
 375 298 l 1,19,-1
 359 219 l 1,20,-1
 526 219 l 1,21,-1
 510 139 l 1,22,-1
 343 139 l 1,23,-1
 315 0 l 1,0,-1
EndSplineSet
EndChar

StartChar: brokenbar
Encoding: 166 166 101
Width: 361
Flags: W
LayerCount: 2
Fore
SplineSet
261 403 m 1,0,-1
 157 403 l 1,1,-1
 229 760 l 1,2,-1
 332 760 l 1,3,-1
 261 403 l 1,0,-1
153 -138 m 1,4,-1
 49 -138 l 1,5,-1
 121 219 l 1,6,-1
 224 219 l 1,7,-1
 153 -138 l 1,4,-1
EndSplineSet
EndChar

StartChar: section
Encoding: 167 167 102
Width: 556
Flags: W
LayerCount: 2
Fore
SplineSet
203 -159 m 0,0,1
 148 -159 148 -159 99.5 -142 c 128,-1,2
 51 -125 51 -125 18 -90 c 1,3,-1
 88 -20 l 1,4,5
 129 -70 129 -70 214 -70 c 0,6,7
 247 -70 247 -70 275 -53 c 0,8,9
 308 -33 308 -33 314 4 c 2,10,-1
 315 21 l 1,11,12
 312 71 312 71 245 90 c 0,13,14
 198 107 198 107 162.5 120.5 c 128,-1,15
 127 134 127 134 104 150 c 128,-1,16
 81 166 81 166 69.5 188 c 128,-1,17
 58 210 58 210 58 243 c 0,18,19
 58 361 58 361 190 399 c 1,20,-1
 192 409 l 1,21,22
 138 451 138 451 138 521 c 0,23,24
 138 605 138 605 202 659 c 0,25,26
 262 710 262 710 357 710 c 0,27,28
 476 710 476 710 543 640 c 1,29,-1
 472 571 l 1,30,31
 432 621 432 621 346 621 c 0,32,33
 327 621 327 621 308 615 c 0,34,35
 268 603 268 603 253 573 c 0,36,37
 245 557 245 557 245 538 c 0,38,39
 245 487 245 487 315 465 c 0,40,41
 363 449 363 449 398 435 c 128,-1,42
 433 421 433 421 456.5 404.5 c 128,-1,43
 480 388 480 388 491.5 365.5 c 128,-1,44
 503 343 503 343 503 311 c 0,45,46
 503 254 503 254 468.5 213 c 128,-1,47
 434 172 434 172 371 155 c 0,48,49
 370 154 370 154 370 150 c 128,-1,50
 370 146 370 146 369 145 c 1,51,52
 423 104 423 104 423 33 c 0,53,54
 423 -50 423 -50 360.5 -104.5 c 128,-1,55
 298 -159 298 -159 203 -159 c 0,0,1
332 167 m 1,56,57
 397 211 397 211 397 271 c 0,58,59
 397 337 397 337 314 359 c 2,60,-1
 259 376 l 2,61,62
 238 382 238 382 229 388 c 1,63,64
 163 348 163 348 163 283 c 0,65,66
 163 247 163 247 184 228 c 128,-1,67
 205 209 205 209 248 195 c 2,68,-1
 332 167 l 1,56,57
EndSplineSet
EndChar

StartChar: dieresis
Encoding: 168 168 103
Width: 588
Flags: W
LayerCount: 2
Fore
SplineSet
210 607 m 0,0,1
 155 607 155 607 155 646 c 256,2,3
 155 685 155 685 172.5 712.5 c 128,-1,4
 190 740 190 740 235 740 c 0,5,6
 289 740 289 740 289 697 c 0,7,8
 289 607 289 607 210 607 c 0,0,1
403 607 m 0,9,10
 347 607 347 607 347 646 c 0,11,12
 347 740 347 740 428 740 c 0,13,14
 482 740 482 740 482 697 c 0,15,16
 482 607 482 607 403 607 c 0,9,10
EndSplineSet
EndChar

StartChar: copyright
Encoding: 169 169 104
Width: 776
Flags: W
LayerCount: 2
Fore
SplineSet
352 -12 m 0,0,1
 220 -12 220 -12 140.5 72.5 c 128,-1,2
 61 157 61 157 61 293 c 0,3,4
 61 427 61 427 118.5 520 c 128,-1,5
 176 613 176 613 266.5 661 c 128,-1,6
 357 709 357 709 455 709 c 0,7,8
 586 709 586 709 666 623 c 128,-1,9
 746 537 746 537 746 405 c 0,10,11
 746 303 746 303 712 225 c 128,-1,12
 678 147 678 147 622 94 c 128,-1,13
 566 41 566 41 495.5 14.5 c 128,-1,14
 425 -12 425 -12 352 -12 c 0,0,1
356 49 m 0,15,16
 468 49 468 49 552 118.5 c 128,-1,17
 636 188 636 188 662 297 c 0,18,19
 677 366 677 366 677 405 c 0,20,21
 677 515 677 515 613.5 581.5 c 128,-1,22
 550 648 550 648 451 648 c 0,23,24
 339 648 339 648 254.5 578 c 128,-1,25
 170 508 170 508 146 401 c 0,26,27
 131 330 131 330 131 293 c 0,28,29
 131 182 131 182 193.5 115.5 c 128,-1,30
 256 49 256 49 356 49 c 0,15,16
381 141 m 0,31,32
 312 141 312 141 267 183.5 c 128,-1,33
 222 226 222 226 222 308 c 0,34,35
 222 366 222 366 246.5 423.5 c 128,-1,36
 271 481 271 481 318 518.5 c 128,-1,37
 365 556 365 556 433 556 c 0,38,39
 554 556 554 556 584 449 c 1,40,-1
 501 413 l 1,41,42
 489 470 489 470 432 470 c 0,43,44
 393 470 393 470 372 446 c 128,-1,45
 351 422 351 422 344.5 386.5 c 128,-1,46
 338 351 338 351 334.5 336 c 128,-1,47
 331 321 331 321 329.5 312.5 c 128,-1,48
 328 304 328 304 328 291 c 0,49,50
 328 263 328 263 344.5 245 c 128,-1,51
 361 227 361 227 394 227 c 0,52,53
 443 227 443 227 483 286 c 1,54,-1
 557 243 l 1,55,56
 496 141 496 141 381 141 c 0,31,32
EndSplineSet
EndChar

StartChar: ordfeminine
Encoding: 170 170 105
Width: 423
Flags: W
LayerCount: 2
Fore
SplineSet
177 339 m 0,0,1
 134 339 134 339 106 362 c 128,-1,2
 78 385 78 385 78 428 c 0,3,4
 81 551 81 551 252 551 c 2,5,-1
 314 551 l 1,6,7
 320 579 320 579 320 580.5 c 128,-1,8
 320 582 320 582 321 584 c 2,9,-1
 321 596 l 2,10,11
 321 645 321 645 265 645 c 0,12,13
 235 645 235 645 213 632.5 c 128,-1,14
 191 620 191 620 172 597 c 1,15,-1
 123 638 l 1,16,17
 150 673 150 673 187 691.5 c 128,-1,18
 224 710 224 710 276 710 c 0,19,20
 333 710 333 710 371 684.5 c 128,-1,21
 409 659 409 659 409 605 c 0,22,23
 409 595 409 595 408 586 c 0,24,25
 405 566 405 566 374 413 c 1,26,-1
 412 413 l 1,27,-1
 399 347 l 1,28,-1
 350 347 l 2,29,30
 304 347 304 347 298 382 c 0,31,32
 294 388 294 388 294 407 c 1,33,-1
 290 407 l 1,34,35
 273 375 273 375 244 357 c 128,-1,36
 215 339 215 339 177 339 c 0,0,1
211 398 m 0,37,38
 241 398 241 398 264.5 413 c 128,-1,39
 288 428 288 428 296 461 c 2,40,-1
 304 500 l 1,41,-1
 241 500 l 2,42,43
 201 500 201 500 184 483.5 c 128,-1,44
 167 467 167 467 164 432 c 0,45,46
 164 398 164 398 211 398 c 0,37,38
EndSplineSet
EndChar

StartChar: guillemotleft
Encoding: 171 171 106
Width: 538
Flags: W
LayerCount: 2
Fore
SplineSet
188 61 m 1,0,-1
 33 226 l 1,1,-1
 55 333 l 1,2,-1
 263 493 l 1,3,-1
 294 413 l 1,4,-1
 138 270 l 1,5,-1
 236 132 l 1,6,-1
 188 61 l 1,0,-1
419 61 m 1,7,-1
 265 226 l 1,8,-1
 286 333 l 1,9,-1
 494 493 l 1,10,-1
 525 413 l 1,11,-1
 369 270 l 1,12,-1
 467 132 l 1,13,-1
 419 61 l 1,7,-1
EndSplineSet
EndChar

StartChar: logicalnot
Encoding: 172 172 107
Width: 600
Flags: W
LayerCount: 2
Fore
SplineSet
482 78 m 1,0,-1
 383 78 l 1,1,-1
 419 257 l 1,2,-1
 67 257 l 1,3,-1
 86 355 l 1,4,-1
 537 355 l 1,5,-1
 482 78 l 1,0,-1
EndSplineSet
EndChar

StartChar: sfthyphen
Encoding: 173 173 108
Width: 392
Flags: W
LayerCount: 2
Fore
SplineSet
333 247 m 1,0,-1
 54 247 l 1,1,-1
 77 362 l 1,2,-1
 356 362 l 1,3,-1
 333 247 l 1,0,-1
EndSplineSet
EndChar

StartChar: registered
Encoding: 174 174 109
Width: 459
Flags: W
LayerCount: 2
Fore
SplineSet
253 297 m 0,0,1
 174 297 174 297 125 346.5 c 128,-1,2
 76 396 76 396 76 472 c 0,3,4
 76 578 76 578 142 644 c 128,-1,5
 208 710 208 710 301 710 c 0,6,7
 378 710 378 710 428 660 c 128,-1,8
 478 610 478 610 478 536 c 0,9,10
 478 429 478 429 411 363 c 128,-1,11
 344 297 344 297 253 297 c 0,0,1
258 339 m 0,12,13
 307 339 307 339 340 360.5 c 128,-1,14
 373 382 373 382 393 414 c 128,-1,15
 413 446 413 446 422 480 c 128,-1,16
 431 514 431 514 431 538 c 0,17,18
 431 602 431 602 391.5 635 c 128,-1,19
 352 668 352 668 296 668 c 0,20,21
 237 668 237 668 198.5 637 c 128,-1,22
 160 606 160 606 141.5 560.5 c 128,-1,23
 123 515 123 515 123 469 c 0,24,25
 123 405 123 405 161.5 372 c 128,-1,26
 200 339 200 339 258 339 c 0,12,13
350 400 m 1,27,-1
 294 400 l 1,28,-1
 270 470 l 1,29,-1
 245 470 l 1,30,-1
 231 400 l 1,31,-1
 178 400 l 1,32,-1
 220 609 l 1,33,-1
 306 609 l 2,34,35
 342 609 342 609 358.5 591 c 128,-1,36
 375 573 375 573 375 548 c 0,37,38
 375 525 375 525 361 505.5 c 128,-1,39
 347 486 347 486 321 478 c 1,40,-1
 350 400 l 1,27,-1
285 508 m 2,41,42
 319 508 319 508 319 549 c 0,43,44
 319 568 319 568 297 568 c 2,45,-1
 264 568 l 1,46,-1
 252 508 l 1,47,-1
 285 508 l 2,41,42
EndSplineSet
EndChar

StartChar: macron
Encoding: 175 175 110
Width: 589
Flags: W
LayerCount: 2
Fore
SplineSet
448 630 m 1,0,-1
 172 630 l 1,1,-1
 190 718 l 1,2,-1
 466 718 l 1,3,-1
 448 630 l 1,0,-1
EndSplineSet
EndChar

StartChar: degree
Encoding: 176 176 111
Width: 457
Flags: W
LayerCount: 2
Fore
SplineSet
263 346 m 0,0,1
 194 346 194 346 149.5 392.5 c 128,-1,2
 105 439 105 439 105 509 c 0,3,4
 105 597 105 597 162 653.5 c 128,-1,5
 219 710 219 710 302 710 c 0,6,7
 371 710 371 710 415.5 662.5 c 128,-1,8
 460 615 460 615 460 547 c 0,9,10
 460 459 460 459 401.5 402.5 c 128,-1,11
 343 346 343 346 263 346 c 0,0,1
272 427 m 0,12,13
 318 427 318 427 345 462 c 128,-1,14
 372 497 372 497 372 546 c 0,15,16
 372 579 372 579 351.5 604 c 128,-1,17
 331 629 331 629 292 629 c 0,18,19
 246 629 246 629 219.5 593.5 c 128,-1,20
 193 558 193 558 193 510 c 0,21,22
 193 476 193 476 212.5 451.5 c 128,-1,23
 232 427 232 427 272 427 c 0,12,13
EndSplineSet
EndChar

StartChar: plusminus
Encoding: 177 177 112
Width: 600
Flags: W
LayerCount: 2
Fore
SplineSet
335 172 m 1,0,-1
 230 172 l 1,1,-1
 265 352 l 1,2,-1
 88 352 l 1,3,-1
 107 448 l 1,4,-1
 284 448 l 1,5,-1
 320 628 l 1,6,-1
 426 628 l 1,7,-1
 390 448 l 1,8,-1
 566 448 l 1,9,-1
 547 352 l 1,10,-1
 370 352 l 1,11,-1
 335 172 l 1,0,-1
477 0 m 1,12,-1
 19 0 l 1,13,-1
 38 97 l 1,14,-1
 496 97 l 1,15,-1
 477 0 l 1,12,-1
EndSplineSet
EndChar

StartChar: twosuperior
Encoding: 178 178 113
Width: 339
Flags: W
LayerCount: 2
Fore
SplineSet
314 329 m 1,0,-1
 40 329 l 1,1,-1
 55 405 l 1,2,-1
 195 499 l 2,3,4
 236 526 236 526 252 546 c 128,-1,5
 268 566 268 566 271 595 c 0,6,7
 271 619 271 619 248 626 c 0,8,9
 237 631 237 631 224 631 c 2,10,-1
 212 630 l 2,11,12
 172 626 172 626 156 582 c 1,13,-1
 86 610 l 1,14,15
 128 704 128 704 231 704 c 0,16,17
 285 704 285 704 322.5 677.5 c 128,-1,18
 360 651 360 651 360 601 c 0,19,20
 360 554 360 554 321 513 c 0,21,22
 286 476 286 476 224 443 c 1,23,-1
 153 397 l 1,24,-1
 327 397 l 1,25,-1
 314 329 l 1,0,-1
EndSplineSet
EndChar

StartChar: threesuperior
Encoding: 179 179 114
Width: 335
Flags: W
LayerCount: 2
Fore
SplineSet
173 323 m 0,0,1
 66 323 66 323 38 395 c 1,2,-1
 98 437 l 1,3,4
 117 389 117 389 174 389 c 0,5,6
 228 389 228 389 241 436 c 1,7,-1
 243 449 l 1,8,9
 243 486 243 486 188 486 c 2,10,-1
 147 486 l 1,11,-1
 160 552 l 1,12,-1
 200 552 l 2,13,14
 262 552 262 552 268 590 c 2,15,-1
 270 605 l 2,16,17
 269 619 269 619 257 629 c 128,-1,18
 245 639 245 639 222 639 c 0,19,20
 178 639 178 639 139 594 c 1,21,-1
 93 644 l 1,22,23
 119 672 119 672 152 688 c 128,-1,24
 185 704 185 704 232 704 c 0,25,26
 293 704 293 704 324 678.5 c 128,-1,27
 355 653 355 653 355 614 c 256,28,29
 355 575 355 575 331 552 c 128,-1,30
 307 529 307 529 267 521 c 1,31,-1
 267 519 l 1,32,33
 329 505 329 505 329 445 c 0,34,35
 329 393 329 393 289 358 c 128,-1,36
 249 323 249 323 173 323 c 0,0,1
EndSplineSet
EndChar

StartChar: acute
Encoding: 180 180 115
Width: 588
Flags: W
LayerCount: 2
Fore
SplineSet
319 581 m 1,0,-1
 249 619 l 1,1,-1
 362 802 l 1,2,-1
 457 751 l 1,3,-1
 319 581 l 1,0,-1
EndSplineSet
EndChar

StartChar: mu
Encoding: 181 181 116
Width: 580
Flags: W
LayerCount: 2
Fore
SplineSet
98 -200 m 1,0,-1
 -17 -200 l 1,1,-1
 127 522 l 1,2,-1
 243 522 l 1,3,-1
 180 204 l 2,4,5
 174 172 174 172 174 154 c 0,6,7
 174 87 174 87 233 87 c 0,8,9
 286 87 286 87 322.5 131.5 c 128,-1,10
 359 176 359 176 375 235 c 2,11,-1
 433 522 l 1,12,-1
 548 522 l 1,13,-1
 463 95 l 1,14,-1
 527 95 l 1,15,-1
 509 0 l 1,16,-1
 423 0 l 2,17,18
 348 0 348 0 345 75 c 0,19,20
 345 85 345 85 350 115 c 1,21,-1
 345 115 l 1,22,23
 318 52 318 52 284.5 20 c 128,-1,24
 251 -12 251 -12 201 -12 c 0,25,26
 141 -12 141 -12 128 41 c 1,27,-1
 123 41 l 1,28,-1
 122 -81 l 1,29,-1
 98 -200 l 1,0,-1
EndSplineSet
EndChar

StartChar: paragraph
Encoding: 182 182 117
Width: 639
Flags: W
LayerCount: 2
Fore
SplineSet
428 -149 m 1,0,-1
 337 -149 l 1,1,-1
 489 609 l 1,2,-1
 390 609 l 1,3,-1
 238 -149 l 1,4,-1
 147 -149 l 1,5,-1
 233 278 l 1,6,7
 166 278 166 278 121 334 c 128,-1,8
 76 390 76 390 76 462 c 0,9,10
 76 561 76 561 148 629.5 c 128,-1,11
 220 698 220 698 326 698 c 2,12,-1
 659 698 l 1,13,-1
 641 609 l 1,14,-1
 580 609 l 1,15,-1
 428 -149 l 1,0,-1
EndSplineSet
EndChar

StartChar: periodcentered
Encoding: 183 183 118
Width: 338
Flags: W
LayerCount: 2
Fore
SplineSet
162 224 m 0,0,1
 125 224 125 224 110 239.5 c 128,-1,2
 95 255 95 255 95 276 c 0,3,4
 95 384 95 384 186 384 c 0,5,6
 222 384 222 384 237 368 c 128,-1,7
 252 352 252 352 252 332 c 2,8,-1
 252 323 l 1,9,10
 248 291 248 291 242 272.5 c 128,-1,11
 236 254 236 254 219 241 c 0,12,13
 198 224 198 224 162 224 c 0,0,1
EndSplineSet
EndChar

StartChar: cedilla
Encoding: 184 184 119
Width: 588
Flags: W
LayerCount: 2
Fore
SplineSet
272 -210 m 0,0,1
 231 -210 231 -210 204 -197.5 c 128,-1,2
 177 -185 177 -185 165 -167 c 1,3,-1
 213 -120 l 1,4,5
 218 -129 218 -129 233.5 -138 c 128,-1,6
 249 -147 249 -147 271 -147 c 0,7,8
 320 -144 320 -144 320 -114 c 0,9,10
 320 -82 320 -82 258 -76 c 2,11,-1
 235 -74 l 1,12,-1
 273 26 l 1,13,-1
 333 26 l 1,14,-1
 301 -58 l 1,15,-1
 303 -61 l 1,16,17
 321 -55 321 -55 342 -55 c 0,18,19
 366 -55 366 -55 384.5 -68 c 128,-1,20
 403 -81 403 -81 403 -111 c 0,21,22
 403 -160 403 -160 364.5 -185 c 128,-1,23
 326 -210 326 -210 272 -210 c 0,0,1
EndSplineSet
EndChar

StartChar: onesuperior
Encoding: 185 185 120
Width: 312
Flags: W
LayerCount: 2
Fore
SplineSet
238 329 m 1,0,-1
 157 329 l 1,1,-1
 215 621 l 1,2,-1
 126 576 l 1,3,-1
 142 657 l 1,4,-1
 226 698 l 1,5,-1
 312 698 l 1,6,-1
 238 329 l 1,0,-1
EndSplineSet
EndChar

StartChar: ordmasculine
Encoding: 186 186 121
Width: 412
Flags: W
LayerCount: 2
Fore
SplineSet
230 338 m 0,0,1
 161 338 161 338 124.5 380 c 128,-1,2
 88 422 88 422 88 488 c 0,3,4
 88 541 88 541 110 592 c 128,-1,5
 132 643 132 643 176 676.5 c 128,-1,6
 220 710 220 710 287 710 c 0,7,8
 348 710 348 710 388.5 671.5 c 128,-1,9
 429 633 429 633 429 561 c 0,10,11
 429 502 429 502 405 451 c 128,-1,12
 381 400 381 400 336.5 369 c 128,-1,13
 292 338 292 338 230 338 c 0,0,1
239 404 m 0,14,15
 309 404 309 404 329 496 c 0,16,17
 343 570 343 570 343 580 c 0,18,19
 341 644 341 644 278 644 c 0,20,21
 243 644 243 644 220 617.5 c 128,-1,22
 197 591 197 591 185.5 550 c 128,-1,23
 174 509 174 509 174 468 c 0,24,25
 179 404 179 404 239 404 c 0,14,15
EndSplineSet
EndChar

StartChar: guillemotright
Encoding: 187 187 122
Width: 538
Flags: W
LayerCount: 2
Fore
SplineSet
278 61 m 1,0,-1
 248 141 l 1,1,-1
 403 283 l 1,2,-1
 305 421 l 1,3,-1
 353 493 l 1,4,-1
 508 328 l 1,5,-1
 486 221 l 1,6,-1
 278 61 l 1,0,-1
47 61 m 1,7,-1
 16 141 l 1,8,-1
 172 283 l 1,9,-1
 74 421 l 1,10,-1
 122 493 l 1,11,-1
 277 328 l 1,12,-1
 255 221 l 1,13,-1
 47 61 l 1,7,-1
EndSplineSet
EndChar

StartChar: onequarter
Encoding: 188 188 123
Width: 827
Flags: W
LayerCount: 2
Fore
SplineSet
142 0 m 1,0,-1
 43 0 l 1,1,-1
 682 698 l 1,2,-1
 780 698 l 1,3,-1
 142 0 l 1,0,-1
665 0 m 1,4,-1
 586 0 l 1,5,-1
 600 71 l 1,6,-1
 425 71 l 1,7,-1
 440 142 l 1,8,-1
 642 369 l 1,9,-1
 739 369 l 1,10,-1
 692 133 l 1,11,-1
 739 133 l 1,12,-1
 726 71 l 1,13,-1
 679 71 l 1,14,-1
 665 0 l 1,4,-1
612 133 m 1,15,-1
 641 274 l 1,16,-1
 635 274 l 1,17,-1
 509 133 l 1,18,-1
 612 133 l 1,15,-1
238 329 m 1,19,-1
 157 329 l 1,20,-1
 215 621 l 1,21,-1
 126 576 l 1,22,-1
 142 657 l 1,23,-1
 226 698 l 1,24,-1
 312 698 l 1,25,-1
 238 329 l 1,19,-1
EndSplineSet
EndChar

StartChar: onehalf
Encoding: 189 189 124
Width: 824
Flags: W
LayerCount: 2
Fore
SplineSet
142 0 m 1,0,-1
 43 0 l 1,1,-1
 682 698 l 1,2,-1
 780 698 l 1,3,-1
 142 0 l 1,0,-1
733 0 m 1,4,-1
 460 0 l 1,5,-1
 475 76 l 1,6,7
 638 186 638 186 650 195 c 0,8,9
 673 213 673 213 684 238 c 0,10,11
 688 250 688 250 691 266 c 0,12,13
 691 281 691 281 682 290 c 0,14,15
 668 302 668 302 651 303 c 0,16,17
 595 303 595 303 576 253 c 1,18,-1
 505 281 l 1,19,20
 548 375 548 375 651 375 c 0,21,22
 704 375 704 375 742 348 c 0,23,24
 779 319 779 319 779 272 c 256,25,26
 779 225 779 225 740 184 c 0,27,28
 705 147 705 147 643 114 c 1,29,-1
 572 68 l 1,30,-1
 747 68 l 1,31,-1
 733 0 l 1,4,-1
238 329 m 1,32,-1
 157 329 l 1,33,-1
 215 621 l 1,34,-1
 126 576 l 1,35,-1
 142 657 l 1,36,-1
 226 698 l 1,37,-1
 312 698 l 1,38,-1
 238 329 l 1,32,-1
EndSplineSet
EndChar

StartChar: threequarters
Encoding: 190 190 125
Width: 856
Flags: W
LayerCount: 2
Fore
SplineSet
173 323 m 0,0,1
 66 323 66 323 38 395 c 1,2,-1
 98 437 l 1,3,4
 117 389 117 389 174 389 c 0,5,6
 228 389 228 389 241 436 c 1,7,-1
 243 449 l 1,8,9
 243 486 243 486 188 486 c 2,10,-1
 147 486 l 1,11,-1
 160 552 l 1,12,-1
 200 552 l 2,13,14
 262 552 262 552 268 590 c 2,15,-1
 270 605 l 2,16,17
 269 619 269 619 257 629 c 128,-1,18
 245 639 245 639 222 639 c 0,19,20
 178 639 178 639 139 594 c 1,21,-1
 93 644 l 1,22,23
 119 672 119 672 152 688 c 128,-1,24
 185 704 185 704 232 704 c 0,25,26
 293 704 293 704 324 678.5 c 128,-1,27
 355 653 355 653 355 614 c 256,28,29
 355 575 355 575 331 552 c 128,-1,30
 307 529 307 529 267 521 c 1,31,-1
 267 519 l 1,32,33
 329 505 329 505 329 445 c 0,34,35
 329 393 329 393 289 358 c 128,-1,36
 249 323 249 323 173 323 c 0,0,1
170 0 m 1,37,-1
 72 0 l 1,38,-1
 711 698 l 1,39,-1
 809 698 l 1,40,-1
 170 0 l 1,37,-1
694 0 m 1,41,-1
 614 0 l 1,42,-1
 628 71 l 1,43,-1
 454 71 l 1,44,-1
 468 142 l 1,45,-1
 670 369 l 1,46,-1
 768 369 l 1,47,-1
 720 133 l 1,48,-1
 768 133 l 1,49,-1
 755 71 l 1,50,-1
 708 71 l 1,51,-1
 694 0 l 1,41,-1
641 133 m 1,52,-1
 669 274 l 1,53,-1
 664 274 l 1,54,-1
 538 133 l 1,55,-1
 641 133 l 1,52,-1
EndSplineSet
EndChar

StartChar: questiondown
Encoding: 191 191 126
Width: 483
Flags: W
LayerCount: 2
Fore
SplineSet
177 -188 m 0,0,1
 90 -188 90 -188 36.5 -146 c 128,-1,2
 -17 -104 -17 -104 -17 -23 c 0,3,4
 -17 64 -17 64 43 126.5 c 128,-1,5
 103 189 103 189 196 210 c 1,6,-1
 215 298 l 1,7,-1
 328 298 l 1,8,-1
 296 140 l 1,9,10
 107 123 107 123 107 -10 c 0,11,12
 107 -49 107 -49 131.5 -67.5 c 128,-1,13
 156 -86 156 -86 192 -86 c 0,14,15
 278 -86 278 -86 317 15 c 1,16,-1
 413 -27 l 1,17,18
 343 -188 343 -188 177 -188 c 0,0,1
287 374 m 0,19,20
 252 374 252 374 236 388 c 128,-1,21
 220 402 220 402 220 426 c 0,22,23
 220 534 220 534 311 534 c 0,24,25
 346 534 346 534 362 520 c 128,-1,26
 378 506 378 506 378 482 c 0,27,28
 378 374 378 374 287 374 c 0,19,20
EndSplineSet
EndChar

StartChar: Agrave
Encoding: 192 192 127
Width: 645
Flags: W
LayerCount: 2
Fore
SplineSet
573 0 m 1,0,-1
 450 0 l 1,1,-1
 430 183 l 1,2,-1
 189 183 l 1,3,-1
 97 0 l 1,4,-1
 -32 0 l 1,5,-1
 333 698 l 1,6,-1
 488 698 l 1,7,-1
 573 0 l 1,0,-1
421 286 m 1,8,-1
 392 588 l 1,9,-1
 385 588 l 1,10,-1
 238 286 l 1,11,-1
 421 286 l 1,8,-1
400 746 m 1,12,-1
 303 917 l 1,13,-1
 406 966 l 1,14,-1
 472 778 l 1,15,-1
 400 746 l 1,12,-1
EndSplineSet
EndChar

StartChar: Aacute
Encoding: 193 193 128
Width: 645
Flags: W
LayerCount: 2
Fore
SplineSet
573 0 m 1,0,-1
 450 0 l 1,1,-1
 430 183 l 1,2,-1
 189 183 l 1,3,-1
 97 0 l 1,4,-1
 -32 0 l 1,5,-1
 333 698 l 1,6,-1
 488 698 l 1,7,-1
 573 0 l 1,0,-1
421 286 m 1,8,-1
 392 588 l 1,9,-1
 385 588 l 1,10,-1
 238 286 l 1,11,-1
 421 286 l 1,8,-1
432 746 m 1,12,-1
 362 784 l 1,13,-1
 475 966 l 1,14,-1
 570 916 l 1,15,-1
 432 746 l 1,12,-1
EndSplineSet
EndChar

StartChar: Acircumflex
Encoding: 194 194 129
Width: 645
Flags: W
LayerCount: 2
Fore
SplineSet
573 0 m 1,0,-1
 450 0 l 1,1,-1
 430 183 l 1,2,-1
 189 183 l 1,3,-1
 97 0 l 1,4,-1
 -32 0 l 1,5,-1
 333 698 l 1,6,-1
 488 698 l 1,7,-1
 573 0 l 1,0,-1
421 286 m 1,8,-1
 392 588 l 1,9,-1
 385 588 l 1,10,-1
 238 286 l 1,11,-1
 421 286 l 1,8,-1
301 747 m 1,12,-1
 243 795 l 1,13,-1
 392 947 l 1,14,-1
 503 947 l 1,15,-1
 597 795 l 1,16,-1
 534 748 l 1,17,-1
 437 863 l 1,18,-1
 301 747 l 1,12,-1
EndSplineSet
EndChar

StartChar: Atilde
Encoding: 195 195 130
Width: 645
Flags: W
LayerCount: 2
Fore
SplineSet
573 0 m 1,0,-1
 450 0 l 1,1,-1
 430 183 l 1,2,-1
 189 183 l 1,3,-1
 97 0 l 1,4,-1
 -32 0 l 1,5,-1
 333 698 l 1,6,-1
 488 698 l 1,7,-1
 573 0 l 1,0,-1
421 286 m 1,8,-1
 392 588 l 1,9,-1
 385 588 l 1,10,-1
 238 286 l 1,11,-1
 421 286 l 1,8,-1
498 770 m 0,12,13
 461 770 461 770 403 802 c 0,14,15
 378 815 378 815 353 815 c 0,16,17
 337 815 337 815 326 809.5 c 128,-1,18
 315 804 315 804 301 794 c 2,19,-1
 294 790 l 1,20,-1
 257 847 l 1,21,22
 302 906 302 906 366 906 c 0,23,24
 406 906 406 906 461 874 c 0,25,26
 488 860 488 860 512 860 c 0,27,28
 529 860 529 860 541 866 c 128,-1,29
 553 872 553 872 570 886 c 1,30,-1
 607 829 l 1,31,32
 561 770 561 770 498 770 c 0,12,13
EndSplineSet
EndChar

StartChar: Adieresis
Encoding: 196 196 131
Width: 645
Flags: W
LayerCount: 2
Fore
SplineSet
573 0 m 1,0,-1
 450 0 l 1,1,-1
 430 183 l 1,2,-1
 189 183 l 1,3,-1
 97 0 l 1,4,-1
 -32 0 l 1,5,-1
 333 698 l 1,6,-1
 488 698 l 1,7,-1
 573 0 l 1,0,-1
421 286 m 1,8,-1
 392 588 l 1,9,-1
 385 588 l 1,10,-1
 238 286 l 1,11,-1
 421 286 l 1,8,-1
324 771 m 0,12,13
 268 771 268 771 268 814 c 0,14,15
 268 850 268 850 285.5 877.5 c 128,-1,16
 303 905 303 905 348 905 c 0,17,18
 403 905 403 905 403 863 c 0,19,20
 403 825 403 825 385.5 798 c 128,-1,21
 368 771 368 771 324 771 c 0,12,13
516 771 m 0,22,23
 461 771 461 771 461 814 c 0,24,25
 461 850 461 850 478.5 877.5 c 128,-1,26
 496 905 496 905 541 905 c 0,27,28
 595 905 595 905 595 862 c 0,29,30
 595 771 595 771 516 771 c 0,22,23
EndSplineSet
EndChar

StartChar: Aring
Encoding: 197 197 132
Width: 645
Flags: W
LayerCount: 2
Fore
SplineSet
573 0 m 1,0,-1
 450 0 l 1,1,-1
 430 183 l 1,2,-1
 189 183 l 1,3,-1
 97 0 l 1,4,-1
 -32 0 l 1,5,-1
 333 698 l 1,6,-1
 488 698 l 1,7,-1
 573 0 l 1,0,-1
421 286 m 1,8,-1
 392 588 l 1,9,-1
 385 588 l 1,10,-1
 238 286 l 1,11,-1
 421 286 l 1,8,-1
415 729 m 0,12,13
 361 729 361 729 329 761 c 128,-1,14
 297 793 297 793 297 842 c 0,15,16
 297 908 297 908 340.5 951 c 128,-1,17
 384 994 384 994 449 994 c 0,18,19
 498 994 498 994 532 963.5 c 128,-1,20
 566 933 566 933 566 880 c 0,21,22
 566 812 566 812 521.5 770.5 c 128,-1,23
 477 729 477 729 415 729 c 0,12,13
421 793 m 0,24,25
 457 793 457 793 472 824 c 128,-1,26
 487 855 487 855 487 890 c 0,27,28
 487 930 487 930 443 930 c 0,29,30
 415 930 415 930 400.5 912.5 c 128,-1,31
 386 895 386 895 381 872 c 128,-1,32
 376 849 376 849 376 834 c 0,33,34
 376 793 376 793 421 793 c 0,24,25
EndSplineSet
EndChar

StartChar: AE
Encoding: 198 198 133
Width: 907
Flags: W
LayerCount: 2
Fore
SplineSet
810 0 m 1,0,-1
 363 0 l 1,1,-1
 399 182 l 1,2,-1
 196 182 l 1,3,-1
 81 0 l 1,4,-1
 -51 0 l 1,5,-1
 408 698 l 1,6,-1
 936 698 l 1,7,-1
 915 591 l 1,8,-1
 602 591 l 1,9,-1
 565 406 l 1,10,-1
 844 406 l 1,11,-1
 822 299 l 1,12,-1
 544 299 l 1,13,-1
 505 107 l 1,14,-1
 831 107 l 1,15,-1
 810 0 l 1,0,-1
420 286 m 1,16,-1
 481 593 l 1,17,-1
 460 593 l 1,18,-1
 263 286 l 1,19,-1
 420 286 l 1,16,-1
EndSplineSet
EndChar

StartChar: Ccedilla
Encoding: 199 199 134
Width: 622
Flags: W
LayerCount: 2
Fore
SplineSet
268 -210 m 0,0,1
 228 -210 228 -210 200 -197.5 c 128,-1,2
 172 -185 172 -185 161 -167 c 1,3,-1
 208 -120 l 1,4,5
 213 -128 213 -128 226.5 -135.5 c 128,-1,6
 240 -143 240 -143 253 -145 c 2,7,-1
 261 -146 l 1,8,9
 315 -145 315 -145 315 -114 c 0,10,11
 315 -82 315 -82 253 -76 c 2,12,-1
 230 -74 l 1,13,-1
 255 -9 l 1,14,15
 165 5 165 5 110.5 75.5 c 128,-1,16
 56 146 56 146 56 270 c 0,17,18
 56 356 56 356 80.5 435.5 c 128,-1,19
 105 515 105 515 151.5 576 c 128,-1,20
 198 637 198 637 262 673.5 c 128,-1,21
 326 710 326 710 407 710 c 0,22,23
 586 710 586 710 637 544 c 1,24,-1
 529 498 l 1,25,26
 515 546 515 546 485 574 c 128,-1,27
 455 602 455 602 396 602 c 0,28,29
 322 602 322 602 271 548.5 c 128,-1,30
 220 495 220 495 204 407 c 2,31,-1
 183 302 l 2,32,33
 177 270 177 270 177 246 c 0,34,35
 178 174 178 174 211.5 135 c 128,-1,36
 245 96 245 96 311 96 c 0,37,38
 374 96 374 96 412 126 c 128,-1,39
 450 156 450 156 478 210 c 1,40,-1
 578 163 l 1,41,42
 488 -9 488 -9 314 -12 c 1,43,-1
 297 -58 l 1,44,-1
 299 -61 l 1,45,46
 319 -55 319 -55 338 -55 c 0,47,48
 362 -55 362 -55 380 -68.5 c 128,-1,49
 398 -82 398 -82 398 -111 c 0,50,51
 398 -160 398 -160 360 -185 c 128,-1,52
 322 -210 322 -210 268 -210 c 0,0,1
EndSplineSet
EndChar

StartChar: Egrave
Encoding: 200 200 135
Width: 573
Flags: W
LayerCount: 2
Fore
SplineSet
476 0 m 1,0,-1
 29 0 l 1,1,-1
 169 698 l 1,2,-1
 603 698 l 1,3,-1
 581 591 l 1,4,-1
 268 591 l 1,5,-1
 231 406 l 1,6,-1
 510 406 l 1,7,-1
 488 299 l 1,8,-1
 210 299 l 1,9,-1
 171 107 l 1,10,-1
 497 107 l 1,11,-1
 476 0 l 1,0,-1
377 746 m 1,12,-1
 280 917 l 1,13,-1
 383 966 l 1,14,-1
 449 778 l 1,15,-1
 377 746 l 1,12,-1
EndSplineSet
EndChar

StartChar: Eacute
Encoding: 201 201 136
Width: 573
Flags: W
LayerCount: 2
Fore
SplineSet
476 0 m 1,0,-1
 29 0 l 1,1,-1
 169 698 l 1,2,-1
 603 698 l 1,3,-1
 581 591 l 1,4,-1
 268 591 l 1,5,-1
 231 406 l 1,6,-1
 510 406 l 1,7,-1
 488 299 l 1,8,-1
 210 299 l 1,9,-1
 171 107 l 1,10,-1
 497 107 l 1,11,-1
 476 0 l 1,0,-1
409 746 m 1,12,-1
 339 784 l 1,13,-1
 452 966 l 1,14,-1
 547 916 l 1,15,-1
 409 746 l 1,12,-1
EndSplineSet
EndChar

StartChar: Ecircumflex
Encoding: 202 202 137
Width: 573
Flags: W
LayerCount: 2
Fore
SplineSet
476 0 m 1,0,-1
 29 0 l 1,1,-1
 169 698 l 1,2,-1
 603 698 l 1,3,-1
 581 591 l 1,4,-1
 268 591 l 1,5,-1
 231 406 l 1,6,-1
 510 406 l 1,7,-1
 488 299 l 1,8,-1
 210 299 l 1,9,-1
 171 107 l 1,10,-1
 497 107 l 1,11,-1
 476 0 l 1,0,-1
278 747 m 1,12,-1
 220 795 l 1,13,-1
 369 947 l 1,14,-1
 480 947 l 1,15,-1
 574 795 l 1,16,-1
 511 748 l 1,17,-1
 414 863 l 1,18,-1
 278 747 l 1,12,-1
EndSplineSet
EndChar

StartChar: Edieresis
Encoding: 203 203 138
Width: 573
Flags: W
LayerCount: 2
Fore
SplineSet
476 0 m 1,0,-1
 29 0 l 1,1,-1
 169 698 l 1,2,-1
 603 698 l 1,3,-1
 581 591 l 1,4,-1
 268 591 l 1,5,-1
 231 406 l 1,6,-1
 510 406 l 1,7,-1
 488 299 l 1,8,-1
 210 299 l 1,9,-1
 171 107 l 1,10,-1
 497 107 l 1,11,-1
 476 0 l 1,0,-1
301 771 m 0,12,13
 245 771 245 771 245 814 c 0,14,15
 245 850 245 850 262.5 877.5 c 128,-1,16
 280 905 280 905 325 905 c 0,17,18
 380 905 380 905 380 863 c 0,19,20
 380 825 380 825 362.5 798 c 128,-1,21
 345 771 345 771 301 771 c 0,12,13
493 771 m 0,22,23
 438 771 438 771 438 814 c 0,24,25
 438 850 438 850 455.5 877.5 c 128,-1,26
 473 905 473 905 518 905 c 0,27,28
 572 905 572 905 572 862 c 0,29,30
 572 771 572 771 493 771 c 0,22,23
EndSplineSet
EndChar

StartChar: Eth
Encoding: 208 208 143
Width: 675
Flags: W
LayerCount: 2
Fore
SplineSet
287 0 m 2,0,-1
 33 0 l 1,1,-1
 96 312 l 1,2,-1
 20 312 l 1,3,-1
 39 405 l 1,4,-1
 114 405 l 1,5,-1
 173 698 l 1,6,-1
 390 698 l 2,7,8
 466 698 466 698 523.5 670 c 128,-1,9
 581 642 581 642 613.5 583.5 c 128,-1,10
 646 525 646 525 646 433 c 0,11,12
 646 316 646 316 604 217.5 c 128,-1,13
 562 119 562 119 481.5 59.5 c 128,-1,14
 401 0 401 0 287 0 c 2,0,-1
296 107 m 2,15,16
 367 107 367 107 421.5 151 c 128,-1,17
 476 195 476 195 497 293 c 2,18,-1
 507 343 l 2,19,20
 515 383 515 383 519 406 c 128,-1,21
 523 429 523 429 523 453 c 0,22,23
 523 591 523 591 384 591 c 2,24,-1
 272 591 l 1,25,-1
 235 405 l 1,26,-1
 356 405 l 1,27,-1
 337 312 l 1,28,-1
 216 312 l 1,29,-1
 175 107 l 1,30,-1
 296 107 l 2,15,16
EndSplineSet
EndChar

StartChar: Ntilde
Encoding: 209 209 144
Width: 694
Flags: W
LayerCount: 2
Fore
SplineSet
560 0 m 1,0,-1
 428 0 l 1,1,-1
 299 369 l 1,2,-1
 253 518 l 1,3,-1
 247 518 l 1,4,-1
 143 0 l 1,5,-1
 29 0 l 1,6,-1
 169 698 l 1,7,-1
 301 698 l 1,8,-1
 429 329 l 1,9,-1
 476 180 l 1,10,-1
 482 180 l 1,11,-1
 586 698 l 1,12,-1
 700 698 l 1,13,-1
 560 0 l 1,0,-1
527 770 m 0,14,15
 491 770 491 770 432 802 c 0,16,17
 406 815 406 815 381 815 c 0,18,19
 365 815 365 815 352 808.5 c 128,-1,20
 339 802 339 802 323 790 c 1,21,-1
 286 847 l 1,22,23
 330 906 330 906 395 906 c 0,24,25
 421 906 421 906 445.5 895.5 c 128,-1,26
 470 885 470 885 489 874 c 0,27,28
 517 860 517 860 540 860 c 0,29,30
 557 860 557 860 569 866 c 128,-1,31
 581 872 581 872 599 886 c 1,32,-1
 636 829 l 1,33,34
 590 770 590 770 527 770 c 0,14,15
EndSplineSet
EndChar

StartChar: Ograve
Encoding: 210 210 145
Width: 690
Flags: W
LayerCount: 2
Fore
SplineSet
305 -12 m 0,0,1
 196 -12 196 -12 126 61.5 c 128,-1,2
 56 135 56 135 56 267 c 0,3,4
 56 388 56 388 108 499 c 128,-1,5
 160 610 160 610 264 672 c 0,6,7
 330 710 330 710 414 710 c 0,8,9
 527 710 527 710 595 635.5 c 128,-1,10
 663 561 663 561 663 431 c 0,11,12
 663 316 663 316 618.5 214.5 c 128,-1,13
 574 113 574 113 493.5 50.5 c 128,-1,14
 413 -12 413 -12 305 -12 c 0,0,1
315 96 m 0,15,16
 399 96 399 96 448.5 149.5 c 128,-1,17
 498 203 498 203 515 299 c 2,18,-1
 535 398 l 2,19,20
 540 423 540 423 540 442 c 2,21,-1
 541 456 l 1,22,23
 538 602 538 602 405 602 c 0,24,25
 244 602 244 602 203 398 c 2,26,-1
 184 300 l 2,27,28
 179 275 179 275 179 256 c 2,29,-1
 178 242 l 1,30,31
 178 96 178 96 315 96 c 0,15,16
420 746 m 1,32,-1
 323 917 l 1,33,-1
 427 966 l 1,34,-1
 493 778 l 1,35,-1
 420 746 l 1,32,-1
EndSplineSet
EndChar

StartChar: Oacute
Encoding: 211 211 146
Width: 690
Flags: W
LayerCount: 2
Fore
SplineSet
305 -12 m 0,0,1
 196 -12 196 -12 126 61.5 c 128,-1,2
 56 135 56 135 56 267 c 0,3,4
 56 388 56 388 108 499 c 128,-1,5
 160 610 160 610 264 672 c 0,6,7
 330 710 330 710 414 710 c 0,8,9
 527 710 527 710 595 635.5 c 128,-1,10
 663 561 663 561 663 431 c 0,11,12
 663 316 663 316 618.5 214.5 c 128,-1,13
 574 113 574 113 493.5 50.5 c 128,-1,14
 413 -12 413 -12 305 -12 c 0,0,1
315 96 m 0,15,16
 399 96 399 96 448.5 149.5 c 128,-1,17
 498 203 498 203 515 299 c 2,18,-1
 535 398 l 2,19,20
 540 423 540 423 540 442 c 2,21,-1
 541 456 l 1,22,23
 538 602 538 602 405 602 c 0,24,25
 244 602 244 602 203 398 c 2,26,-1
 184 300 l 2,27,28
 179 275 179 275 179 256 c 2,29,-1
 178 242 l 1,30,31
 178 96 178 96 315 96 c 0,15,16
453 746 m 1,32,-1
 382 784 l 1,33,-1
 495 966 l 1,34,-1
 591 916 l 1,35,-1
 453 746 l 1,32,-1
EndSplineSet
EndChar

StartChar: Ocircumflex
Encoding: 212 212 147
Width: 690
Flags: W
LayerCount: 2
Fore
SplineSet
305 -12 m 0,0,1
 196 -12 196 -12 126 61.5 c 128,-1,2
 56 135 56 135 56 267 c 0,3,4
 56 388 56 388 108 499 c 128,-1,5
 160 610 160 610 264 672 c 0,6,7
 330 710 330 710 414 710 c 0,8,9
 527 710 527 710 595 635.5 c 128,-1,10
 663 561 663 561 663 431 c 0,11,12
 663 316 663 316 618.5 214.5 c 128,-1,13
 574 113 574 113 493.5 50.5 c 128,-1,14
 413 -12 413 -12 305 -12 c 0,0,1
315 96 m 0,15,16
 399 96 399 96 448.5 149.5 c 128,-1,17
 498 203 498 203 515 299 c 2,18,-1
 535 398 l 2,19,20
 540 423 540 423 540 442 c 2,21,-1
 541 456 l 1,22,23
 538 602 538 602 405 602 c 0,24,25
 244 602 244 602 203 398 c 2,26,-1
 184 300 l 2,27,28
 179 275 179 275 179 256 c 2,29,-1
 178 242 l 1,30,31
 178 96 178 96 315 96 c 0,15,16
322 747 m 1,32,-1
 263 795 l 1,33,-1
 413 947 l 1,34,-1
 524 947 l 1,35,-1
 617 795 l 1,36,-1
 554 748 l 1,37,-1
 458 863 l 1,38,-1
 322 747 l 1,32,-1
EndSplineSet
EndChar

StartChar: Otilde
Encoding: 213 213 148
Width: 690
Flags: W
LayerCount: 2
Fore
SplineSet
305 -12 m 0,0,1
 196 -12 196 -12 126 61.5 c 128,-1,2
 56 135 56 135 56 267 c 0,3,4
 56 388 56 388 108 499 c 128,-1,5
 160 610 160 610 264 672 c 0,6,7
 330 710 330 710 414 710 c 0,8,9
 527 710 527 710 595 635.5 c 128,-1,10
 663 561 663 561 663 431 c 0,11,12
 663 316 663 316 618.5 214.5 c 128,-1,13
 574 113 574 113 493.5 50.5 c 128,-1,14
 413 -12 413 -12 305 -12 c 0,0,1
315 96 m 0,15,16
 399 96 399 96 448.5 149.5 c 128,-1,17
 498 203 498 203 515 299 c 2,18,-1
 535 398 l 2,19,20
 540 423 540 423 540 442 c 2,21,-1
 541 456 l 1,22,23
 538 602 538 602 405 602 c 0,24,25
 244 602 244 602 203 398 c 2,26,-1
 184 300 l 2,27,28
 179 275 179 275 179 256 c 2,29,-1
 178 242 l 1,30,31
 178 96 178 96 315 96 c 0,15,16
519 770 m 0,32,33
 497 770 497 770 481 776 c 0,34,35
 459 784 459 784 440.5 793 c 128,-1,36
 422 802 422 802 406 808.5 c 128,-1,37
 390 815 390 815 374 815 c 0,38,39
 357 815 357 815 344 808.5 c 128,-1,40
 331 802 331 802 315 790 c 1,41,-1
 278 847 l 1,42,43
 323 906 323 906 387 906 c 0,44,45
 427 906 427 906 482 874 c 0,46,47
 509 860 509 860 532 860 c 0,48,49
 551 860 551 860 562.5 866.5 c 128,-1,50
 574 873 574 873 591 886 c 1,51,-1
 628 829 l 1,52,53
 582 770 582 770 519 770 c 0,32,33
EndSplineSet
EndChar

StartChar: Odieresis
Encoding: 214 214 149
Width: 690
Flags: W
LayerCount: 2
Fore
SplineSet
305 -12 m 0,0,1
 196 -12 196 -12 126 61.5 c 128,-1,2
 56 135 56 135 56 267 c 0,3,4
 56 388 56 388 108 499 c 128,-1,5
 160 610 160 610 264 672 c 0,6,7
 330 710 330 710 414 710 c 0,8,9
 527 710 527 710 595 635.5 c 128,-1,10
 663 561 663 561 663 431 c 0,11,12
 663 316 663 316 618.5 214.5 c 128,-1,13
 574 113 574 113 493.5 50.5 c 128,-1,14
 413 -12 413 -12 305 -12 c 0,0,1
315 96 m 0,15,16
 399 96 399 96 448.5 149.5 c 128,-1,17
 498 203 498 203 515 299 c 2,18,-1
 535 398 l 2,19,20
 540 423 540 423 540 442 c 2,21,-1
 541 456 l 1,22,23
 538 602 538 602 405 602 c 0,24,25
 244 602 244 602 203 398 c 2,26,-1
 184 300 l 2,27,28
 179 275 179 275 179 256 c 2,29,-1
 178 242 l 1,30,31
 178 96 178 96 315 96 c 0,15,16
344 771 m 0,32,33
 289 771 289 771 289 814 c 0,34,35
 289 850 289 850 306.5 877.5 c 128,-1,36
 324 905 324 905 369 905 c 0,37,38
 423 905 423 905 423 862 c 0,39,40
 423 771 423 771 344 771 c 0,32,33
537 771 m 0,41,42
 481 771 481 771 481 814 c 0,43,44
 481 905 481 905 562 905 c 0,45,46
 616 905 616 905 616 862 c 0,47,48
 616 771 616 771 537 771 c 0,41,42
EndSplineSet
EndChar

StartChar: multiply
Encoding: 215 215 150
Width: 600
Flags: W
LayerCount: 2
Fore
SplineSet
128 82 m 1,0,-1
 66 156 l 1,1,-1
 242 310 l 1,2,-1
 127 461 l 1,3,-1
 207 528 l 1,4,-1
 321 377 l 1,5,-1
 495 528 l 1,6,-1
 557 454 l 1,7,-1
 381 300 l 1,8,-1
 495 150 l 1,9,-1
 415 83 l 1,10,-1
 302 233 l 1,11,-1
 128 82 l 1,0,-1
EndSplineSet
EndChar

StartChar: Oslash
Encoding: 216 216 151
Width: 690
Flags: W
LayerCount: 2
Fore
SplineSet
70 -55 m 1,0,-1
 3 4 l 1,1,-1
 92 108 l 1,2,3
 56 169 56 169 56 267 c 0,4,5
 56 388 56 388 108 499 c 128,-1,6
 160 610 160 610 264 672 c 0,7,8
 330 710 330 710 414 710 c 0,9,10
 501 710 501 710 569 660 c 1,11,-1
 649 753 l 1,12,-1
 716 694 l 1,13,-1
 627 590 l 1,14,15
 662 528 662 528 662 431 c 0,16,17
 662 316 662 316 617.5 214.5 c 128,-1,18
 573 113 573 113 492.5 50.5 c 128,-1,19
 412 -12 412 -12 304 -12 c 0,20,21
 214 -12 214 -12 149 38 c 1,22,-1
 70 -55 l 1,0,-1
179 198 m 1,23,-1
 501 571 l 1,24,25
 464 605 464 605 405 605 c 0,26,27
 245 605 245 605 202 405 c 2,28,-1
 190 347 l 2,29,30
 176 282 176 282 175 247 c 2,31,-1
 174 240 l 1,32,-1
 175 232 l 2,33,34
 175 213 175 213 178 203 c 2,35,-1
 179 198 l 1,23,-1
313 93 m 0,36,37
 474 93 474 93 516 293 c 2,38,-1
 523 326 l 2,39,40
 531 360 531 360 537.5 394 c 128,-1,41
 544 428 544 428 544 462 c 0,42,43
 544 482 544 482 539 500 c 1,44,-1
 217 127 l 1,45,46
 252 93 252 93 313 93 c 0,36,37
EndSplineSet
EndChar

StartChar: Ugrave
Encoding: 217 217 152
Width: 669
Flags: W
LayerCount: 2
Fore
SplineSet
297 -12 m 0,0,1
 184 -12 184 -12 130 45.5 c 128,-1,2
 76 103 76 103 76 205 c 0,3,4
 76 247 76 247 86 300 c 2,5,-1
 165 698 l 1,6,-1
 285 698 l 1,7,-1
 201 278 l 2,8,9
 193 240 193 240 193 211 c 0,10,11
 196 99 196 99 305 99 c 0,12,13
 376 99 376 99 416 142 c 128,-1,14
 456 185 456 185 473 275 c 0,15,16
 526 542 526 542 558 698 c 1,17,-1
 677 698 l 1,18,-1
 593 276 l 2,19,20
 564 124 564 124 494.5 56 c 128,-1,21
 425 -12 425 -12 297 -12 c 0,0,1
410 746 m 1,22,-1
 313 917 l 1,23,-1
 417 966 l 1,24,-1
 483 778 l 1,25,-1
 410 746 l 1,22,-1
EndSplineSet
EndChar

StartChar: Uacute
Encoding: 218 218 153
Width: 669
Flags: W
LayerCount: 2
Fore
SplineSet
297 -12 m 0,0,1
 184 -12 184 -12 130 45.5 c 128,-1,2
 76 103 76 103 76 205 c 0,3,4
 76 247 76 247 86 300 c 2,5,-1
 165 698 l 1,6,-1
 285 698 l 1,7,-1
 201 278 l 2,8,9
 193 240 193 240 193 211 c 0,10,11
 196 99 196 99 305 99 c 0,12,13
 376 99 376 99 416 142 c 128,-1,14
 456 185 456 185 473 275 c 0,15,16
 526 542 526 542 558 698 c 1,17,-1
 677 698 l 1,18,-1
 593 276 l 2,19,20
 564 124 564 124 494.5 56 c 128,-1,21
 425 -12 425 -12 297 -12 c 0,0,1
443 746 m 1,22,-1
 372 784 l 1,23,-1
 485 966 l 1,24,-1
 581 916 l 1,25,-1
 443 746 l 1,22,-1
EndSplineSet
EndChar

StartChar: Ucircumflex
Encoding: 219 219 154
Width: 669
Flags: W
LayerCount: 2
Fore
SplineSet
297 -12 m 0,0,1
 184 -12 184 -12 130 45.5 c 128,-1,2
 76 103 76 103 76 205 c 0,3,4
 76 247 76 247 86 300 c 2,5,-1
 165 698 l 1,6,-1
 285 698 l 1,7,-1
 201 278 l 2,8,9
 193 240 193 240 193 211 c 0,10,11
 196 99 196 99 305 99 c 0,12,13
 376 99 376 99 416 142 c 128,-1,14
 456 185 456 185 473 275 c 0,15,16
 526 542 526 542 558 698 c 1,17,-1
 677 698 l 1,18,-1
 593 276 l 2,19,20
 564 124 564 124 494.5 56 c 128,-1,21
 425 -12 425 -12 297 -12 c 0,0,1
312 747 m 1,22,-1
 253 795 l 1,23,-1
 403 947 l 1,24,-1
 514 947 l 1,25,-1
 607 795 l 1,26,-1
 544 748 l 1,27,-1
 448 863 l 1,28,-1
 312 747 l 1,22,-1
EndSplineSet
EndChar

StartChar: Udieresis
Encoding: 220 220 155
Width: 669
Flags: W
LayerCount: 2
Fore
SplineSet
297 -12 m 0,0,1
 184 -12 184 -12 130 45.5 c 128,-1,2
 76 103 76 103 76 205 c 0,3,4
 76 247 76 247 86 300 c 2,5,-1
 165 698 l 1,6,-1
 285 698 l 1,7,-1
 201 278 l 2,8,9
 193 240 193 240 193 211 c 0,10,11
 196 99 196 99 305 99 c 0,12,13
 376 99 376 99 416 142 c 128,-1,14
 456 185 456 185 473 275 c 0,15,16
 526 542 526 542 558 698 c 1,17,-1
 677 698 l 1,18,-1
 593 276 l 2,19,20
 564 124 564 124 494.5 56 c 128,-1,21
 425 -12 425 -12 297 -12 c 0,0,1
334 771 m 0,22,23
 279 771 279 771 279 814 c 0,24,25
 279 850 279 850 296.5 877.5 c 128,-1,26
 314 905 314 905 359 905 c 0,27,28
 413 905 413 905 413 862 c 0,29,30
 413 771 413 771 334 771 c 0,22,23
527 771 m 0,31,32
 471 771 471 771 471 814 c 0,33,34
 471 905 471 905 552 905 c 0,35,36
 606 905 606 905 606 862 c 0,37,38
 606 771 606 771 527 771 c 0,31,32
EndSplineSet
EndChar

StartChar: Yacute
Encoding: 221 221 156
Width: 606
Flags: W
LayerCount: 2
Fore
SplineSet
309 0 m 1,0,-1
 189 0 l 1,1,-1
 244 272 l 1,2,-1
 96 698 l 1,3,-1
 219 698 l 1,4,-1
 322 386 l 1,5,-1
 327 386 l 1,6,-1
 547 698 l 1,7,-1
 682 698 l 1,8,-1
 363 264 l 1,9,-1
 309 0 l 1,0,-1
401 746 m 1,10,-1
 331 784 l 1,11,-1
 444 966 l 1,12,-1
 539 916 l 1,13,-1
 401 746 l 1,10,-1
EndSplineSet
EndChar

StartChar: Thorn
Encoding: 222 222 157
Width: 615
Flags: W
LayerCount: 2
Fore
SplineSet
149 0 m 1,0,-1
 28 0 l 1,1,-1
 168 698 l 1,2,-1
 289 698 l 1,3,-1
 263 568 l 1,4,-1
 401 568 l 2,5,6
 506 568 506 568 554.5 517.5 c 128,-1,7
 603 467 603 467 603 389 c 0,8,9
 603 278 603 278 531 209.5 c 128,-1,10
 459 141 459 141 347 141 c 2,11,-1
 176 141 l 1,12,-1
 149 0 l 1,0,-1
362 249 m 2,13,14
 399 249 399 249 427.5 268.5 c 128,-1,15
 456 288 456 288 466 331 c 2,16,-1
 475 372 l 2,17,18
 478 384 478 384 478 398 c 0,19,20
 478 458 478 458 402 461 c 2,21,-1
 241 461 l 1,22,-1
 199 249 l 1,23,-1
 362 249 l 2,13,14
EndSplineSet
EndChar

StartChar: germandbls
Encoding: 223 223 158
Width: 658
Flags: W
LayerCount: 2
Fore
SplineSet
412 -12 m 0,0,1
 351 -12 351 -12 303.5 9 c 128,-1,2
 256 30 256 30 229 72 c 1,3,-1
 303 138 l 1,4,5
 344 81 344 81 414 81 c 0,6,7
 496 84 496 84 501 152 c 2,8,-1
 502 163 l 2,9,10
 500 182 500 182 490.5 193.5 c 128,-1,11
 481 205 481 205 461 214 c 2,12,-1
 409 239 l 1,13,14
 316 273 316 273 316 363 c 0,15,16
 316 425 316 425 362.5 471 c 128,-1,17
 409 517 409 517 504 527 c 1,18,19
 510 565 510 565 510 574 c 0,20,21
 507 659 507 659 410 659 c 0,22,23
 346 659 346 659 311.5 627 c 128,-1,24
 277 595 277 595 264 530 c 0,25,26
 220 325 220 325 181 121 c 2,27,-1
 158 0 l 1,28,-1
 42 0 l 1,29,-1
 127 425 l 1,30,-1
 49 425 l 1,31,-1
 68 522 l 1,32,-1
 147 522 l 1,33,34
 170 644 170 644 248 700 c 0,35,36
 320 752 320 752 418 752 c 0,37,38
 512 752 512 752 567 704.5 c 128,-1,39
 622 657 622 657 622 581 c 0,40,41
 622 539 622 539 606 467 c 2,42,-1
 601 444 l 1,43,-1
 537 444 l 2,44,45
 425 444 425 444 425 383 c 0,46,47
 425 361 425 361 438.5 346 c 128,-1,48
 452 331 452 331 479 320 c 2,49,-1
 518 303 l 2,50,51
 559 287 559 287 585.5 259.5 c 128,-1,52
 612 232 612 232 612 176 c 0,53,54
 612 97 612 97 557 42.5 c 128,-1,55
 502 -12 502 -12 412 -12 c 0,0,1
EndSplineSet
EndChar

StartChar: agrave
Encoding: 224 224 159
Width: 588
Flags: W
LayerCount: 2
Fore
SplineSet
185 -12 m 0,0,1
 149 -12 149 -12 121.5 2 c 128,-1,2
 94 16 94 16 75.5 40.5 c 128,-1,3
 57 65 57 65 47.5 99.5 c 128,-1,4
 38 134 38 134 38 176 c 0,5,6
 38 244 38 244 55 308.5 c 128,-1,7
 72 373 72 373 103.5 422.5 c 128,-1,8
 135 472 135 472 181.5 503 c 128,-1,9
 228 534 228 534 286 534 c 0,10,11
 337 534 337 534 373.5 506 c 128,-1,12
 410 478 410 478 418 433 c 1,13,-1
 423 433 l 1,14,-1
 440 522 l 1,15,-1
 556 522 l 1,16,-1
 471 95 l 1,17,-1
 535 95 l 1,18,-1
 516 0 l 1,19,-1
 433 0 l 2,20,21
 360 2 360 2 354 62 c 2,22,-1
 353 76 l 1,23,24
 356 105 356 105 359 118 c 1,25,-1
 355 118 l 1,26,27
 324 54 324 54 285.5 21 c 128,-1,28
 247 -12 247 -12 185 -12 c 0,0,1
235 86 m 0,29,30
 286 86 286 86 328 132 c 128,-1,31
 370 178 370 178 385 247 c 2,32,-1
 396 304 l 2,33,34
 406 352 406 352 406 359 c 0,35,36
 406 390 406 390 381 413 c 128,-1,37
 356 436 356 436 310 436 c 0,38,39
 204 436 204 436 177 304 c 2,40,-1
 170 270 l 2,41,42
 157 216 157 216 157 177 c 0,43,44
 159 86 159 86 235 86 c 0,29,30
323 581 m 1,45,-1
 226 752 l 1,46,-1
 330 801 l 1,47,-1
 395 614 l 1,48,-1
 323 581 l 1,45,-1
EndSplineSet
EndChar

StartChar: aacute
Encoding: 225 225 160
Width: 588
Flags: W
LayerCount: 2
Fore
SplineSet
185 -12 m 0,0,1
 149 -12 149 -12 121.5 2 c 128,-1,2
 94 16 94 16 75.5 40.5 c 128,-1,3
 57 65 57 65 47.5 99.5 c 128,-1,4
 38 134 38 134 38 176 c 0,5,6
 38 244 38 244 55 308.5 c 128,-1,7
 72 373 72 373 103.5 422.5 c 128,-1,8
 135 472 135 472 181.5 503 c 128,-1,9
 228 534 228 534 286 534 c 0,10,11
 337 534 337 534 373.5 506 c 128,-1,12
 410 478 410 478 418 433 c 1,13,-1
 423 433 l 1,14,-1
 440 522 l 1,15,-1
 556 522 l 1,16,-1
 471 95 l 1,17,-1
 535 95 l 1,18,-1
 516 0 l 1,19,-1
 433 0 l 2,20,21
 360 2 360 2 354 62 c 2,22,-1
 353 76 l 1,23,24
 356 105 356 105 359 118 c 1,25,-1
 355 118 l 1,26,27
 324 54 324 54 285.5 21 c 128,-1,28
 247 -12 247 -12 185 -12 c 0,0,1
235 86 m 0,29,30
 286 86 286 86 328 132 c 128,-1,31
 370 178 370 178 385 247 c 2,32,-1
 396 304 l 2,33,34
 406 352 406 352 406 359 c 0,35,36
 406 390 406 390 381 413 c 128,-1,37
 356 436 356 436 310 436 c 0,38,39
 204 436 204 436 177 304 c 2,40,-1
 170 270 l 2,41,42
 157 216 157 216 157 177 c 0,43,44
 159 86 159 86 235 86 c 0,29,30
360 581 m 1,45,-1
 290 619 l 1,46,-1
 403 802 l 1,47,-1
 498 751 l 1,48,-1
 360 581 l 1,45,-1
EndSplineSet
EndChar

StartChar: acircumflex
Encoding: 226 226 161
Width: 588
Flags: W
LayerCount: 2
Fore
SplineSet
185 -12 m 0,0,1
 149 -12 149 -12 121.5 2 c 128,-1,2
 94 16 94 16 75.5 40.5 c 128,-1,3
 57 65 57 65 47.5 99.5 c 128,-1,4
 38 134 38 134 38 176 c 0,5,6
 38 244 38 244 55 308.5 c 128,-1,7
 72 373 72 373 103.5 422.5 c 128,-1,8
 135 472 135 472 181.5 503 c 128,-1,9
 228 534 228 534 286 534 c 0,10,11
 337 534 337 534 373.5 506 c 128,-1,12
 410 478 410 478 418 433 c 1,13,-1
 423 433 l 1,14,-1
 440 522 l 1,15,-1
 556 522 l 1,16,-1
 471 95 l 1,17,-1
 535 95 l 1,18,-1
 516 0 l 1,19,-1
 433 0 l 2,20,21
 360 2 360 2 354 62 c 2,22,-1
 353 76 l 1,23,24
 356 105 356 105 359 118 c 1,25,-1
 355 118 l 1,26,27
 324 54 324 54 285.5 21 c 128,-1,28
 247 -12 247 -12 185 -12 c 0,0,1
235 86 m 0,29,30
 286 86 286 86 328 132 c 128,-1,31
 370 178 370 178 385 247 c 2,32,-1
 396 304 l 2,33,34
 406 352 406 352 406 359 c 0,35,36
 406 390 406 390 381 413 c 128,-1,37
 356 436 356 436 310 436 c 0,38,39
 204 436 204 436 177 304 c 2,40,-1
 170 270 l 2,41,42
 157 216 157 216 157 177 c 0,43,44
 159 86 159 86 235 86 c 0,29,30
460 583 m 1,45,-1
 363 699 l 1,46,-1
 227 584 l 1,47,-1
 169 631 l 1,48,-1
 318 783 l 1,49,-1
 429 783 l 1,50,-1
 523 631 l 1,51,-1
 460 583 l 1,45,-1
EndSplineSet
EndChar

StartChar: atilde
Encoding: 227 227 162
Width: 588
Flags: W
LayerCount: 2
Fore
SplineSet
185 -12 m 0,0,1
 149 -12 149 -12 121.5 2 c 128,-1,2
 94 16 94 16 75.5 40.5 c 128,-1,3
 57 65 57 65 47.5 99.5 c 128,-1,4
 38 134 38 134 38 176 c 0,5,6
 38 244 38 244 55 308.5 c 128,-1,7
 72 373 72 373 103.5 422.5 c 128,-1,8
 135 472 135 472 181.5 503 c 128,-1,9
 228 534 228 534 286 534 c 0,10,11
 337 534 337 534 373.5 506 c 128,-1,12
 410 478 410 478 418 433 c 1,13,-1
 423 433 l 1,14,-1
 440 522 l 1,15,-1
 556 522 l 1,16,-1
 471 95 l 1,17,-1
 535 95 l 1,18,-1
 516 0 l 1,19,-1
 433 0 l 2,20,21
 360 2 360 2 354 62 c 2,22,-1
 353 76 l 1,23,24
 356 105 356 105 359 118 c 1,25,-1
 355 118 l 1,26,27
 324 54 324 54 285.5 21 c 128,-1,28
 247 -12 247 -12 185 -12 c 0,0,1
235 86 m 0,29,30
 286 86 286 86 328 132 c 128,-1,31
 370 178 370 178 385 247 c 2,32,-1
 396 304 l 2,33,34
 406 352 406 352 406 359 c 0,35,36
 406 390 406 390 381 413 c 128,-1,37
 356 436 356 436 310 436 c 0,38,39
 204 436 204 436 177 304 c 2,40,-1
 170 270 l 2,41,42
 157 216 157 216 157 177 c 0,43,44
 159 86 159 86 235 86 c 0,29,30
425 605 m 0,45,46
 403 605 403 605 387.5 610.5 c 128,-1,47
 372 616 372 616 357 624 c 2,48,-1
 340 632 l 2,49,50
 305 651 305 651 280 651 c 0,51,52
 264 651 264 651 252 644.5 c 128,-1,53
 240 638 240 638 222 625 c 1,54,-1
 184 682 l 1,55,56
 230 741 230 741 293 741 c 0,57,58
 329 741 329 741 385 711 c 0,59,60
 414 696 414 696 438 696 c 0,61,62
 454 696 454 696 466 701.5 c 128,-1,63
 478 707 478 707 496 721 c 1,64,-1
 534 664 l 1,65,66
 487 605 487 605 425 605 c 0,45,46
EndSplineSet
EndChar

StartChar: adieresis
Encoding: 228 228 163
Width: 588
Flags: W
LayerCount: 2
Fore
SplineSet
185 -12 m 0,0,1
 149 -12 149 -12 121.5 2 c 128,-1,2
 94 16 94 16 75.5 40.5 c 128,-1,3
 57 65 57 65 47.5 99.5 c 128,-1,4
 38 134 38 134 38 176 c 0,5,6
 38 244 38 244 55 308.5 c 128,-1,7
 72 373 72 373 103.5 422.5 c 128,-1,8
 135 472 135 472 181.5 503 c 128,-1,9
 228 534 228 534 286 534 c 0,10,11
 337 534 337 534 373.5 506 c 128,-1,12
 410 478 410 478 418 433 c 1,13,-1
 423 433 l 1,14,-1
 440 522 l 1,15,-1
 556 522 l 1,16,-1
 471 95 l 1,17,-1
 535 95 l 1,18,-1
 516 0 l 1,19,-1
 433 0 l 2,20,21
 360 2 360 2 354 62 c 2,22,-1
 353 76 l 1,23,24
 356 105 356 105 359 118 c 1,25,-1
 355 118 l 1,26,27
 324 54 324 54 285.5 21 c 128,-1,28
 247 -12 247 -12 185 -12 c 0,0,1
235 86 m 0,29,30
 286 86 286 86 328 132 c 128,-1,31
 370 178 370 178 385 247 c 2,32,-1
 396 304 l 2,33,34
 406 352 406 352 406 359 c 0,35,36
 406 390 406 390 381 413 c 128,-1,37
 356 436 356 436 310 436 c 0,38,39
 204 436 204 436 177 304 c 2,40,-1
 170 270 l 2,41,42
 157 216 157 216 157 177 c 0,43,44
 159 86 159 86 235 86 c 0,29,30
251 607 m 0,45,46
 195 607 195 607 195 646 c 0,47,48
 195 740 195 740 276 740 c 0,49,50
 330 740 330 740 330 697 c 0,51,52
 330 607 330 607 251 607 c 0,45,46
444 607 m 0,53,54
 388 607 388 607 388 646 c 256,55,56
 388 685 388 685 405.5 712.5 c 128,-1,57
 423 740 423 740 468 740 c 0,58,59
 523 740 523 740 523 698 c 0,60,61
 523 607 523 607 444 607 c 0,53,54
EndSplineSet
EndChar

StartChar: aring
Encoding: 229 229 164
Width: 588
Flags: W
LayerCount: 2
Fore
SplineSet
185 -12 m 0,0,1
 149 -12 149 -12 121.5 2 c 128,-1,2
 94 16 94 16 75.5 40.5 c 128,-1,3
 57 65 57 65 47.5 99.5 c 128,-1,4
 38 134 38 134 38 176 c 0,5,6
 38 244 38 244 55 308.5 c 128,-1,7
 72 373 72 373 103.5 422.5 c 128,-1,8
 135 472 135 472 181.5 503 c 128,-1,9
 228 534 228 534 286 534 c 0,10,11
 337 534 337 534 373.5 506 c 128,-1,12
 410 478 410 478 418 433 c 1,13,-1
 423 433 l 1,14,-1
 440 522 l 1,15,-1
 556 522 l 1,16,-1
 471 95 l 1,17,-1
 535 95 l 1,18,-1
 516 0 l 1,19,-1
 433 0 l 2,20,21
 360 2 360 2 354 62 c 2,22,-1
 353 76 l 1,23,24
 356 105 356 105 359 118 c 1,25,-1
 355 118 l 1,26,27
 324 54 324 54 285.5 21 c 128,-1,28
 247 -12 247 -12 185 -12 c 0,0,1
235 86 m 0,29,30
 286 86 286 86 328 132 c 128,-1,31
 370 178 370 178 385 247 c 2,32,-1
 396 304 l 2,33,34
 406 352 406 352 406 359 c 0,35,36
 406 390 406 390 381 413 c 128,-1,37
 356 436 356 436 310 436 c 0,38,39
 204 436 204 436 177 304 c 2,40,-1
 170 270 l 2,41,42
 157 216 157 216 157 177 c 0,43,44
 159 86 159 86 235 86 c 0,29,30
341 565 m 0,45,46
 288 565 288 565 256 596.5 c 128,-1,47
 224 628 224 628 224 678 c 0,48,49
 224 746 224 746 268.5 787.5 c 128,-1,50
 313 829 313 829 376 829 c 0,51,52
 425 829 425 829 459 799 c 128,-1,53
 493 769 493 769 493 716 c 0,54,55
 493 644 493 644 447 604.5 c 128,-1,56
 401 565 401 565 341 565 c 0,45,46
347 629 m 0,57,58
 382 629 382 629 398 657.5 c 128,-1,59
 414 686 414 686 414 726 c 0,60,61
 414 765 414 765 370 765 c 0,62,63
 343 765 343 765 328.5 749 c 128,-1,64
 314 733 314 733 308.5 711 c 128,-1,65
 303 689 303 689 303 670 c 0,66,67
 303 629 303 629 347 629 c 0,57,58
EndSplineSet
EndChar

StartChar: ae
Encoding: 230 230 165
Width: 818
Flags: W
LayerCount: 2
Fore
SplineSet
213 76 m 0,0,1
 252 76 252 76 286 96.5 c 128,-1,2
 320 117 320 117 331 155 c 2,3,-1
 345 222 l 1,4,-1
 306 220 l 2,5,6
 255 218 255 218 218.5 212 c 128,-1,7
 182 206 182 206 163 188 c 128,-1,8
 144 170 144 170 144 128 c 1,9,10
 149 76 149 76 213 76 c 0,0,1
474 295 m 1,11,12
 560 299 560 299 606.5 309.5 c 128,-1,13
 653 320 653 320 670.5 337 c 128,-1,14
 688 354 688 354 688 380 c 0,15,16
 688 408 688 408 672.5 425 c 128,-1,17
 657 442 657 442 625 442 c 0,18,19
 587 442 587 442 563 433 c 128,-1,20
 539 424 539 424 521 402 c 0,21,22
 491 364 491 364 476 301 c 1,23,-1
 474 295 l 1,11,12
554 -12 m 0,24,25
 412 -12 412 -12 366 93 c 1,26,-1
 359 93 l 1,27,28
 305 -12 305 -12 177 -12 c 0,29,30
 99 -12 99 -12 61.5 25 c 128,-1,31
 24 62 24 62 24 124 c 0,32,33
 24 201 24 201 84.5 244 c 128,-1,34
 145 287 145 287 270 290 c 2,35,-1
 360 293 l 1,36,37
 364 315 364 315 366 334 c 2,38,-1
 369 353 l 2,39,40
 369 369 369 369 365 378 c 0,41,42
 359 438 359 438 280 438 c 0,43,44
 198 438 198 438 153 368 c 1,45,-1
 84 434 l 1,46,47
 116 480 116 480 167.5 507 c 128,-1,48
 219 534 219 534 291 534 c 0,49,50
 405 534 405 534 443 450 c 1,51,-1
 450 450 l 1,52,53
 517 534 517 534 624 534 c 0,54,55
 701 534 701 534 751.5 495.5 c 128,-1,56
 802 457 802 457 802 391 c 0,57,58
 802 310 802 310 720.5 267 c 128,-1,59
 639 224 639 224 461 221 c 1,60,61
 459 202 459 202 459 181 c 0,62,63
 459 84 459 84 563 84 c 0,64,65
 606 84 606 84 639 103 c 128,-1,66
 672 122 672 122 702 161 c 1,67,-1
 775 101 l 1,68,69
 728 42 728 42 675.5 15 c 128,-1,70
 623 -12 623 -12 554 -12 c 0,24,25
EndSplineSet
EndChar

StartChar: ccedilla
Encoding: 231 231 166
Width: 491
Flags: W
LayerCount: 2
Fore
SplineSet
214 -210 m 0,0,1
 175 -210 175 -210 147 -198 c 128,-1,2
 119 -186 119 -186 107 -167 c 1,3,-1
 154 -120 l 1,4,5
 160 -129 160 -129 176 -138 c 128,-1,6
 192 -147 192 -147 213 -147 c 0,7,8
 257 -144 257 -144 260 -118 c 2,9,-1
 260 -115 l 2,10,11
 260 -83 260 -83 200 -76 c 2,12,-1
 176 -74 l 1,13,-1
 200 -10 l 1,14,15
 126 1 126 1 82 54 c 128,-1,16
 38 107 38 107 38 209 c 0,17,18
 38 277 38 277 57.5 336 c 128,-1,19
 77 395 77 395 112.5 439 c 128,-1,20
 148 483 148 483 197.5 508.5 c 128,-1,21
 247 534 247 534 307 534 c 0,22,23
 379 534 379 534 426.5 499 c 128,-1,24
 474 464 474 464 488 404 c 1,25,-1
 391 365 l 1,26,27
 381 399 381 399 361.5 418 c 128,-1,28
 342 437 342 437 301 437 c 0,29,30
 198 437 198 437 174 307 c 0,31,32
 154 204 154 204 153 189 c 2,33,-1
 153 183 l 2,34,35
 153 84 153 84 247 84 c 0,36,37
 288 84 288 84 312 106.5 c 128,-1,38
 336 129 336 129 362 174 c 1,39,-1
 451 132 l 1,40,41
 386 1 386 1 260 -11 c 1,42,-1
 243 -58 l 1,43,-1
 245 -61 l 1,44,45
 261 -55 261 -55 283 -55 c 0,46,47
 309 -55 309 -55 327 -68.5 c 128,-1,48
 345 -82 345 -82 345 -111 c 0,49,50
 345 -135 345 -135 335 -153.5 c 128,-1,51
 325 -172 325 -172 307 -184.5 c 128,-1,52
 289 -197 289 -197 265 -203.5 c 128,-1,53
 241 -210 241 -210 214 -210 c 0,0,1
EndSplineSet
EndChar

StartChar: egrave
Encoding: 232 232 167
Width: 513
Flags: W
LayerCount: 2
Fore
SplineSet
250 -12 m 0,0,1
 139 -12 139 -12 88.5 48.5 c 128,-1,2
 38 109 38 109 38 210 c 0,3,4
 38 285 38 285 69 359.5 c 128,-1,5
 100 434 100 434 162 484 c 128,-1,6
 224 534 224 534 317 534 c 0,7,8
 391 534 391 534 444 497 c 128,-1,9
 497 460 497 460 497 390 c 0,10,11
 497 304 497 304 411 261 c 128,-1,12
 325 218 325 218 156 213 c 1,13,-1
 155 203 l 2,14,15
 153 192 153 192 153 183 c 0,16,17
 153 84 153 84 258 84 c 0,18,19
 341 84 341 84 397 161 c 1,20,-1
 470 101 l 1,21,22
 423 43 423 43 370 15.5 c 128,-1,23
 317 -12 317 -12 250 -12 c 0,0,1
169 291 m 1,24,25
 292 296 292 296 337.5 317 c 128,-1,26
 383 338 383 338 383 382 c 0,27,28
 383 443 383 443 309 443 c 0,29,30
 199 443 199 443 170 299 c 1,31,-1
 169 291 l 1,24,25
313 581 m 1,32,-1
 216 752 l 1,33,-1
 320 801 l 1,34,-1
 385 614 l 1,35,-1
 313 581 l 1,32,-1
EndSplineSet
EndChar

StartChar: eacute
Encoding: 233 233 168
Width: 513
Flags: W
LayerCount: 2
Fore
SplineSet
250 -12 m 0,0,1
 139 -12 139 -12 88.5 48.5 c 128,-1,2
 38 109 38 109 38 210 c 0,3,4
 38 285 38 285 69 359.5 c 128,-1,5
 100 434 100 434 162 484 c 128,-1,6
 224 534 224 534 317 534 c 0,7,8
 391 534 391 534 444 497 c 128,-1,9
 497 460 497 460 497 390 c 0,10,11
 497 304 497 304 411 261 c 128,-1,12
 325 218 325 218 156 213 c 1,13,-1
 155 203 l 2,14,15
 153 192 153 192 153 183 c 0,16,17
 153 84 153 84 258 84 c 0,18,19
 341 84 341 84 397 161 c 1,20,-1
 470 101 l 1,21,22
 423 43 423 43 370 15.5 c 128,-1,23
 317 -12 317 -12 250 -12 c 0,0,1
169 291 m 1,24,25
 292 296 292 296 337.5 317 c 128,-1,26
 383 338 383 338 383 382 c 0,27,28
 383 443 383 443 309 443 c 0,29,30
 199 443 199 443 170 299 c 1,31,-1
 169 291 l 1,24,25
350 581 m 1,32,-1
 280 619 l 1,33,-1
 393 802 l 1,34,-1
 488 751 l 1,35,-1
 350 581 l 1,32,-1
EndSplineSet
EndChar

StartChar: ecircumflex
Encoding: 234 234 169
Width: 513
Flags: W
LayerCount: 2
Fore
SplineSet
250 -12 m 0,0,1
 139 -12 139 -12 88.5 48.5 c 128,-1,2
 38 109 38 109 38 210 c 0,3,4
 38 285 38 285 69 359.5 c 128,-1,5
 100 434 100 434 162 484 c 128,-1,6
 224 534 224 534 317 534 c 0,7,8
 391 534 391 534 444 497 c 128,-1,9
 497 460 497 460 497 390 c 0,10,11
 497 304 497 304 411 261 c 128,-1,12
 325 218 325 218 156 213 c 1,13,-1
 155 203 l 2,14,15
 153 192 153 192 153 183 c 0,16,17
 153 84 153 84 258 84 c 0,18,19
 341 84 341 84 397 161 c 1,20,-1
 470 101 l 1,21,22
 423 43 423 43 370 15.5 c 128,-1,23
 317 -12 317 -12 250 -12 c 0,0,1
169 291 m 1,24,25
 292 296 292 296 337.5 317 c 128,-1,26
 383 338 383 338 383 382 c 0,27,28
 383 443 383 443 309 443 c 0,29,30
 199 443 199 443 170 299 c 1,31,-1
 169 291 l 1,24,25
450 583 m 1,32,-1
 353 699 l 1,33,-1
 217 584 l 1,34,-1
 159 631 l 1,35,-1
 308 783 l 1,36,-1
 419 783 l 1,37,-1
 513 631 l 1,38,-1
 450 583 l 1,32,-1
EndSplineSet
EndChar

StartChar: edieresis
Encoding: 235 235 170
Width: 513
Flags: W
LayerCount: 2
Fore
SplineSet
250 -12 m 0,0,1
 139 -12 139 -12 88.5 48.5 c 128,-1,2
 38 109 38 109 38 210 c 0,3,4
 38 285 38 285 69 359.5 c 128,-1,5
 100 434 100 434 162 484 c 128,-1,6
 224 534 224 534 317 534 c 0,7,8
 391 534 391 534 444 497 c 128,-1,9
 497 460 497 460 497 390 c 0,10,11
 497 304 497 304 411 261 c 128,-1,12
 325 218 325 218 156 213 c 1,13,-1
 155 203 l 2,14,15
 153 192 153 192 153 183 c 0,16,17
 153 84 153 84 258 84 c 0,18,19
 341 84 341 84 397 161 c 1,20,-1
 470 101 l 1,21,22
 423 43 423 43 370 15.5 c 128,-1,23
 317 -12 317 -12 250 -12 c 0,0,1
169 291 m 1,24,25
 292 296 292 296 337.5 317 c 128,-1,26
 383 338 383 338 383 382 c 0,27,28
 383 443 383 443 309 443 c 0,29,30
 199 443 199 443 170 299 c 1,31,-1
 169 291 l 1,24,25
241 607 m 0,32,33
 185 607 185 607 185 646 c 0,34,35
 185 740 185 740 266 740 c 0,36,37
 320 740 320 740 320 697 c 0,38,39
 320 607 320 607 241 607 c 0,32,33
434 607 m 0,40,41
 378 607 378 607 378 646 c 256,42,43
 378 685 378 685 395.5 712.5 c 128,-1,44
 413 740 413 740 458 740 c 0,45,46
 513 740 513 740 513 698 c 0,47,48
 513 607 513 607 434 607 c 0,40,41
EndSplineSet
EndChar

StartChar: igrave
Encoding: 236 236 171
Width: 274
Flags: W
LayerCount: 2
Fore
SplineSet
203 0 m 1,0,-1
 121 0 l 2,1,2
 79 0 79 0 59 20.5 c 128,-1,3
 39 41 39 41 39 74 c 0,4,5
 39 80 39 80 127 522 c 1,6,-1
 243 522 l 1,7,-1
 157 95 l 1,8,-1
 222 95 l 1,9,-1
 203 0 l 1,0,-1
179 581 m 1,10,-1
 82 752 l 1,11,-1
 186 801 l 1,12,-1
 251 614 l 1,13,-1
 179 581 l 1,10,-1
EndSplineSet
EndChar

StartChar: iacute
Encoding: 237 237 172
Width: 274
Flags: W
LayerCount: 2
Fore
SplineSet
203 0 m 1,0,-1
 121 0 l 2,1,2
 79 0 79 0 59 20.5 c 128,-1,3
 39 41 39 41 39 74 c 0,4,5
 39 80 39 80 127 522 c 1,6,-1
 243 522 l 1,7,-1
 157 95 l 1,8,-1
 222 95 l 1,9,-1
 203 0 l 1,0,-1
215 581 m 1,10,-1
 145 619 l 1,11,-1
 258 802 l 1,12,-1
 354 751 l 1,13,-1
 215 581 l 1,10,-1
EndSplineSet
EndChar

StartChar: icircumflex
Encoding: 238 238 173
Width: 274
Flags: W
LayerCount: 2
Fore
SplineSet
203 0 m 1,0,-1
 121 0 l 2,1,2
 79 0 79 0 59 20.5 c 128,-1,3
 39 41 39 41 39 74 c 0,4,5
 39 80 39 80 127 522 c 1,6,-1
 243 522 l 1,7,-1
 157 95 l 1,8,-1
 222 95 l 1,9,-1
 203 0 l 1,0,-1
315 583 m 1,10,-1
 219 699 l 1,11,-1
 83 584 l 1,12,-1
 25 631 l 1,13,-1
 174 783 l 1,14,-1
 285 783 l 1,15,-1
 378 631 l 1,16,-1
 315 583 l 1,10,-1
EndSplineSet
EndChar

StartChar: idieresis
Encoding: 239 239 174
Width: 274
Flags: W
LayerCount: 2
Fore
SplineSet
203 0 m 1,0,-1
 121 0 l 2,1,2
 79 0 79 0 59 20.5 c 128,-1,3
 39 41 39 41 39 74 c 0,4,5
 39 80 39 80 127 522 c 1,6,-1
 243 522 l 1,7,-1
 157 95 l 1,8,-1
 222 95 l 1,9,-1
 203 0 l 1,0,-1
107 607 m 0,10,11
 51 607 51 607 51 646 c 256,12,13
 51 685 51 685 68.5 712.5 c 128,-1,14
 86 740 86 740 131 740 c 0,15,16
 186 740 186 740 186 698 c 0,17,18
 186 607 186 607 107 607 c 0,10,11
299 607 m 0,19,20
 244 607 244 607 244 646 c 256,21,22
 244 685 244 685 261.5 712.5 c 128,-1,23
 279 740 279 740 324 740 c 0,24,25
 378 740 378 740 378 697 c 0,26,27
 378 607 378 607 299 607 c 0,19,20
EndSplineSet
EndChar

StartChar: eth
Encoding: 240 240 175
Width: 569
Flags: W
LayerCount: 2
Fore
SplineSet
240 -12 m 0,0,1
 138 -12 138 -12 88 48 c 128,-1,2
 38 108 38 108 38 206 c 0,3,4
 38 327 38 327 105.5 414 c 128,-1,5
 173 501 173 501 271 501 c 0,6,7
 373 501 373 501 406 404 c 1,8,-1
 413 405 l 1,9,10
 396 511 396 511 338 594 c 1,11,-1
 238 539 l 1,12,-1
 208 594 l 1,13,-1
 297 644 l 1,14,15
 237 705 237 705 180 740 c 1,16,-1
 344 740 l 1,17,18
 371 720 371 720 392 696 c 1,19,-1
 489 752 l 1,20,-1
 519 695 l 1,21,-1
 435 648 l 1,22,23
 526 524 526 524 526 349 c 0,24,25
 526 235 526 235 488.5 154 c 128,-1,26
 451 73 451 73 386 30.5 c 128,-1,27
 321 -12 321 -12 240 -12 c 0,0,1
250 81 m 0,28,29
 299 81 299 81 329 114 c 128,-1,30
 359 147 359 147 376.5 207 c 128,-1,31
 394 267 394 267 394 310 c 0,32,33
 394 405 394 405 298 408 c 0,34,35
 247 408 247 408 215 371.5 c 128,-1,36
 183 335 183 335 170 275 c 2,37,-1
 159 219 l 2,38,39
 154 197 154 197 154 179 c 0,40,41
 154 130 154 130 180 105.5 c 128,-1,42
 206 81 206 81 250 81 c 0,28,29
EndSplineSet
EndChar

StartChar: ntilde
Encoding: 241 241 176
Width: 578
Flags: W
LayerCount: 2
Fore
SplineSet
509 0 m 1,0,-1
 426 0 l 2,1,2
 350 2 350 2 350 69 c 0,3,4
 350 101 350 101 363 151 c 2,5,-1
 374 203 l 2,6,7
 403 326 403 326 403 369 c 0,8,9
 403 435 403 435 340 435 c 0,10,11
 304 435 304 435 273 411 c 128,-1,12
 242 387 242 387 221.5 351 c 128,-1,13
 201 315 201 315 194 277 c 2,14,-1
 139 0 l 1,15,-1
 23 0 l 1,16,-1
 127 522 l 1,17,-1
 243 522 l 1,18,-1
 220 407 l 1,19,-1
 226 407 l 1,20,21
 254 468 254 468 294.5 501 c 128,-1,22
 335 534 335 534 394 534 c 0,23,24
 461 534 461 534 491.5 495.5 c 128,-1,25
 522 457 522 457 522 395 c 0,26,27
 522 355 522 355 512 313 c 2,28,-1
 468 95 l 1,29,-1
 528 95 l 1,30,-1
 509 0 l 1,0,-1
436 605 m 0,31,32
 414 605 414 605 398.5 610.5 c 128,-1,33
 383 616 383 616 368 624 c 2,34,-1
 351 632 l 2,35,36
 316 651 316 651 291 651 c 0,37,38
 275 651 275 651 263 644.5 c 128,-1,39
 251 638 251 638 233 625 c 1,40,-1
 195 682 l 1,41,42
 241 741 241 741 304 741 c 0,43,44
 340 741 340 741 396 711 c 0,45,46
 425 696 425 696 449 696 c 0,47,48
 465 696 465 696 477 701.5 c 128,-1,49
 489 707 489 707 507 721 c 1,50,-1
 545 664 l 1,51,52
 498 605 498 605 436 605 c 0,31,32
EndSplineSet
EndChar

StartChar: ograve
Encoding: 242 242 177
Width: 546
Flags: W
LayerCount: 2
Fore
SplineSet
239 -12 m 0,0,1
 151 -12 151 -12 94.5 41 c 128,-1,2
 38 94 38 94 38 204 c 0,3,4
 38 288 38 288 70 363.5 c 128,-1,5
 102 439 102 439 162 486.5 c 128,-1,6
 222 534 222 534 307 534 c 0,7,8
 394 534 394 534 451 480.5 c 128,-1,9
 508 427 508 427 508 317 c 0,10,11
 508 178 508 178 430.5 83 c 128,-1,12
 353 -12 353 -12 239 -12 c 0,0,1
246 84 m 0,13,14
 344 84 344 84 373 225 c 2,15,-1
 389 301 l 2,16,17
 393 313 393 313 393 340 c 0,18,19
 392 384 392 384 369.5 410.5 c 128,-1,20
 347 437 347 437 300 437 c 0,21,22
 203 437 203 437 173 297 c 2,23,-1
 157 220 l 2,24,25
 153 204 153 204 153 182 c 0,26,27
 153 138 153 138 174.5 111 c 128,-1,28
 196 84 196 84 246 84 c 0,13,14
308 581 m 1,29,-1
 211 752 l 1,30,-1
 315 801 l 1,31,-1
 381 614 l 1,32,-1
 308 581 l 1,29,-1
EndSplineSet
EndChar

StartChar: oacute
Encoding: 243 243 178
Width: 546
Flags: W
LayerCount: 2
Fore
SplineSet
239 -12 m 0,0,1
 151 -12 151 -12 94.5 41 c 128,-1,2
 38 94 38 94 38 204 c 0,3,4
 38 288 38 288 70 363.5 c 128,-1,5
 102 439 102 439 162 486.5 c 128,-1,6
 222 534 222 534 307 534 c 0,7,8
 394 534 394 534 451 480.5 c 128,-1,9
 508 427 508 427 508 317 c 0,10,11
 508 178 508 178 430.5 83 c 128,-1,12
 353 -12 353 -12 239 -12 c 0,0,1
246 84 m 0,13,14
 344 84 344 84 373 225 c 2,15,-1
 389 301 l 2,16,17
 393 313 393 313 393 340 c 0,18,19
 392 384 392 384 369.5 410.5 c 128,-1,20
 347 437 347 437 300 437 c 0,21,22
 203 437 203 437 173 297 c 2,23,-1
 157 220 l 2,24,25
 153 204 153 204 153 182 c 0,26,27
 153 138 153 138 174.5 111 c 128,-1,28
 196 84 196 84 246 84 c 0,13,14
345 581 m 1,29,-1
 275 619 l 1,30,-1
 388 802 l 1,31,-1
 483 751 l 1,32,-1
 345 581 l 1,29,-1
EndSplineSet
EndChar

StartChar: ocircumflex
Encoding: 244 244 179
Width: 546
Flags: W
LayerCount: 2
Fore
SplineSet
239 -12 m 0,0,1
 151 -12 151 -12 94.5 41 c 128,-1,2
 38 94 38 94 38 204 c 0,3,4
 38 288 38 288 70 363.5 c 128,-1,5
 102 439 102 439 162 486.5 c 128,-1,6
 222 534 222 534 307 534 c 0,7,8
 394 534 394 534 451 480.5 c 128,-1,9
 508 427 508 427 508 317 c 0,10,11
 508 178 508 178 430.5 83 c 128,-1,12
 353 -12 353 -12 239 -12 c 0,0,1
246 84 m 0,13,14
 344 84 344 84 373 225 c 2,15,-1
 389 301 l 2,16,17
 393 313 393 313 393 340 c 0,18,19
 392 384 392 384 369.5 410.5 c 128,-1,20
 347 437 347 437 300 437 c 0,21,22
 203 437 203 437 173 297 c 2,23,-1
 157 220 l 2,24,25
 153 204 153 204 153 182 c 0,26,27
 153 138 153 138 174.5 111 c 128,-1,28
 196 84 196 84 246 84 c 0,13,14
445 583 m 1,29,-1
 349 699 l 1,30,-1
 213 584 l 1,31,-1
 155 631 l 1,32,-1
 303 783 l 1,33,-1
 415 783 l 1,34,-1
 508 631 l 1,35,-1
 445 583 l 1,29,-1
EndSplineSet
EndChar

StartChar: otilde
Encoding: 245 245 180
Width: 546
Flags: W
LayerCount: 2
Fore
SplineSet
239 -12 m 0,0,1
 151 -12 151 -12 94.5 41 c 128,-1,2
 38 94 38 94 38 204 c 0,3,4
 38 288 38 288 70 363.5 c 128,-1,5
 102 439 102 439 162 486.5 c 128,-1,6
 222 534 222 534 307 534 c 0,7,8
 394 534 394 534 451 480.5 c 128,-1,9
 508 427 508 427 508 317 c 0,10,11
 508 178 508 178 430.5 83 c 128,-1,12
 353 -12 353 -12 239 -12 c 0,0,1
246 84 m 0,13,14
 344 84 344 84 373 225 c 2,15,-1
 389 301 l 2,16,17
 393 313 393 313 393 340 c 0,18,19
 392 384 392 384 369.5 410.5 c 128,-1,20
 347 437 347 437 300 437 c 0,21,22
 203 437 203 437 173 297 c 2,23,-1
 157 220 l 2,24,25
 153 204 153 204 153 182 c 0,26,27
 153 138 153 138 174.5 111 c 128,-1,28
 196 84 196 84 246 84 c 0,13,14
410 605 m 0,29,30
 387 605 387 605 370.5 611 c 128,-1,31
 354 617 354 617 337 627 c 2,32,-1
 326 632 l 2,33,34
 290 651 290 651 266 651 c 0,35,36
 249 651 249 651 237 644.5 c 128,-1,37
 225 638 225 638 207 625 c 1,38,-1
 169 682 l 1,39,40
 215 741 215 741 278 741 c 0,41,42
 314 741 314 741 370 711 c 0,43,44
 399 696 399 696 423 696 c 0,45,46
 440 696 440 696 452 701.5 c 128,-1,47
 464 707 464 707 482 721 c 1,48,-1
 519 664 l 1,49,50
 472 605 472 605 410 605 c 0,29,30
EndSplineSet
EndChar

StartChar: odieresis
Encoding: 246 246 181
Width: 546
Flags: W
LayerCount: 2
Fore
SplineSet
239 -12 m 0,0,1
 151 -12 151 -12 94.5 41 c 128,-1,2
 38 94 38 94 38 204 c 0,3,4
 38 288 38 288 70 363.5 c 128,-1,5
 102 439 102 439 162 486.5 c 128,-1,6
 222 534 222 534 307 534 c 0,7,8
 394 534 394 534 451 480.5 c 128,-1,9
 508 427 508 427 508 317 c 0,10,11
 508 178 508 178 430.5 83 c 128,-1,12
 353 -12 353 -12 239 -12 c 0,0,1
246 84 m 0,13,14
 344 84 344 84 373 225 c 2,15,-1
 389 301 l 2,16,17
 393 313 393 313 393 340 c 0,18,19
 392 384 392 384 369.5 410.5 c 128,-1,20
 347 437 347 437 300 437 c 0,21,22
 203 437 203 437 173 297 c 2,23,-1
 157 220 l 2,24,25
 153 204 153 204 153 182 c 0,26,27
 153 138 153 138 174.5 111 c 128,-1,28
 196 84 196 84 246 84 c 0,13,14
236 607 m 0,29,30
 181 607 181 607 181 646 c 256,31,32
 181 685 181 685 198.5 712.5 c 128,-1,33
 216 740 216 740 261 740 c 0,34,35
 315 740 315 740 315 697 c 0,36,37
 315 607 315 607 236 607 c 0,29,30
429 607 m 0,38,39
 373 607 373 607 373 646 c 0,40,41
 373 740 373 740 454 740 c 0,42,43
 508 740 508 740 508 697 c 0,44,45
 508 607 508 607 429 607 c 0,38,39
EndSplineSet
EndChar

StartChar: divide
Encoding: 247 247 182
Width: 600
Flags: W
LayerCount: 2
Fore
SplineSet
528 257 m 1,0,-1
 70 257 l 1,1,-1
 90 355 l 1,2,-1
 548 355 l 1,3,-1
 528 257 l 1,0,-1
259 38 m 0,4,5
 193 38 193 38 193 80 c 2,6,-1
 193 83 l 2,7,8
 193 183 193 183 282 183 c 0,9,10
 317 183 317 183 332.5 170 c 128,-1,11
 348 157 348 157 348 137 c 0,12,13
 348 38 348 38 259 38 c 0,4,5
336 428 m 0,14,15
 270 428 270 428 270 473 c 0,16,17
 270 573 270 573 359 573 c 0,18,19
 394 573 394 573 409.5 560 c 128,-1,20
 425 547 425 547 425 527 c 0,21,22
 425 428 425 428 336 428 c 0,14,15
EndSplineSet
EndChar

StartChar: oslash
Encoding: 248 248 183
Width: 546
Flags: W
LayerCount: 2
Fore
SplineSet
32 -42 m 1,0,-1
 -27 12 l 1,1,-1
 58 100 l 1,2,3
 38 140 38 140 38 204 c 0,4,5
 38 284 38 284 69 359.5 c 128,-1,6
 100 435 100 435 160.5 484.5 c 128,-1,7
 221 534 221 534 308 534 c 0,8,9
 388 534 388 534 441 488 c 1,10,-1
 514 564 l 1,11,-1
 573 510 l 1,12,-1
 488 422 l 1,13,14
 508 376 508 376 508 317 c 0,15,16
 508 227 508 227 473.5 152.5 c 128,-1,17
 439 78 439 78 378 33 c 128,-1,18
 317 -12 317 -12 238 -12 c 256,19,20
 159 -12 159 -12 105 33 c 1,21,-1
 32 -42 l 1,0,-1
245 81 m 0,22,23
 299 81 299 81 335 130 c 0,24,25
 374 185 374 185 389 298 c 2,26,-1
 392 323 l 1,27,-1
 391 326 l 1,28,-1
 392 329 l 1,29,-1
 175 110 l 1,30,31
 200 81 200 81 245 81 c 0,22,23
155 192 m 1,32,-1
 371 412 l 1,33,34
 345 441 345 441 301 441 c 256,35,36
 257 441 257 441 222.5 407.5 c 128,-1,37
 188 374 188 374 173 305 c 2,38,-1
 163 254 l 2,39,40
 158 233 158 233 157.5 219.5 c 128,-1,41
 157 206 157 206 155 192 c 1,32,-1
EndSplineSet
EndChar

StartChar: ugrave
Encoding: 249 249 184
Width: 574
Flags: W
LayerCount: 2
Fore
SplineSet
176 -12 m 0,0,1
 110 -12 110 -12 79.5 26 c 128,-1,2
 49 64 49 64 49 127 c 0,3,4
 49 162 49 162 57 199 c 2,5,-1
 121 522 l 1,6,-1
 237 522 l 1,7,-1
 175 207 l 2,8,9
 168 179 168 179 168 154 c 0,10,11
 168 87 168 87 228 87 c 0,12,13
 279 87 279 87 318.5 136.5 c 128,-1,14
 358 186 358 186 371 246 c 2,15,-1
 427 522 l 1,16,-1
 543 522 l 1,17,-1
 457 95 l 1,18,-1
 521 95 l 1,19,-1
 503 0 l 1,20,-1
 418 0 l 1,21,22
 340 4 340 4 340 72 c 0,23,24
 340 85 340 85 344 106 c 2,25,-1
 345 115 l 1,26,-1
 340 115 l 1,27,28
 309 50 309 50 270 19 c 128,-1,29
 231 -12 231 -12 176 -12 c 0,0,1
323 581 m 1,30,-1
 226 752 l 1,31,-1
 330 801 l 1,32,-1
 396 614 l 1,33,-1
 323 581 l 1,30,-1
EndSplineSet
EndChar

StartChar: uacute
Encoding: 250 250 185
Width: 574
Flags: W
LayerCount: 2
Fore
SplineSet
176 -12 m 0,0,1
 110 -12 110 -12 79.5 26 c 128,-1,2
 49 64 49 64 49 127 c 0,3,4
 49 162 49 162 57 199 c 2,5,-1
 121 522 l 1,6,-1
 237 522 l 1,7,-1
 175 207 l 2,8,9
 168 179 168 179 168 154 c 0,10,11
 168 87 168 87 228 87 c 0,12,13
 279 87 279 87 318.5 136.5 c 128,-1,14
 358 186 358 186 371 246 c 2,15,-1
 427 522 l 1,16,-1
 543 522 l 1,17,-1
 457 95 l 1,18,-1
 521 95 l 1,19,-1
 503 0 l 1,20,-1
 418 0 l 1,21,22
 340 4 340 4 340 72 c 0,23,24
 340 85 340 85 344 106 c 2,25,-1
 345 115 l 1,26,-1
 340 115 l 1,27,28
 309 50 309 50 270 19 c 128,-1,29
 231 -12 231 -12 176 -12 c 0,0,1
360 581 m 1,30,-1
 290 619 l 1,31,-1
 403 802 l 1,32,-1
 498 751 l 1,33,-1
 360 581 l 1,30,-1
EndSplineSet
EndChar

StartChar: ucircumflex
Encoding: 251 251 186
Width: 574
Flags: W
LayerCount: 2
Fore
SplineSet
176 -12 m 0,0,1
 110 -12 110 -12 79.5 26 c 128,-1,2
 49 64 49 64 49 127 c 0,3,4
 49 162 49 162 57 199 c 2,5,-1
 121 522 l 1,6,-1
 237 522 l 1,7,-1
 175 207 l 2,8,9
 168 179 168 179 168 154 c 0,10,11
 168 87 168 87 228 87 c 0,12,13
 279 87 279 87 318.5 136.5 c 128,-1,14
 358 186 358 186 371 246 c 2,15,-1
 427 522 l 1,16,-1
 543 522 l 1,17,-1
 457 95 l 1,18,-1
 521 95 l 1,19,-1
 503 0 l 1,20,-1
 418 0 l 1,21,22
 340 4 340 4 340 72 c 0,23,24
 340 85 340 85 344 106 c 2,25,-1
 345 115 l 1,26,-1
 340 115 l 1,27,28
 309 50 309 50 270 19 c 128,-1,29
 231 -12 231 -12 176 -12 c 0,0,1
460 583 m 1,30,-1
 364 699 l 1,31,-1
 228 584 l 1,32,-1
 170 631 l 1,33,-1
 318 783 l 1,34,-1
 430 783 l 1,35,-1
 523 631 l 1,36,-1
 460 583 l 1,30,-1
EndSplineSet
EndChar

StartChar: udieresis
Encoding: 252 252 187
Width: 574
Flags: W
LayerCount: 2
Fore
SplineSet
176 -12 m 0,0,1
 110 -12 110 -12 79.5 26 c 128,-1,2
 49 64 49 64 49 127 c 0,3,4
 49 162 49 162 57 199 c 2,5,-1
 121 522 l 1,6,-1
 237 522 l 1,7,-1
 175 207 l 2,8,9
 168 179 168 179 168 154 c 0,10,11
 168 87 168 87 228 87 c 0,12,13
 279 87 279 87 318.5 136.5 c 128,-1,14
 358 186 358 186 371 246 c 2,15,-1
 427 522 l 1,16,-1
 543 522 l 1,17,-1
 457 95 l 1,18,-1
 521 95 l 1,19,-1
 503 0 l 1,20,-1
 418 0 l 1,21,22
 340 4 340 4 340 72 c 0,23,24
 340 85 340 85 344 106 c 2,25,-1
 345 115 l 1,26,-1
 340 115 l 1,27,28
 309 50 309 50 270 19 c 128,-1,29
 231 -12 231 -12 176 -12 c 0,0,1
251 607 m 0,30,31
 196 607 196 607 196 646 c 256,32,33
 196 685 196 685 213.5 712.5 c 128,-1,34
 231 740 231 740 276 740 c 0,35,36
 330 740 330 740 330 697 c 0,37,38
 330 607 330 607 251 607 c 0,30,31
444 607 m 0,39,40
 388 607 388 607 388 646 c 0,41,42
 388 740 388 740 469 740 c 0,43,44
 523 740 523 740 523 697 c 0,45,46
 523 607 523 607 444 607 c 0,39,40
EndSplineSet
EndChar

StartChar: yacute
Encoding: 253 253 188
Width: 500
Flags: W
LayerCount: 2
Fore
SplineSet
53 -200 m 2,0,-1
 -26 -200 l 1,1,-1
 -7 -105 l 1,2,-1
 89 -105 l 1,3,-1
 131 -25 l 1,4,-1
 54 522 l 1,5,-1
 168 522 l 1,6,-1
 185 381 l 2,7,8
 190 345 190 345 192.5 322 c 128,-1,9
 195 299 195 299 213 109 c 1,10,-1
 219 109 l 1,11,-1
 301 284 l 2,12,13
 316 318 316 318 352 388 c 2,14,-1
 419 522 l 1,15,-1
 543 522 l 1,16,-1
 210 -97 l 2,17,18
 182 -151 182 -151 147.5 -175.5 c 128,-1,19
 113 -200 113 -200 53 -200 c 2,0,-1
317 581 m 1,20,-1
 247 619 l 1,21,-1
 360 802 l 1,22,-1
 455 751 l 1,23,-1
 317 581 l 1,20,-1
EndSplineSet
EndChar

StartChar: thorn
Encoding: 254 254 189
Width: 580
Flags: W
LayerCount: 2
Fore
SplineSet
99 -200 m 1,0,-1
 -17 -200 l 1,1,-1
 171 740 l 1,2,-1
 287 740 l 1,3,-1
 220 404 l 1,4,-1
 224 404 l 1,5,6
 253 467 253 467 293 500.5 c 128,-1,7
 333 534 333 534 394 534 c 0,8,9
 468 534 468 534 504.5 481 c 128,-1,10
 541 428 541 428 541 346 c 0,11,12
 541 249 541 249 509 167.5 c 128,-1,13
 477 86 477 86 421 37 c 128,-1,14
 365 -12 365 -12 293 -12 c 0,15,16
 242 -12 242 -12 206 13 c 128,-1,17
 170 38 170 38 161 88 c 1,18,-1
 156 88 l 1,19,-1
 99 -200 l 1,0,-1
269 86 m 0,20,21
 377 86 377 86 402 218 c 0,22,23
 406 245 406 245 411 268 c 0,24,25
 422 303 422 303 422 345 c 0,26,27
 421 384 421 384 402.5 410 c 128,-1,28
 384 436 384 436 344 436 c 0,29,30
 291 436 291 436 250 389.5 c 128,-1,31
 209 343 209 343 194 275 c 2,32,-1
 174 174 l 1,33,34
 174 151 174 151 179 135 c 128,-1,35
 184 119 184 119 199 107 c 0,36,37
 224 86 224 86 269 86 c 0,20,21
EndSplineSet
EndChar

StartChar: ydieresis
Encoding: 255 255 190
Width: 500
Flags: W
LayerCount: 2
Fore
SplineSet
53 -200 m 2,0,-1
 -26 -200 l 1,1,-1
 -7 -105 l 1,2,-1
 89 -105 l 1,3,-1
 131 -25 l 1,4,-1
 54 522 l 1,5,-1
 168 522 l 1,6,-1
 185 381 l 2,7,8
 190 345 190 345 192.5 322 c 128,-1,9
 195 299 195 299 213 109 c 1,10,-1
 219 109 l 1,11,-1
 301 284 l 2,12,13
 316 318 316 318 352 388 c 2,14,-1
 419 522 l 1,15,-1
 543 522 l 1,16,-1
 210 -97 l 2,17,18
 182 -151 182 -151 147.5 -175.5 c 128,-1,19
 113 -200 113 -200 53 -200 c 2,0,-1
208 607 m 0,20,21
 153 607 153 607 153 646 c 256,22,23
 153 685 153 685 170.5 712.5 c 128,-1,24
 188 740 188 740 233 740 c 0,25,26
 287 740 287 740 287 697 c 0,27,28
 287 607 287 607 208 607 c 0,20,21
401 607 m 0,29,30
 345 607 345 607 345 646 c 0,31,32
 345 740 345 740 426 740 c 0,33,34
 480 740 480 740 480 697 c 0,35,36
 480 607 480 607 401 607 c 0,29,30
EndSplineSet
EndChar

StartChar: Amacron
Encoding: 256 256 191
Width: 645
Flags: W
LayerCount: 2
Fore
SplineSet
573 0 m 1,0,-1
 450 0 l 1,1,-1
 430 183 l 1,2,-1
 189 183 l 1,3,-1
 97 0 l 1,4,-1
 -32 0 l 1,5,-1
 333 698 l 1,6,-1
 488 698 l 1,7,-1
 573 0 l 1,0,-1
421 286 m 1,8,-1
 392 588 l 1,9,-1
 385 588 l 1,10,-1
 238 286 l 1,11,-1
 421 286 l 1,8,-1
562 795 m 1,12,-1
 286 795 l 1,13,-1
 304 883 l 1,14,-1
 579 883 l 1,15,-1
 562 795 l 1,12,-1
EndSplineSet
EndChar

StartChar: amacron
Encoding: 257 257 192
Width: 588
Flags: W
LayerCount: 2
Fore
SplineSet
185 -12 m 0,0,1
 149 -12 149 -12 121.5 2 c 128,-1,2
 94 16 94 16 75.5 40.5 c 128,-1,3
 57 65 57 65 47.5 99.5 c 128,-1,4
 38 134 38 134 38 176 c 0,5,6
 38 244 38 244 55 308.5 c 128,-1,7
 72 373 72 373 103.5 422.5 c 128,-1,8
 135 472 135 472 181.5 503 c 128,-1,9
 228 534 228 534 286 534 c 0,10,11
 337 534 337 534 373.5 506 c 128,-1,12
 410 478 410 478 418 433 c 1,13,-1
 423 433 l 1,14,-1
 440 522 l 1,15,-1
 556 522 l 1,16,-1
 471 95 l 1,17,-1
 535 95 l 1,18,-1
 516 0 l 1,19,-1
 433 0 l 2,20,21
 360 2 360 2 354 62 c 2,22,-1
 353 76 l 1,23,24
 356 105 356 105 359 118 c 1,25,-1
 355 118 l 1,26,27
 324 54 324 54 285.5 21 c 128,-1,28
 247 -12 247 -12 185 -12 c 0,0,1
235 86 m 0,29,30
 286 86 286 86 328 132 c 128,-1,31
 370 178 370 178 385 247 c 2,32,-1
 396 304 l 2,33,34
 406 352 406 352 406 359 c 0,35,36
 406 390 406 390 381 413 c 128,-1,37
 356 436 356 436 310 436 c 0,38,39
 204 436 204 436 177 304 c 2,40,-1
 170 270 l 2,41,42
 157 216 157 216 157 177 c 0,43,44
 159 86 159 86 235 86 c 0,29,30
488 630 m 1,45,-1
 212 630 l 1,46,-1
 230 718 l 1,47,-1
 506 718 l 1,48,-1
 488 630 l 1,45,-1
EndSplineSet
EndChar

StartChar: Abreve
Encoding: 258 258 193
Width: 645
Flags: W
LayerCount: 2
Fore
SplineSet
573 0 m 1,0,-1
 450 0 l 1,1,-1
 430 183 l 1,2,-1
 189 183 l 1,3,-1
 97 0 l 1,4,-1
 -32 0 l 1,5,-1
 333 698 l 1,6,-1
 488 698 l 1,7,-1
 573 0 l 1,0,-1
421 286 m 1,8,-1
 392 588 l 1,9,-1
 385 588 l 1,10,-1
 238 286 l 1,11,-1
 421 286 l 1,8,-1
420 750 m 0,12,13
 371 750 371 750 338.5 773 c 128,-1,14
 306 796 306 796 288 831 c 128,-1,15
 270 866 270 866 265 906 c 1,16,-1
 332 940 l 1,17,-1
 341 920 l 2,18,19
 359 877 359 877 376.5 856 c 128,-1,20
 394 835 394 835 426 835 c 0,21,22
 461 835 461 835 485 859.5 c 128,-1,23
 509 884 509 884 542 932 c 2,24,-1
 548 940 l 1,25,-1
 618 904 l 1,26,27
 599 863 599 863 570.5 828.5 c 128,-1,28
 542 794 542 794 504.5 772 c 128,-1,29
 467 750 467 750 420 750 c 0,12,13
EndSplineSet
EndChar

StartChar: abreve
Encoding: 259 259 194
Width: 588
Flags: W
LayerCount: 2
Fore
SplineSet
185 -12 m 0,0,1
 149 -12 149 -12 121.5 2 c 128,-1,2
 94 16 94 16 75.5 40.5 c 128,-1,3
 57 65 57 65 47.5 99.5 c 128,-1,4
 38 134 38 134 38 176 c 0,5,6
 38 244 38 244 55 308.5 c 128,-1,7
 72 373 72 373 103.5 422.5 c 128,-1,8
 135 472 135 472 181.5 503 c 128,-1,9
 228 534 228 534 286 534 c 0,10,11
 337 534 337 534 373.5 506 c 128,-1,12
 410 478 410 478 418 433 c 1,13,-1
 423 433 l 1,14,-1
 440 522 l 1,15,-1
 556 522 l 1,16,-1
 471 95 l 1,17,-1
 535 95 l 1,18,-1
 516 0 l 1,19,-1
 433 0 l 2,20,21
 360 2 360 2 354 62 c 2,22,-1
 353 76 l 1,23,24
 356 105 356 105 359 118 c 1,25,-1
 355 118 l 1,26,27
 324 54 324 54 285.5 21 c 128,-1,28
 247 -12 247 -12 185 -12 c 0,0,1
235 86 m 0,29,30
 286 86 286 86 328 132 c 128,-1,31
 370 178 370 178 385 247 c 2,32,-1
 396 304 l 2,33,34
 406 352 406 352 406 359 c 0,35,36
 406 390 406 390 381 413 c 128,-1,37
 356 436 356 436 310 436 c 0,38,39
 204 436 204 436 177 304 c 2,40,-1
 170 270 l 2,41,42
 157 216 157 216 157 177 c 0,43,44
 159 86 159 86 235 86 c 0,29,30
346 586 m 0,45,46
 297 586 297 586 264.5 609.5 c 128,-1,47
 232 633 232 633 214 668.5 c 128,-1,48
 196 704 196 704 191 742 c 1,49,-1
 258 776 l 1,50,-1
 270 748 l 2,51,52
 287 710 287 710 303.5 691 c 128,-1,53
 320 672 320 672 352 672 c 0,54,55
 383 672 383 672 406 694 c 128,-1,56
 429 716 429 716 463 762 c 2,57,-1
 474 776 l 1,58,-1
 544 740 l 1,59,60
 469 586 469 586 346 586 c 0,45,46
EndSplineSet
EndChar

StartChar: Aogonek
Encoding: 260 260 195
Width: 645
Flags: W
LayerCount: 2
Fore
SplineSet
475 -210 m 0,0,1
 434 -210 434 -210 399.5 -191.5 c 128,-1,2
 365 -173 365 -173 365 -130 c 0,3,4
 365 -46 365 -46 497 -5 c 1,5,-1
 496 0 l 1,6,-1
 450 0 l 1,7,-1
 430 183 l 1,8,-1
 189 183 l 1,9,-1
 97 0 l 1,10,-1
 -32 0 l 1,11,-1
 333 698 l 1,12,-1
 488 698 l 1,13,-1
 573 0 l 1,14,15
 500 -46 500 -46 477 -70.5 c 128,-1,16
 454 -95 454 -95 454 -115 c 0,17,18
 454 -145 454 -145 488 -145 c 256,19,20
 522 -145 522 -145 542 -118 c 1,21,-1
 589 -165 l 1,22,23
 553 -210 553 -210 475 -210 c 0,0,1
421 286 m 1,24,-1
 392 588 l 1,25,-1
 385 588 l 1,26,-1
 238 286 l 1,27,-1
 421 286 l 1,24,-1
EndSplineSet
EndChar

StartChar: aogonek
Encoding: 261 261 196
Width: 588
Flags: W
LayerCount: 2
Fore
SplineSet
419 -210 m 0,0,1
 374 -210 374 -210 341 -190 c 128,-1,2
 308 -170 308 -170 308 -130 c 0,3,4
 308 -47 308 -47 441 -5 c 1,5,-1
 441 -2 l 1,6,7
 440 -2 440 -2 440 0 c 1,8,9
 365 0 365 0 356 57 c 0,10,11
 354 70 354 70 354 82 c 0,12,13
 355 100 355 100 359 118 c 1,14,-1
 355 118 l 1,15,16
 323 53 323 53 285 20.5 c 128,-1,17
 247 -12 247 -12 185 -12 c 0,18,19
 149 -12 149 -12 121.5 2 c 128,-1,20
 94 16 94 16 75.5 40.5 c 128,-1,21
 57 65 57 65 47.5 99.5 c 128,-1,22
 38 134 38 134 38 176 c 0,23,24
 38 244 38 244 55 309 c 128,-1,25
 72 374 72 374 104 423.5 c 128,-1,26
 136 473 136 473 182 503.5 c 128,-1,27
 228 534 228 534 286 534 c 0,28,29
 339 534 339 534 374.5 506 c 128,-1,30
 410 478 410 478 418 433 c 1,31,-1
 423 433 l 1,32,-1
 440 522 l 1,33,-1
 556 522 l 1,34,-1
 471 95 l 1,35,-1
 535 95 l 1,36,-1
 516 0 l 1,37,38
 441 -48 441 -48 419.5 -70.5 c 128,-1,39
 398 -93 398 -93 398 -115 c 0,40,41
 398 -145 398 -145 432 -145 c 0,42,43
 464 -145 464 -145 486 -118 c 1,44,-1
 532 -165 l 1,45,46
 496 -210 496 -210 419 -210 c 0,0,1
235 86 m 0,47,48
 289 86 289 86 330 133.5 c 128,-1,49
 371 181 371 181 385 247 c 2,50,-1
 396 304 l 2,51,52
 406 352 406 352 406 359 c 0,53,54
 406 390 406 390 380.5 413 c 128,-1,55
 355 436 355 436 310 436 c 0,56,57
 202 436 202 436 177 304 c 2,58,-1
 162 229 l 2,59,60
 157 199 157 199 157 177 c 0,61,62
 159 86 159 86 235 86 c 0,47,48
EndSplineSet
EndChar

StartChar: Cacute
Encoding: 262 262 197
Width: 622
Flags: W
LayerCount: 2
Fore
SplineSet
300 -12 m 0,0,1
 192 -12 192 -12 124 59 c 128,-1,2
 56 130 56 130 56 270 c 0,3,4
 56 387 56 387 100 487.5 c 128,-1,5
 144 588 144 588 222.5 649 c 128,-1,6
 301 710 301 710 406 710 c 0,7,8
 585 710 585 710 637 544 c 1,9,-1
 529 498 l 1,10,11
 515 548 515 548 484.5 575 c 128,-1,12
 454 602 454 602 396 602 c 0,13,14
 317 602 317 602 269.5 550 c 128,-1,15
 222 498 222 498 206 414 c 2,16,-1
 183 302 l 2,17,18
 177 270 177 270 177 246 c 0,19,20
 177 176 177 176 209.5 136 c 128,-1,21
 242 96 242 96 310 96 c 0,22,23
 370 96 370 96 410 125 c 128,-1,24
 450 154 450 154 478 210 c 1,25,-1
 578 163 l 1,26,27
 489 -12 489 -12 300 -12 c 0,0,1
436 746 m 1,28,-1
 366 784 l 1,29,-1
 479 966 l 1,30,-1
 574 916 l 1,31,-1
 436 746 l 1,28,-1
EndSplineSet
EndChar

StartChar: cacute
Encoding: 263 263 198
Width: 492
Flags: W
LayerCount: 2
Fore
SplineSet
237 -12 m 0,0,1
 151 -12 151 -12 94.5 42 c 128,-1,2
 38 96 38 96 38 209 c 0,3,4
 38 300 38 300 72.5 373.5 c 128,-1,5
 107 447 107 447 168 490.5 c 128,-1,6
 229 534 229 534 307 534 c 0,7,8
 381 534 381 534 428 498.5 c 128,-1,9
 475 463 475 463 489 404 c 1,10,-1
 391 365 l 1,11,12
 380 401 380 401 360.5 419 c 128,-1,13
 341 437 341 437 301 437 c 0,14,15
 200 437 200 437 176 313 c 2,16,-1
 158 226 l 2,17,18
 153 201 153 201 153 183 c 0,19,20
 153 84 153 84 248 84 c 0,21,22
 285 84 285 84 311 106 c 128,-1,23
 337 128 337 128 362 174 c 1,24,-1
 451 132 l 1,25,26
 382 -12 382 -12 237 -12 c 0,0,1
338 581 m 1,27,-1
 268 619 l 1,28,-1
 381 802 l 1,29,-1
 476 751 l 1,30,-1
 338 581 l 1,27,-1
EndSplineSet
EndChar

StartChar: Ccircumflex
Encoding: 264 264 199
Width: 622
Flags: W
LayerCount: 2
Fore
SplineSet
300 -12 m 0,0,1
 192 -12 192 -12 124 59 c 128,-1,2
 56 130 56 130 56 270 c 0,3,4
 56 387 56 387 100 487.5 c 128,-1,5
 144 588 144 588 222.5 649 c 128,-1,6
 301 710 301 710 406 710 c 0,7,8
 585 710 585 710 637 544 c 1,9,-1
 529 498 l 1,10,11
 515 548 515 548 484.5 575 c 128,-1,12
 454 602 454 602 396 602 c 0,13,14
 317 602 317 602 269.5 550 c 128,-1,15
 222 498 222 498 206 414 c 2,16,-1
 183 302 l 2,17,18
 177 270 177 270 177 246 c 0,19,20
 177 176 177 176 209.5 136 c 128,-1,21
 242 96 242 96 310 96 c 0,22,23
 370 96 370 96 410 125 c 128,-1,24
 450 154 450 154 478 210 c 1,25,-1
 578 163 l 1,26,27
 489 -12 489 -12 300 -12 c 0,0,1
305 747 m 1,28,-1
 247 795 l 1,29,-1
 396 947 l 1,30,-1
 507 947 l 1,31,-1
 601 795 l 1,32,-1
 538 748 l 1,33,-1
 441 863 l 1,34,-1
 305 747 l 1,28,-1
EndSplineSet
EndChar

StartChar: ccircumflex
Encoding: 265 265 200
Width: 492
Flags: W
LayerCount: 2
Fore
SplineSet
237 -12 m 0,0,1
 151 -12 151 -12 94.5 42 c 128,-1,2
 38 96 38 96 38 209 c 0,3,4
 38 300 38 300 72.5 373.5 c 128,-1,5
 107 447 107 447 168 490.5 c 128,-1,6
 229 534 229 534 307 534 c 0,7,8
 381 534 381 534 428 498.5 c 128,-1,9
 475 463 475 463 489 404 c 1,10,-1
 391 365 l 1,11,12
 380 401 380 401 360.5 419 c 128,-1,13
 341 437 341 437 301 437 c 0,14,15
 200 437 200 437 176 313 c 2,16,-1
 158 226 l 2,17,18
 153 201 153 201 153 183 c 0,19,20
 153 84 153 84 248 84 c 0,21,22
 285 84 285 84 311 106 c 128,-1,23
 337 128 337 128 362 174 c 1,24,-1
 451 132 l 1,25,26
 382 -12 382 -12 237 -12 c 0,0,1
438 583 m 1,27,-1
 341 699 l 1,28,-1
 205 584 l 1,29,-1
 147 631 l 1,30,-1
 296 783 l 1,31,-1
 407 783 l 1,32,-1
 501 631 l 1,33,-1
 438 583 l 1,27,-1
EndSplineSet
EndChar

StartChar: Cdot
Encoding: 266 266 201
Width: 622
Flags: W
LayerCount: 2
Fore
SplineSet
300 -12 m 0,0,1
 192 -12 192 -12 124 59 c 128,-1,2
 56 130 56 130 56 270 c 0,3,4
 56 387 56 387 100 487.5 c 128,-1,5
 144 588 144 588 222.5 649 c 128,-1,6
 301 710 301 710 406 710 c 0,7,8
 585 710 585 710 637 544 c 1,9,-1
 529 498 l 1,10,11
 515 548 515 548 484.5 575 c 128,-1,12
 454 602 454 602 396 602 c 0,13,14
 317 602 317 602 269.5 550 c 128,-1,15
 222 498 222 498 206 414 c 2,16,-1
 183 302 l 2,17,18
 177 270 177 270 177 246 c 0,19,20
 177 176 177 176 209.5 136 c 128,-1,21
 242 96 242 96 310 96 c 0,22,23
 370 96 370 96 410 125 c 128,-1,24
 450 154 450 154 478 210 c 1,25,-1
 578 163 l 1,26,27
 489 -12 489 -12 300 -12 c 0,0,1
425 765 m 0,28,29
 363 765 363 765 363 815 c 0,30,31
 363 853 363 853 379 881 c 128,-1,32
 395 909 395 909 448 909 c 0,33,34
 483 909 483 909 496.5 896 c 128,-1,35
 510 883 510 883 510 856 c 0,36,37
 510 851 510 851 509 847.5 c 128,-1,38
 508 844 508 844 508 840 c 0,39,40
 504 765 504 765 425 765 c 0,28,29
EndSplineSet
EndChar

StartChar: cdot
Encoding: 267 267 202
Width: 492
Flags: W
LayerCount: 2
Fore
SplineSet
237 -12 m 0,0,1
 151 -12 151 -12 94.5 42 c 128,-1,2
 38 96 38 96 38 209 c 0,3,4
 38 300 38 300 72.5 373.5 c 128,-1,5
 107 447 107 447 168 490.5 c 128,-1,6
 229 534 229 534 307 534 c 0,7,8
 381 534 381 534 428 498.5 c 128,-1,9
 475 463 475 463 489 404 c 1,10,-1
 391 365 l 1,11,12
 380 401 380 401 360.5 419 c 128,-1,13
 341 437 341 437 301 437 c 0,14,15
 200 437 200 437 176 313 c 2,16,-1
 158 226 l 2,17,18
 153 201 153 201 153 183 c 0,19,20
 153 84 153 84 248 84 c 0,21,22
 285 84 285 84 311 106 c 128,-1,23
 337 128 337 128 362 174 c 1,24,-1
 451 132 l 1,25,26
 382 -12 382 -12 237 -12 c 0,0,1
326 600 m 0,27,28
 264 600 264 600 264 650 c 0,29,30
 264 688 264 688 280 716 c 128,-1,31
 296 744 296 744 349 744 c 0,32,33
 384 744 384 744 397.5 731 c 128,-1,34
 411 718 411 718 411 691 c 0,35,36
 411 687 411 687 410 683 c 128,-1,37
 409 679 409 679 409 676 c 0,38,39
 406 600 406 600 326 600 c 0,27,28
EndSplineSet
EndChar

StartChar: Ccaron
Encoding: 268 268 203
Width: 622
Flags: W
LayerCount: 2
Fore
SplineSet
300 -12 m 0,0,1
 192 -12 192 -12 124 59 c 128,-1,2
 56 130 56 130 56 270 c 0,3,4
 56 387 56 387 100 487.5 c 128,-1,5
 144 588 144 588 222.5 649 c 128,-1,6
 301 710 301 710 406 710 c 0,7,8
 585 710 585 710 637 544 c 1,9,-1
 529 498 l 1,10,11
 515 548 515 548 484.5 575 c 128,-1,12
 454 602 454 602 396 602 c 0,13,14
 317 602 317 602 269.5 550 c 128,-1,15
 222 498 222 498 206 414 c 2,16,-1
 183 302 l 2,17,18
 177 270 177 270 177 246 c 0,19,20
 177 176 177 176 209.5 136 c 128,-1,21
 242 96 242 96 310 96 c 0,22,23
 370 96 370 96 410 125 c 128,-1,24
 450 154 450 154 478 210 c 1,25,-1
 578 163 l 1,26,27
 489 -12 489 -12 300 -12 c 0,0,1
477 756 m 1,28,-1
 366 756 l 1,29,-1
 271 909 l 1,30,-1
 334 956 l 1,31,-1
 428 841 l 1,32,-1
 566 956 l 1,33,-1
 626 909 l 1,34,-1
 477 756 l 1,28,-1
EndSplineSet
EndChar

StartChar: ccaron
Encoding: 269 269 204
Width: 492
Flags: W
LayerCount: 2
Fore
SplineSet
237 -12 m 0,0,1
 151 -12 151 -12 94.5 42 c 128,-1,2
 38 96 38 96 38 209 c 0,3,4
 38 300 38 300 72.5 373.5 c 128,-1,5
 107 447 107 447 168 490.5 c 128,-1,6
 229 534 229 534 307 534 c 0,7,8
 381 534 381 534 428 498.5 c 128,-1,9
 475 463 475 463 489 404 c 1,10,-1
 391 365 l 1,11,12
 380 401 380 401 360.5 419 c 128,-1,13
 341 437 341 437 301 437 c 0,14,15
 200 437 200 437 176 313 c 2,16,-1
 158 226 l 2,17,18
 153 201 153 201 153 183 c 0,19,20
 153 84 153 84 248 84 c 0,21,22
 285 84 285 84 311 106 c 128,-1,23
 337 128 337 128 362 174 c 1,24,-1
 451 132 l 1,25,26
 382 -12 382 -12 237 -12 c 0,0,1
379 592 m 1,27,-1
 266 592 l 1,28,-1
 173 745 l 1,29,-1
 235 792 l 1,30,-1
 329 676 l 1,31,-1
 467 792 l 1,32,-1
 527 745 l 1,33,-1
 379 592 l 1,27,-1
EndSplineSet
EndChar

StartChar: Dcaron
Encoding: 270 270 205
Width: 671
Flags: W
LayerCount: 2
Fore
SplineSet
283 0 m 2,0,-1
 29 0 l 1,1,-1
 169 698 l 1,2,-1
 385 698 l 2,3,4
 461 698 461 698 519 670 c 128,-1,5
 577 642 577 642 609.5 583 c 128,-1,6
 642 524 642 524 642 433 c 0,7,8
 642 351 642 351 619.5 273.5 c 128,-1,9
 597 196 597 196 552.5 134.5 c 128,-1,10
 508 73 508 73 440.5 36.5 c 128,-1,11
 373 0 373 0 283 0 c 2,0,-1
291 107 m 2,12,13
 363 107 363 107 417 151 c 128,-1,14
 471 195 471 195 493 293 c 2,15,-1
 512 389 l 2,16,17
 518 425 518 425 518 441 c 2,18,-1
 519 453 l 1,19,20
 519 526 519 526 483.5 558.5 c 128,-1,21
 448 591 448 591 390 591 c 2,22,-1
 268 591 l 1,23,-1
 171 107 l 1,24,-1
 291 107 l 2,12,13
455 756 m 1,25,-1
 344 756 l 1,26,-1
 249 909 l 1,27,-1
 312 956 l 1,28,-1
 406 841 l 1,29,-1
 544 956 l 1,30,-1
 604 909 l 1,31,-1
 455 756 l 1,25,-1
EndSplineSet
EndChar

StartChar: dcaron
Encoding: 271 271 206
Width: 633
Flags: W
LayerCount: 2
Fore
SplineSet
185 -12 m 0,0,1
 149 -12 149 -12 121.5 2 c 128,-1,2
 94 16 94 16 75.5 40.5 c 128,-1,3
 57 65 57 65 47.5 99.5 c 128,-1,4
 38 134 38 134 38 176 c 0,5,6
 38 244 38 244 55 309 c 128,-1,7
 72 374 72 374 104 423.5 c 128,-1,8
 136 473 136 473 182 503.5 c 128,-1,9
 228 534 228 534 286 534 c 0,10,11
 337 534 337 534 373.5 506.5 c 128,-1,12
 410 479 410 479 418 433 c 1,13,-1
 423 433 l 1,14,-1
 484 740 l 1,15,-1
 600 740 l 1,16,-1
 471 95 l 1,17,-1
 535 95 l 1,18,-1
 516 0 l 1,19,-1
 433 0 l 2,20,21
 369 1 369 1 361 52 c 0,22,23
 357 61 357 61 355.5 69 c 128,-1,24
 354 77 354 77 354 84 c 0,25,26
 355 101 355 101 359 118 c 1,27,-1
 355 118 l 1,28,29
 323 53 323 53 285 20.5 c 128,-1,30
 247 -12 247 -12 185 -12 c 0,0,1
236 86 m 0,31,32
 275 86 275 86 305.5 110 c 128,-1,33
 336 134 336 134 356.5 170.5 c 128,-1,34
 377 207 377 207 385 246 c 0,35,36
 405 348 405 348 405 358 c 0,37,38
 405 393 405 393 381 414.5 c 128,-1,39
 357 436 357 436 309 436 c 0,40,41
 204 436 204 436 177 304 c 2,42,-1
 171 271 l 2,43,44
 157 215 157 215 157 177 c 0,45,46
 161 86 161 86 236 86 c 0,31,32
700 536 m 1,47,-1
 619 536 l 1,48,-1
 664 740 l 1,49,-1
 796 740 l 1,50,-1
 700 536 l 1,47,-1
EndSplineSet
EndChar

StartChar: Dcroat
Encoding: 272 272 207
Width: 675
Flags: W
LayerCount: 2
Fore
SplineSet
287 0 m 2,0,-1
 33 0 l 1,1,-1
 96 312 l 1,2,-1
 20 312 l 1,3,-1
 39 405 l 1,4,-1
 114 405 l 1,5,-1
 173 698 l 1,6,-1
 390 698 l 2,7,8
 466 698 466 698 523.5 670 c 128,-1,9
 581 642 581 642 613.5 583.5 c 128,-1,10
 646 525 646 525 646 433 c 0,11,12
 646 316 646 316 604 217.5 c 128,-1,13
 562 119 562 119 481.5 59.5 c 128,-1,14
 401 0 401 0 287 0 c 2,0,-1
296 107 m 2,15,16
 367 107 367 107 421.5 151 c 128,-1,17
 476 195 476 195 497 293 c 2,18,-1
 507 343 l 2,19,20
 515 383 515 383 519 406 c 128,-1,21
 523 429 523 429 523 453 c 0,22,23
 523 591 523 591 384 591 c 2,24,-1
 272 591 l 1,25,-1
 235 405 l 1,26,-1
 356 405 l 1,27,-1
 337 312 l 1,28,-1
 216 312 l 1,29,-1
 175 107 l 1,30,-1
 296 107 l 2,15,16
EndSplineSet
EndChar

StartChar: dcroat
Encoding: 273 273 208
Width: 588
Flags: W
LayerCount: 2
Fore
SplineSet
185 -12 m 0,0,1
 112 -12 112 -12 75 40 c 128,-1,2
 38 92 38 92 38 176 c 0,3,4
 38 244 38 244 55 309 c 128,-1,5
 72 374 72 374 104 423.5 c 128,-1,6
 136 473 136 473 182 503.5 c 128,-1,7
 228 534 228 534 286 534 c 0,8,9
 337 534 337 534 373.5 506 c 128,-1,10
 410 478 410 478 418 433 c 1,11,-1
 423 433 l 1,12,-1
 456 597 l 1,13,-1
 306 597 l 1,14,-1
 322 679 l 1,15,-1
 472 679 l 1,16,-1
 484 740 l 1,17,-1
 600 740 l 1,18,-1
 588 679 l 1,19,-1
 647 679 l 1,20,-1
 629 597 l 1,21,-1
 572 597 l 1,22,-1
 471 95 l 1,23,-1
 535 95 l 1,24,-1
 516 0 l 1,25,-1
 433 0 l 2,26,27
 360 2 360 2 354 62 c 2,28,-1
 353 76 l 1,29,30
 356 105 356 105 359 118 c 1,31,-1
 355 118 l 1,32,33
 323 53 323 53 285 20.5 c 128,-1,34
 247 -12 247 -12 185 -12 c 0,0,1
236 86 m 0,35,36
 275 86 275 86 305.5 110 c 128,-1,37
 336 134 336 134 356.5 170.5 c 128,-1,38
 377 207 377 207 385 246 c 0,39,40
 405 348 405 348 405 358 c 0,41,42
 405 393 405 393 381 414.5 c 128,-1,43
 357 436 357 436 309 436 c 0,44,45
 204 436 204 436 177 304 c 2,46,-1
 171 271 l 2,47,48
 157 215 157 215 157 177 c 0,49,50
 161 86 161 86 236 86 c 0,35,36
EndSplineSet
EndChar

StartChar: Emacron
Encoding: 274 274 209
Width: 573
Flags: W
LayerCount: 2
Fore
SplineSet
476 0 m 1,0,-1
 29 0 l 1,1,-1
 169 698 l 1,2,-1
 603 698 l 1,3,-1
 581 591 l 1,4,-1
 268 591 l 1,5,-1
 231 406 l 1,6,-1
 510 406 l 1,7,-1
 488 299 l 1,8,-1
 210 299 l 1,9,-1
 171 107 l 1,10,-1
 497 107 l 1,11,-1
 476 0 l 1,0,-1
539 795 m 1,12,-1
 263 795 l 1,13,-1
 281 883 l 1,14,-1
 556 883 l 1,15,-1
 539 795 l 1,12,-1
EndSplineSet
EndChar

StartChar: emacron
Encoding: 275 275 210
Width: 513
Flags: W
LayerCount: 2
Fore
SplineSet
250 -12 m 0,0,1
 139 -12 139 -12 88.5 48.5 c 128,-1,2
 38 109 38 109 38 210 c 0,3,4
 38 285 38 285 69 359.5 c 128,-1,5
 100 434 100 434 162 484 c 128,-1,6
 224 534 224 534 317 534 c 0,7,8
 391 534 391 534 444 497 c 128,-1,9
 497 460 497 460 497 390 c 0,10,11
 497 304 497 304 411 261 c 128,-1,12
 325 218 325 218 156 213 c 1,13,-1
 155 203 l 2,14,15
 153 192 153 192 153 183 c 0,16,17
 153 84 153 84 258 84 c 0,18,19
 341 84 341 84 397 161 c 1,20,-1
 470 101 l 1,21,22
 423 43 423 43 370 15.5 c 128,-1,23
 317 -12 317 -12 250 -12 c 0,0,1
169 291 m 1,24,25
 292 296 292 296 337.5 317 c 128,-1,26
 383 338 383 338 383 382 c 0,27,28
 383 443 383 443 309 443 c 0,29,30
 199 443 199 443 170 299 c 1,31,-1
 169 291 l 1,24,25
478 630 m 1,32,-1
 202 630 l 1,33,-1
 220 718 l 1,34,-1
 496 718 l 1,35,-1
 478 630 l 1,32,-1
EndSplineSet
EndChar

StartChar: Ebreve
Encoding: 276 276 211
Width: 573
Flags: W
LayerCount: 2
Fore
SplineSet
476 0 m 1,0,-1
 29 0 l 1,1,-1
 169 698 l 1,2,-1
 603 698 l 1,3,-1
 581 591 l 1,4,-1
 268 591 l 1,5,-1
 231 406 l 1,6,-1
 510 406 l 1,7,-1
 488 299 l 1,8,-1
 210 299 l 1,9,-1
 171 107 l 1,10,-1
 497 107 l 1,11,-1
 476 0 l 1,0,-1
397 750 m 0,12,13
 348 750 348 750 315.5 773 c 128,-1,14
 283 796 283 796 265 831 c 128,-1,15
 247 866 247 866 242 906 c 1,16,-1
 309 940 l 1,17,-1
 318 920 l 2,18,19
 336 877 336 877 353.5 856 c 128,-1,20
 371 835 371 835 403 835 c 0,21,22
 438 835 438 835 462 859.5 c 128,-1,23
 486 884 486 884 519 932 c 2,24,-1
 525 940 l 1,25,-1
 595 904 l 1,26,27
 576 863 576 863 547.5 828.5 c 128,-1,28
 519 794 519 794 481.5 772 c 128,-1,29
 444 750 444 750 397 750 c 0,12,13
EndSplineSet
EndChar

StartChar: ebreve
Encoding: 277 277 212
Width: 513
Flags: W
LayerCount: 2
Fore
SplineSet
250 -12 m 0,0,1
 139 -12 139 -12 88.5 48.5 c 128,-1,2
 38 109 38 109 38 210 c 0,3,4
 38 285 38 285 69 359.5 c 128,-1,5
 100 434 100 434 162 484 c 128,-1,6
 224 534 224 534 317 534 c 0,7,8
 391 534 391 534 444 497 c 128,-1,9
 497 460 497 460 497 390 c 0,10,11
 497 304 497 304 411 261 c 128,-1,12
 325 218 325 218 156 213 c 1,13,-1
 155 203 l 2,14,15
 153 192 153 192 153 183 c 0,16,17
 153 84 153 84 258 84 c 0,18,19
 341 84 341 84 397 161 c 1,20,-1
 470 101 l 1,21,22
 423 43 423 43 370 15.5 c 128,-1,23
 317 -12 317 -12 250 -12 c 0,0,1
169 291 m 1,24,25
 292 296 292 296 337.5 317 c 128,-1,26
 383 338 383 338 383 382 c 0,27,28
 383 443 383 443 309 443 c 0,29,30
 199 443 199 443 170 299 c 1,31,-1
 169 291 l 1,24,25
336 586 m 0,32,33
 287 586 287 586 254.5 609.5 c 128,-1,34
 222 633 222 633 204 668.5 c 128,-1,35
 186 704 186 704 181 742 c 1,36,-1
 248 776 l 1,37,-1
 260 748 l 2,38,39
 277 710 277 710 293.5 691 c 128,-1,40
 310 672 310 672 342 672 c 0,41,42
 373 672 373 672 396 694 c 128,-1,43
 419 716 419 716 453 762 c 2,44,-1
 464 776 l 1,45,-1
 534 740 l 1,46,47
 459 586 459 586 336 586 c 0,32,33
EndSplineSet
EndChar

StartChar: Edot
Encoding: 278 278 213
Width: 573
Flags: W
LayerCount: 2
Fore
SplineSet
476 0 m 1,0,-1
 29 0 l 1,1,-1
 169 698 l 1,2,-1
 603 698 l 1,3,-1
 581 591 l 1,4,-1
 268 591 l 1,5,-1
 231 406 l 1,6,-1
 510 406 l 1,7,-1
 488 299 l 1,8,-1
 210 299 l 1,9,-1
 171 107 l 1,10,-1
 497 107 l 1,11,-1
 476 0 l 1,0,-1
398 765 m 0,12,13
 336 765 336 765 336 815 c 0,14,15
 336 853 336 853 352 881 c 128,-1,16
 368 909 368 909 421 909 c 0,17,18
 456 909 456 909 469.5 896 c 128,-1,19
 483 883 483 883 483 856 c 0,20,21
 483 851 483 851 482 847.5 c 128,-1,22
 481 844 481 844 481 840 c 0,23,24
 477 765 477 765 398 765 c 0,12,13
EndSplineSet
EndChar

StartChar: edot
Encoding: 279 279 214
Width: 513
Flags: W
LayerCount: 2
Fore
SplineSet
250 -12 m 0,0,1
 139 -12 139 -12 88.5 48.5 c 128,-1,2
 38 109 38 109 38 210 c 0,3,4
 38 285 38 285 69 359.5 c 128,-1,5
 100 434 100 434 162 484 c 128,-1,6
 224 534 224 534 317 534 c 0,7,8
 391 534 391 534 444 497 c 128,-1,9
 497 460 497 460 497 390 c 0,10,11
 497 304 497 304 411 261 c 128,-1,12
 325 218 325 218 156 213 c 1,13,-1
 155 203 l 2,14,15
 153 192 153 192 153 183 c 0,16,17
 153 84 153 84 258 84 c 0,18,19
 341 84 341 84 397 161 c 1,20,-1
 470 101 l 1,21,22
 423 43 423 43 370 15.5 c 128,-1,23
 317 -12 317 -12 250 -12 c 0,0,1
169 291 m 1,24,25
 292 296 292 296 337.5 317 c 128,-1,26
 383 338 383 338 383 382 c 0,27,28
 383 443 383 443 309 443 c 0,29,30
 199 443 199 443 170 299 c 1,31,-1
 169 291 l 1,24,25
338 600 m 0,32,33
 276 600 276 600 276 650 c 0,34,35
 276 688 276 688 292 716 c 128,-1,36
 308 744 308 744 361 744 c 0,37,38
 396 744 396 744 409.5 731 c 128,-1,39
 423 718 423 718 423 691 c 0,40,41
 423 687 423 687 422 683 c 128,-1,42
 421 679 421 679 421 676 c 0,43,44
 418 600 418 600 338 600 c 0,32,33
EndSplineSet
EndChar

StartChar: Eogonek
Encoding: 280 280 215
Width: 573
Flags: W
LayerCount: 2
Fore
SplineSet
378 -210 m 0,0,1
 337 -210 337 -210 302.5 -191.5 c 128,-1,2
 268 -173 268 -173 268 -130 c 0,3,4
 268 -46 268 -46 400 -5 c 1,5,-1
 399 0 l 1,6,-1
 29 0 l 1,7,-1
 169 698 l 1,8,-1
 603 698 l 1,9,-1
 582 591 l 1,10,-1
 268 591 l 1,11,-1
 231 406 l 1,12,-1
 510 406 l 1,13,-1
 488 299 l 1,14,-1
 210 299 l 1,15,-1
 171 107 l 1,16,-1
 497 107 l 1,17,-1
 476 0 l 1,18,19
 403 -46 403 -46 380 -70.5 c 128,-1,20
 357 -95 357 -95 357 -115 c 0,21,22
 357 -145 357 -145 392 -145 c 0,23,24
 423 -145 423 -145 446 -118 c 1,25,-1
 492 -165 l 1,26,27
 455 -210 455 -210 378 -210 c 0,0,1
EndSplineSet
EndChar

StartChar: eogonek
Encoding: 281 281 216
Width: 513
Flags: W
LayerCount: 2
Fore
SplineSet
233 -210 m 0,0,1
 191 -210 191 -210 157 -191.5 c 128,-1,2
 123 -173 123 -173 123 -130 c 0,3,4
 123 -55 123 -55 239 -15 c 1,5,-1
 238 -12 l 1,6,7
 134 -6 134 -6 86 53 c 128,-1,8
 38 112 38 112 38 210 c 0,9,10
 38 289 38 289 70.5 363.5 c 128,-1,11
 103 438 103 438 165.5 486 c 128,-1,12
 228 534 228 534 317 534 c 0,13,14
 394 534 394 534 445.5 496 c 128,-1,15
 497 458 497 458 497 390 c 0,16,17
 497 222 497 222 156 213 c 1,18,-1
 155 203 l 2,19,20
 153 192 153 192 153 183 c 0,21,22
 153 84 153 84 258 84 c 0,23,24
 341 84 341 84 397 161 c 1,25,-1
 470 101 l 1,26,27
 417 36 417 36 363 13 c 0,28,29
 273 -30 273 -30 239 -64 c 0,30,31
 213 -92 213 -92 213 -115 c 0,32,33
 213 -145 213 -145 247 -145 c 0,34,35
 278 -145 278 -145 301 -118 c 1,36,-1
 348 -165 l 1,37,38
 313 -210 313 -210 233 -210 c 0,0,1
169 291 m 1,39,40
 292 296 292 296 337.5 317 c 128,-1,41
 383 338 383 338 383 382 c 0,42,43
 383 443 383 443 309 443 c 0,44,45
 199 443 199 443 170 299 c 1,46,-1
 169 291 l 1,39,40
EndSplineSet
EndChar

StartChar: Ecaron
Encoding: 282 282 217
Width: 573
Flags: W
LayerCount: 2
Fore
SplineSet
476 0 m 1,0,-1
 29 0 l 1,1,-1
 169 698 l 1,2,-1
 603 698 l 1,3,-1
 581 591 l 1,4,-1
 268 591 l 1,5,-1
 231 406 l 1,6,-1
 510 406 l 1,7,-1
 488 299 l 1,8,-1
 210 299 l 1,9,-1
 171 107 l 1,10,-1
 497 107 l 1,11,-1
 476 0 l 1,0,-1
450 756 m 1,12,-1
 339 756 l 1,13,-1
 244 909 l 1,14,-1
 307 956 l 1,15,-1
 401 841 l 1,16,-1
 539 956 l 1,17,-1
 599 909 l 1,18,-1
 450 756 l 1,12,-1
EndSplineSet
EndChar

StartChar: ecaron
Encoding: 283 283 218
Width: 513
Flags: W
LayerCount: 2
Fore
SplineSet
250 -12 m 0,0,1
 139 -12 139 -12 88.5 48.5 c 128,-1,2
 38 109 38 109 38 210 c 0,3,4
 38 285 38 285 69 359.5 c 128,-1,5
 100 434 100 434 162 484 c 128,-1,6
 224 534 224 534 317 534 c 0,7,8
 391 534 391 534 444 497 c 128,-1,9
 497 460 497 460 497 390 c 0,10,11
 497 304 497 304 411 261 c 128,-1,12
 325 218 325 218 156 213 c 1,13,-1
 155 203 l 2,14,15
 153 192 153 192 153 183 c 0,16,17
 153 84 153 84 258 84 c 0,18,19
 341 84 341 84 397 161 c 1,20,-1
 470 101 l 1,21,22
 423 43 423 43 370 15.5 c 128,-1,23
 317 -12 317 -12 250 -12 c 0,0,1
169 291 m 1,24,25
 292 296 292 296 337.5 317 c 128,-1,26
 383 338 383 338 383 382 c 0,27,28
 383 443 383 443 309 443 c 0,29,30
 199 443 199 443 170 299 c 1,31,-1
 169 291 l 1,24,25
391 592 m 1,32,-1
 278 592 l 1,33,-1
 185 745 l 1,34,-1
 247 792 l 1,35,-1
 341 676 l 1,36,-1
 479 792 l 1,37,-1
 539 745 l 1,38,-1
 391 592 l 1,32,-1
EndSplineSet
EndChar

StartChar: Gcircumflex
Encoding: 284 284 219
Width: 685
Flags: W
LayerCount: 2
Fore
SplineSet
282 -12 m 0,0,1
 182 -12 182 -12 119 58 c 128,-1,2
 56 128 56 128 56 267 c 0,3,4
 56 383 56 383 98 484.5 c 128,-1,5
 140 586 140 586 220.5 648 c 128,-1,6
 301 710 301 710 417 710 c 0,7,8
 504 710 504 710 570 670.5 c 128,-1,9
 636 631 636 631 663 547 c 1,10,-1
 560 495 l 1,11,12
 528 602 528 602 408 602 c 0,13,14
 320 602 320 602 270.5 550.5 c 128,-1,15
 221 499 221 499 205 411 c 2,16,-1
 198 378 l 2,17,18
 178 290 178 290 178 246 c 0,19,20
 178 168 178 168 216.5 132 c 128,-1,21
 255 96 255 96 313 96 c 0,22,23
 381 96 381 96 430 132 c 128,-1,24
 479 168 479 168 494 231 c 2,25,-1
 503 273 l 1,26,-1
 368 273 l 1,27,-1
 389 376 l 1,28,-1
 639 376 l 1,29,-1
 564 0 l 1,30,-1
 461 0 l 1,31,-1
 483 108 l 1,32,-1
 476 108 l 1,33,34
 452 57 452 57 404.5 22.5 c 128,-1,35
 357 -12 357 -12 282 -12 c 0,0,1
318 747 m 1,36,-1
 260 795 l 1,37,-1
 409 947 l 1,38,-1
 520 947 l 1,39,-1
 614 795 l 1,40,-1
 551 748 l 1,41,-1
 454 863 l 1,42,-1
 318 747 l 1,36,-1
EndSplineSet
EndChar

StartChar: gcircumflex
Encoding: 285 285 220
Width: 568
Flags: W
LayerCount: 2
Fore
SplineSet
456 583 m 1,0,-1
 360 699 l 1,1,-1
 224 584 l 1,2,-1
 166 631 l 1,3,-1
 315 783 l 1,4,-1
 426 783 l 1,5,-1
 519 631 l 1,6,-1
 456 583 l 1,0,-1
204 -212 m 0,7,8
 67 -212 67 -212 1 -120 c 1,9,-1
 77 -52 l 1,10,11
 118 -117 118 -117 202 -117 c 0,12,13
 312 -117 312 -117 339 17 c 2,14,-1
 361 127 l 1,15,-1
 356 127 l 1,16,17
 326 61 326 61 285 29 c 128,-1,18
 244 -3 244 -3 186 -3 c 0,19,20
 115 -3 115 -3 77.5 49 c 128,-1,21
 40 101 40 101 40 185 c 0,22,23
 40 281 40 281 70 360 c 128,-1,24
 100 439 100 439 155 486.5 c 128,-1,25
 210 534 210 534 285 534 c 0,26,27
 333 534 333 534 370.5 507.5 c 128,-1,28
 408 481 408 481 418 433 c 1,29,-1
 423 433 l 1,30,-1
 440 522 l 1,31,-1
 556 522 l 1,32,-1
 454 9 l 2,33,34
 434 -96 434 -96 375 -154 c 128,-1,35
 316 -212 316 -212 204 -212 c 0,7,8
237 94 m 0,36,37
 286 94 286 94 328.5 138.5 c 128,-1,38
 371 183 371 183 386 255 c 2,39,-1
 398 318 l 2,40,41
 404 349 404 349 404 355 c 0,42,43
 404 372 404 372 396.5 391 c 128,-1,44
 389 410 389 410 368.5 423 c 128,-1,45
 348 436 348 436 309 436 c 0,46,47
 203 436 203 436 178 304 c 0,48,49
 172 272 172 272 165.5 241 c 128,-1,50
 159 210 159 210 159 185 c 0,51,52
 159 99 159 99 237 94 c 0,36,37
EndSplineSet
EndChar

StartChar: Gbreve
Encoding: 286 286 221
Width: 685
Flags: W
LayerCount: 2
Fore
SplineSet
282 -12 m 0,0,1
 182 -12 182 -12 119 58 c 128,-1,2
 56 128 56 128 56 267 c 0,3,4
 56 383 56 383 98 484.5 c 128,-1,5
 140 586 140 586 220.5 648 c 128,-1,6
 301 710 301 710 417 710 c 0,7,8
 504 710 504 710 570 670.5 c 128,-1,9
 636 631 636 631 663 547 c 1,10,-1
 560 495 l 1,11,12
 528 602 528 602 408 602 c 0,13,14
 320 602 320 602 270.5 550.5 c 128,-1,15
 221 499 221 499 205 411 c 2,16,-1
 198 378 l 2,17,18
 178 290 178 290 178 246 c 0,19,20
 178 168 178 168 216.5 132 c 128,-1,21
 255 96 255 96 313 96 c 0,22,23
 381 96 381 96 430 132 c 128,-1,24
 479 168 479 168 494 231 c 2,25,-1
 503 273 l 1,26,-1
 368 273 l 1,27,-1
 389 376 l 1,28,-1
 639 376 l 1,29,-1
 564 0 l 1,30,-1
 461 0 l 1,31,-1
 483 108 l 1,32,-1
 476 108 l 1,33,34
 452 57 452 57 404.5 22.5 c 128,-1,35
 357 -12 357 -12 282 -12 c 0,0,1
437 750 m 0,36,37
 388 750 388 750 355.5 773 c 128,-1,38
 323 796 323 796 305 831 c 128,-1,39
 287 866 287 866 282 906 c 1,40,-1
 349 940 l 1,41,-1
 358 920 l 2,42,43
 376 877 376 877 393.5 856 c 128,-1,44
 411 835 411 835 443 835 c 0,45,46
 478 835 478 835 502 859.5 c 128,-1,47
 526 884 526 884 559 932 c 2,48,-1
 565 940 l 1,49,-1
 635 904 l 1,50,51
 616 863 616 863 587.5 828.5 c 128,-1,52
 559 794 559 794 521.5 772 c 128,-1,53
 484 750 484 750 437 750 c 0,36,37
EndSplineSet
EndChar

StartChar: gbreve
Encoding: 287 287 222
Width: 568
Flags: W
LayerCount: 2
Fore
SplineSet
342 586 m 0,0,1
 269 586 269 586 230 637 c 0,2,3
 197 678 197 678 188 742 c 1,4,-1
 254 776 l 1,5,-1
 268 748 l 2,6,7
 282 713 282 713 298 692.5 c 128,-1,8
 314 672 314 672 348 672 c 2,9,-1
 352 672 l 2,10,11
 378 672 378 672 398 689.5 c 128,-1,12
 418 707 418 707 447 745 c 2,13,-1
 471 776 l 1,14,-1
 541 740 l 1,15,16
 505 672 505 672 465 635 c 0,17,18
 412 586 412 586 342 586 c 0,0,1
204 -212 m 0,19,20
 67 -212 67 -212 1 -120 c 1,21,-1
 77 -52 l 1,22,23
 118 -117 118 -117 202 -117 c 0,24,25
 312 -117 312 -117 339 17 c 2,26,-1
 361 127 l 1,27,-1
 356 127 l 1,28,29
 326 61 326 61 285 29 c 128,-1,30
 244 -3 244 -3 186 -3 c 0,31,32
 115 -3 115 -3 77.5 49 c 128,-1,33
 40 101 40 101 40 185 c 0,34,35
 40 281 40 281 70 360 c 128,-1,36
 100 439 100 439 155 486.5 c 128,-1,37
 210 534 210 534 285 534 c 0,38,39
 333 534 333 534 370.5 507.5 c 128,-1,40
 408 481 408 481 418 433 c 1,41,-1
 423 433 l 1,42,-1
 440 522 l 1,43,-1
 556 522 l 1,44,-1
 454 9 l 2,45,46
 434 -96 434 -96 375 -154 c 128,-1,47
 316 -212 316 -212 204 -212 c 0,19,20
237 94 m 0,48,49
 286 94 286 94 328.5 138.5 c 128,-1,50
 371 183 371 183 386 255 c 2,51,-1
 398 318 l 2,52,53
 404 349 404 349 404 355 c 0,54,55
 404 372 404 372 396.5 391 c 128,-1,56
 389 410 389 410 368.5 423 c 128,-1,57
 348 436 348 436 309 436 c 0,58,59
 203 436 203 436 178 304 c 0,60,61
 172 272 172 272 165.5 241 c 128,-1,62
 159 210 159 210 159 185 c 0,63,64
 159 99 159 99 237 94 c 0,48,49
EndSplineSet
EndChar

StartChar: Gdot
Encoding: 288 288 223
Width: 685
Flags: W
LayerCount: 2
Fore
SplineSet
282 -12 m 0,0,1
 182 -12 182 -12 119 58 c 128,-1,2
 56 128 56 128 56 267 c 0,3,4
 56 383 56 383 98 484.5 c 128,-1,5
 140 586 140 586 220.5 648 c 128,-1,6
 301 710 301 710 417 710 c 0,7,8
 504 710 504 710 570 670.5 c 128,-1,9
 636 631 636 631 663 547 c 1,10,-1
 560 495 l 1,11,12
 528 602 528 602 408 602 c 0,13,14
 320 602 320 602 270.5 550.5 c 128,-1,15
 221 499 221 499 205 411 c 2,16,-1
 198 378 l 2,17,18
 178 290 178 290 178 246 c 0,19,20
 178 168 178 168 216.5 132 c 128,-1,21
 255 96 255 96 313 96 c 0,22,23
 381 96 381 96 430 132 c 128,-1,24
 479 168 479 168 494 231 c 2,25,-1
 503 273 l 1,26,-1
 368 273 l 1,27,-1
 389 376 l 1,28,-1
 639 376 l 1,29,-1
 564 0 l 1,30,-1
 461 0 l 1,31,-1
 483 108 l 1,32,-1
 476 108 l 1,33,34
 452 57 452 57 404.5 22.5 c 128,-1,35
 357 -12 357 -12 282 -12 c 0,0,1
438 765 m 0,36,37
 376 765 376 765 376 815 c 0,38,39
 376 853 376 853 392 881 c 128,-1,40
 408 909 408 909 461 909 c 0,41,42
 496 909 496 909 509.5 896 c 128,-1,43
 523 883 523 883 523 856 c 0,44,45
 523 851 523 851 522 847.5 c 128,-1,46
 521 844 521 844 521 840 c 0,47,48
 517 765 517 765 438 765 c 0,36,37
EndSplineSet
EndChar

StartChar: gdot
Encoding: 289 289 224
Width: 568
Flags: W
LayerCount: 2
Fore
SplineSet
345 600 m 0,0,1
 282 600 282 600 282 650 c 0,2,3
 282 658 282 658 286 681 c 128,-1,4
 290 704 290 704 308 724 c 128,-1,5
 326 744 326 744 367 744 c 0,6,7
 430 744 430 744 430 695 c 0,8,9
 430 600 430 600 345 600 c 0,0,1
204 -212 m 0,10,11
 67 -212 67 -212 1 -120 c 1,12,-1
 77 -52 l 1,13,14
 118 -117 118 -117 202 -117 c 0,15,16
 312 -117 312 -117 339 17 c 2,17,-1
 361 127 l 1,18,-1
 356 127 l 1,19,20
 326 61 326 61 285 29 c 128,-1,21
 244 -3 244 -3 186 -3 c 0,22,23
 115 -3 115 -3 77.5 49 c 128,-1,24
 40 101 40 101 40 185 c 0,25,26
 40 281 40 281 70 360 c 128,-1,27
 100 439 100 439 155 486.5 c 128,-1,28
 210 534 210 534 285 534 c 0,29,30
 333 534 333 534 370.5 507.5 c 128,-1,31
 408 481 408 481 418 433 c 1,32,-1
 423 433 l 1,33,-1
 440 522 l 1,34,-1
 556 522 l 1,35,-1
 454 9 l 2,36,37
 434 -96 434 -96 375 -154 c 128,-1,38
 316 -212 316 -212 204 -212 c 0,10,11
237 94 m 0,39,40
 286 94 286 94 328.5 138.5 c 128,-1,41
 371 183 371 183 386 255 c 2,42,-1
 398 318 l 2,43,44
 404 349 404 349 404 355 c 0,45,46
 404 372 404 372 396.5 391 c 128,-1,47
 389 410 389 410 368.5 423 c 128,-1,48
 348 436 348 436 309 436 c 0,49,50
 203 436 203 436 178 304 c 0,51,52
 172 272 172 272 165.5 241 c 128,-1,53
 159 210 159 210 159 185 c 0,54,55
 159 99 159 99 237 94 c 0,39,40
EndSplineSet
EndChar

StartChar: Gcedilla
Encoding: 290 290 225
Width: 685
Flags: W
LayerCount: 2
Fore
SplineSet
282 -12 m 0,0,1
 182 -12 182 -12 119 58 c 128,-1,2
 56 128 56 128 56 267 c 0,3,4
 56 383 56 383 98 484.5 c 128,-1,5
 140 586 140 586 220.5 648 c 128,-1,6
 301 710 301 710 417 710 c 0,7,8
 504 710 504 710 570 670.5 c 128,-1,9
 636 631 636 631 663 547 c 1,10,-1
 560 495 l 1,11,12
 528 602 528 602 408 602 c 0,13,14
 320 602 320 602 270.5 550.5 c 128,-1,15
 221 499 221 499 205 411 c 2,16,-1
 198 378 l 2,17,18
 178 290 178 290 178 246 c 0,19,20
 178 168 178 168 216.5 132 c 128,-1,21
 255 96 255 96 313 96 c 0,22,23
 381 96 381 96 430 132 c 128,-1,24
 479 168 479 168 494 231 c 2,25,-1
 503 273 l 1,26,-1
 368 273 l 1,27,-1
 389 376 l 1,28,-1
 639 376 l 1,29,-1
 564 0 l 1,30,-1
 461 0 l 1,31,-1
 483 108 l 1,32,-1
 476 108 l 1,33,34
 452 57 452 57 404.5 22.5 c 128,-1,35
 357 -12 357 -12 282 -12 c 0,0,1
239 -264 m 1,36,-1
 166 -264 l 1,37,38
 212 -224 212 -224 236 -173 c 1,39,40
 214 -168 214 -168 208.5 -154.5 c 128,-1,41
 203 -141 203 -141 203 -119 c 0,42,43
 203 -85 203 -85 225.5 -68 c 128,-1,44
 248 -51 248 -51 274 -51 c 0,45,46
 326 -51 326 -51 327 -92 c 1,47,-1
 328 -97 l 1,48,-1
 326 -114 l 1,49,50
 307 -206 307 -206 239 -264 c 1,36,-1
EndSplineSet
EndChar

StartChar: gcedilla
Encoding: 291 291 226
Width: 568
Flags: W
LayerCount: 2
Fore
SplineSet
340 583 m 0,0,1
 285 583 285 583 285 628 c 0,2,3
 285 674 285 674 311.5 720 c 128,-1,4
 338 766 338 766 374 796 c 1,5,-1
 447 796 l 1,6,7
 396 753 396 753 376 705 c 1,8,9
 410 702 410 702 410 662 c 0,10,11
 410 619 410 619 389 601 c 128,-1,12
 368 583 368 583 340 583 c 0,0,1
204 -212 m 0,13,14
 67 -212 67 -212 1 -120 c 1,15,-1
 77 -52 l 1,16,17
 118 -117 118 -117 202 -117 c 0,18,19
 312 -117 312 -117 339 17 c 2,20,-1
 361 127 l 1,21,-1
 356 127 l 1,22,23
 326 61 326 61 285 29 c 128,-1,24
 244 -3 244 -3 186 -3 c 0,25,26
 115 -3 115 -3 77.5 49 c 128,-1,27
 40 101 40 101 40 185 c 0,28,29
 40 281 40 281 70 360 c 128,-1,30
 100 439 100 439 155 486.5 c 128,-1,31
 210 534 210 534 285 534 c 0,32,33
 333 534 333 534 370.5 507.5 c 128,-1,34
 408 481 408 481 418 433 c 1,35,-1
 423 433 l 1,36,-1
 440 522 l 1,37,-1
 556 522 l 1,38,-1
 454 9 l 2,39,40
 434 -96 434 -96 375 -154 c 128,-1,41
 316 -212 316 -212 204 -212 c 0,13,14
237 94 m 0,42,43
 286 94 286 94 328.5 138.5 c 128,-1,44
 371 183 371 183 386 255 c 2,45,-1
 398 318 l 2,46,47
 404 349 404 349 404 355 c 0,48,49
 404 372 404 372 396.5 391 c 128,-1,50
 389 410 389 410 368.5 423 c 128,-1,51
 348 436 348 436 309 436 c 0,52,53
 203 436 203 436 178 304 c 0,54,55
 172 272 172 272 165.5 241 c 128,-1,56
 159 210 159 210 159 185 c 0,57,58
 159 99 159 99 237 94 c 0,42,43
EndSplineSet
EndChar

StartChar: Hcircumflex
Encoding: 292 292 227
Width: 694
Flags: W
LayerCount: 2
Fore
SplineSet
560 0 m 1,0,-1
 440 0 l 1,1,-1
 500 299 l 1,2,-1
 210 299 l 1,3,-1
 149 0 l 1,4,-1
 29 0 l 1,5,-1
 169 698 l 1,6,-1
 289 698 l 1,7,-1
 231 406 l 1,8,-1
 522 406 l 1,9,-1
 580 698 l 1,10,-1
 700 698 l 1,11,-1
 560 0 l 1,0,-1
323 747 m 1,12,-1
 265 795 l 1,13,-1
 414 947 l 1,14,-1
 525 947 l 1,15,-1
 619 795 l 1,16,-1
 556 748 l 1,17,-1
 459 863 l 1,18,-1
 323 747 l 1,12,-1
EndSplineSet
EndChar

StartChar: hcircumflex
Encoding: 293 293 228
Width: 578
Flags: W
LayerCount: 2
Fore
SplineSet
509 0 m 1,0,-1
 426 0 l 2,1,2
 350 2 350 2 350 69 c 0,3,4
 350 101 350 101 363 153 c 0,5,6
 369 177 369 177 374 204 c 2,7,-1
 377 219 l 2,8,9
 403 330 403 330 403 369 c 0,10,11
 403 435 403 435 340 435 c 0,12,13
 304 435 304 435 273 411 c 128,-1,14
 242 387 242 387 221.5 351 c 128,-1,15
 201 315 201 315 194 277 c 2,16,-1
 139 0 l 1,17,-1
 23 0 l 1,18,-1
 171 740 l 1,19,-1
 287 740 l 1,20,-1
 220 407 l 1,21,-1
 226 407 l 1,22,23
 254 469 254 469 294 501.5 c 128,-1,24
 334 534 334 534 394 534 c 0,25,26
 461 534 461 534 491.5 495.5 c 128,-1,27
 522 457 522 457 522 395 c 0,28,29
 522 359 522 359 514 324 c 2,30,-1
 468 95 l 1,31,-1
 528 95 l 1,32,-1
 509 0 l 1,0,-1
349 744 m 1,33,-1
 253 860 l 1,34,-1
 117 745 l 1,35,-1
 59 793 l 1,36,-1
 208 945 l 1,37,-1
 319 945 l 1,38,-1
 412 792 l 1,39,-1
 349 744 l 1,33,-1
EndSplineSet
EndChar

StartChar: Hbar
Encoding: 294 294 229
Width: 702
Flags: W
LayerCount: 2
Fore
SplineSet
564 0 m 1,0,-1
 444 0 l 1,1,-1
 505 299 l 1,2,-1
 214 299 l 1,3,-1
 153 0 l 1,4,-1
 33 0 l 1,5,-1
 136 516 l 1,6,-1
 66 516 l 1,7,-1
 84 606 l 1,8,-1
 154 606 l 1,9,-1
 173 698 l 1,10,-1
 293 698 l 1,11,-1
 275 606 l 1,12,-1
 565 606 l 1,13,-1
 584 698 l 1,14,-1
 704 698 l 1,15,-1
 686 606 l 1,16,-1
 755 606 l 1,17,-1
 737 516 l 1,18,-1
 667 516 l 1,19,-1
 564 0 l 1,0,-1
526 406 m 1,20,-1
 547 516 l 1,21,-1
 257 516 l 1,22,-1
 235 406 l 1,23,-1
 526 406 l 1,20,-1
EndSplineSet
EndChar

StartChar: hbar
Encoding: 295 295 230
Width: 578
Flags: W
LayerCount: 2
Fore
SplineSet
509 0 m 1,0,-1
 426 0 l 2,1,2
 388 0 388 0 369 19 c 128,-1,3
 350 38 350 38 350 69 c 0,4,5
 350 82 350 82 354 99 c 2,6,-1
 393 290 l 2,7,8
 403 337 403 337 403 369 c 0,9,10
 403 435 403 435 340 435 c 0,11,12
 289 435 289 435 248 387 c 128,-1,13
 207 339 207 339 194 277 c 2,14,-1
 139 0 l 1,15,-1
 23 0 l 1,16,-1
 142 597 l 1,17,-1
 76 597 l 1,18,-1
 92 680 l 1,19,-1
 158 680 l 1,20,-1
 171 740 l 1,21,-1
 287 740 l 1,22,-1
 274 680 l 1,23,-1
 417 680 l 1,24,-1
 400 597 l 1,25,-1
 258 597 l 1,26,-1
 220 407 l 1,27,-1
 226 407 l 1,28,29
 254 468 254 468 294.5 501 c 128,-1,30
 335 534 335 534 394 534 c 0,31,32
 461 534 461 534 491.5 495.5 c 128,-1,33
 522 457 522 457 522 395 c 0,34,35
 522 359 522 359 514 324 c 2,36,-1
 468 95 l 1,37,-1
 528 95 l 1,38,-1
 509 0 l 1,0,-1
EndSplineSet
EndChar

StartChar: itilde
Encoding: 297 297 232
Width: 274
Flags: W
LayerCount: 2
Fore
SplineSet
203 0 m 1,0,-1
 121 0 l 2,1,2
 79 0 79 0 59 20.5 c 128,-1,3
 39 41 39 41 39 74 c 0,4,5
 39 80 39 80 127 522 c 1,6,-1
 243 522 l 1,7,-1
 157 95 l 1,8,-1
 222 95 l 1,9,-1
 203 0 l 1,0,-1
281 605 m 0,10,11
 259 605 259 605 243.5 610.5 c 128,-1,12
 228 616 228 616 213 624 c 2,13,-1
 196 632 l 2,14,15
 161 651 161 651 136 651 c 0,16,17
 119 651 119 651 107 644.5 c 128,-1,18
 95 638 95 638 77 625 c 1,19,-1
 40 682 l 1,20,21
 86 741 86 741 149 741 c 0,22,23
 184 741 184 741 240 711 c 0,24,25
 270 696 270 696 293 696 c 0,26,27
 310 696 310 696 322 701.5 c 128,-1,28
 334 707 334 707 352 721 c 1,29,-1
 390 664 l 1,30,31
 367 637 367 637 341 621 c 128,-1,32
 315 605 315 605 281 605 c 0,10,11
EndSplineSet
EndChar

StartChar: imacron
Encoding: 299 299 234
Width: 274
Flags: W
LayerCount: 2
Fore
SplineSet
203 0 m 1,0,-1
 121 0 l 2,1,2
 79 0 79 0 59 20.5 c 128,-1,3
 39 41 39 41 39 74 c 0,4,5
 39 80 39 80 127 522 c 1,6,-1
 243 522 l 1,7,-1
 157 95 l 1,8,-1
 222 95 l 1,9,-1
 203 0 l 1,0,-1
344 630 m 1,10,-1
 68 630 l 1,11,-1
 86 718 l 1,12,-1
 362 718 l 1,13,-1
 344 630 l 1,10,-1
EndSplineSet
EndChar

StartChar: ibreve
Encoding: 301 301 236
Width: 274
Flags: W
LayerCount: 2
Fore
SplineSet
203 0 m 1,0,-1
 121 0 l 2,1,2
 79 0 79 0 59 20.5 c 128,-1,3
 39 41 39 41 39 74 c 0,4,5
 39 80 39 80 127 522 c 1,6,-1
 243 522 l 1,7,-1
 157 95 l 1,8,-1
 222 95 l 1,9,-1
 203 0 l 1,0,-1
201 586 m 0,10,11
 152 586 152 586 120 609.5 c 128,-1,12
 88 633 88 633 70 668.5 c 128,-1,13
 52 704 52 704 47 742 c 1,14,-1
 113 776 l 1,15,-1
 129 743 l 2,16,17
 143 707 143 707 160 689.5 c 128,-1,18
 177 672 177 672 207 672 c 0,19,20
 239 672 239 672 262 694 c 128,-1,21
 285 716 285 716 319 761 c 2,22,-1
 330 776 l 1,23,-1
 400 740 l 1,24,25
 325 586 325 586 201 586 c 0,10,11
EndSplineSet
EndChar

StartChar: Iogonek
Encoding: 302 302 237
Width: 282
Flags: W
LayerCount: 2
Fore
SplineSet
51 -210 m 0,0,1
 9 -210 9 -210 -25 -190.5 c 128,-1,2
 -59 -171 -59 -171 -59 -130 c 0,3,4
 -59 -48 -59 -48 74 -5 c 1,5,-1
 73 0 l 1,6,-1
 29 0 l 1,7,-1
 169 698 l 1,8,-1
 289 698 l 1,9,-1
 149 0 l 1,10,11
 78 -45 78 -45 54.5 -69.5 c 128,-1,12
 31 -94 31 -94 31 -115 c 0,13,14
 31 -145 31 -145 65 -145 c 0,15,16
 96 -145 96 -145 119 -118 c 1,17,-1
 165 -165 l 1,18,19
 131 -210 131 -210 51 -210 c 0,0,1
EndSplineSet
EndChar

StartChar: iogonek
Encoding: 303 303 238
Width: 274
Flags: W
LayerCount: 2
Fore
SplineSet
105 -210 m 0,0,1
 63 -210 63 -210 29 -190.5 c 128,-1,2
 -5 -171 -5 -171 -5 -130 c 0,3,4
 -5 -48 -5 -48 130 -5 c 1,5,-1
 129 0 l 1,6,7
 81 0 81 0 60 20.5 c 128,-1,8
 39 41 39 41 39 73 c 0,9,10
 39 83 39 83 127 522 c 1,11,-1
 243 522 l 1,12,-1
 157 95 l 1,13,-1
 222 95 l 1,14,-1
 203 0 l 1,15,16
 132 -45 132 -45 108.5 -69.5 c 128,-1,17
 85 -94 85 -94 85 -115 c 0,18,19
 85 -145 85 -145 119 -145 c 0,20,21
 150 -145 150 -145 173 -118 c 1,22,-1
 219 -165 l 1,23,24
 185 -210 185 -210 105 -210 c 0,0,1
203 603 m 0,25,26
 143 603 143 603 143 648 c 0,27,28
 143 666 143 666 149 688.5 c 128,-1,29
 155 711 155 711 173.5 728 c 128,-1,30
 192 745 192 745 228 745 c 0,31,32
 260 745 260 745 274.5 732 c 128,-1,33
 289 719 289 719 289 700 c 0,34,35
 289 663 289 663 270 633 c 128,-1,36
 251 603 251 603 203 603 c 0,25,26
EndSplineSet
EndChar

StartChar: dotlessi
Encoding: 305 305 240
Width: 274
Flags: W
LayerCount: 2
Fore
SplineSet
203 0 m 1,0,-1
 121 0 l 2,1,2
 79 0 79 0 59 20.5 c 128,-1,3
 39 41 39 41 39 74 c 0,4,5
 39 80 39 80 127 522 c 1,6,-1
 243 522 l 1,7,-1
 157 95 l 1,8,-1
 222 95 l 1,9,-1
 203 0 l 1,0,-1
EndSplineSet
EndChar

StartChar: ij
Encoding: 307 307 242
Width: 540
Flags: W
LayerCount: 2
Fore
SplineSet
203 603 m 0,0,1
 143 603 143 603 143 648 c 0,2,3
 143 666 143 666 149 688.5 c 128,-1,4
 155 711 155 711 173.5 728 c 128,-1,5
 192 745 192 745 228 745 c 0,6,7
 260 745 260 745 274.5 732 c 128,-1,8
 289 719 289 719 289 700 c 0,9,10
 289 663 289 663 270 633 c 128,-1,11
 251 603 251 603 203 603 c 0,0,1
203 0 m 1,12,-1
 121 0 l 2,13,14
 79 0 79 0 59 21 c 128,-1,15
 39 42 39 42 39 73 c 0,16,17
 39 85 39 85 127 522 c 1,18,-1
 243 522 l 1,19,-1
 157 95 l 1,20,-1
 222 95 l 1,21,-1
 203 0 l 1,12,-1
254 -200 m 2,22,-1
 180 -200 l 1,23,-1
 198 -105 l 1,24,-1
 277 -105 l 1,25,-1
 402 522 l 1,26,-1
 518 522 l 1,27,-1
 398 -76 l 2,28,29
 385 -141 385 -141 351 -170.5 c 128,-1,30
 317 -200 317 -200 254 -200 c 2,22,-1
479 603 m 0,31,32
 418 603 418 603 418 648 c 0,33,34
 418 665 418 665 424 688 c 128,-1,35
 430 711 430 711 448 728 c 128,-1,36
 466 745 466 745 503 745 c 0,37,38
 535 745 535 745 549.5 732 c 128,-1,39
 564 719 564 719 564 700 c 0,40,41
 564 663 564 663 545.5 633 c 128,-1,42
 527 603 527 603 479 603 c 0,31,32
EndSplineSet
EndChar

StartChar: Jcircumflex
Encoding: 308 308 243
Width: 521
Flags: W
LayerCount: 2
Fore
SplineSet
256 747 m 1,0,-1
 198 795 l 1,1,-1
 347 947 l 1,2,-1
 458 947 l 1,3,-1
 552 795 l 1,4,-1
 489 748 l 1,5,-1
 392 863 l 1,6,-1
 256 747 l 1,0,-1
198 -12 m 0,7,8
 134 -12 134 -12 92.5 12 c 128,-1,9
 51 36 51 36 29.5 77 c 128,-1,10
 8 118 8 118 4 170 c 1,11,-1
 118 193 l 1,12,13
 123 95 123 95 200 95 c 0,14,15
 286 95 286 95 308 201 c 2,16,-1
 407 698 l 1,17,-1
 528 698 l 1,18,-1
 426 187 l 2,19,20
 407 95 407 95 351.5 41.5 c 128,-1,21
 296 -12 296 -12 198 -12 c 0,7,8
EndSplineSet
EndChar

StartChar: jcircumflex
Encoding: 309 309 244
Width: 267
Flags: W
LayerCount: 2
Fore
SplineSet
-19 -200 m 2,0,-1
 -93 -200 l 1,1,-1
 -74 -105 l 1,2,-1
 4 -105 l 1,3,-1
 130 522 l 1,4,-1
 246 522 l 1,5,-1
 125 -75 l 2,6,7
 112 -140 112 -140 78 -170 c 128,-1,8
 44 -200 44 -200 -19 -200 c 2,0,-1
320 583 m 1,9,-1
 223 699 l 1,10,-1
 87 584 l 1,11,-1
 29 631 l 1,12,-1
 178 783 l 1,13,-1
 289 783 l 1,14,-1
 383 631 l 1,15,-1
 320 583 l 1,9,-1
EndSplineSet
EndChar

StartChar: Kcedilla
Encoding: 310 310 245
Width: 641
Flags: W
LayerCount: 2
Fore
SplineSet
578 0 m 1,0,-1
 445 0 l 1,1,-1
 308 316 l 1,2,-1
 189 198 l 1,3,-1
 149 0 l 1,4,-1
 29 0 l 1,5,-1
 169 698 l 1,6,-1
 290 698 l 1,7,-1
 221 355 l 1,8,-1
 227 355 l 1,9,-1
 340 480 l 1,10,-1
 552 698 l 1,11,-1
 700 698 l 1,12,-1
 402 397 l 1,13,-1
 578 0 l 1,0,-1
236 -264 m 1,14,-1
 163 -264 l 1,15,16
 189 -241 189 -241 204.5 -220.5 c 128,-1,17
 220 -200 220 -200 234 -173 c 1,18,19
 204 -167 204 -167 201 -141 c 2,20,-1
 200 -130 l 1,21,-1
 201 -119 l 2,22,23
 201 -86 201 -86 223.5 -68.5 c 128,-1,24
 246 -51 246 -51 271 -51 c 0,25,26
 325 -51 325 -51 325 -97 c 0,27,28
 324 -99 324 -99 324 -103 c 128,-1,29
 324 -107 324 -107 321 -127 c 0,30,31
 298 -212 298 -212 236 -264 c 1,14,-1
EndSplineSet
EndChar

StartChar: kcedilla
Encoding: 311 311 246
Width: 538
Flags: W
LayerCount: 2
Fore
SplineSet
472 0 m 1,0,-1
 409 0 l 2,1,2
 337 0 337 0 315 70 c 1,3,-1
 253 234 l 1,4,-1
 169 155 l 1,5,-1
 139 0 l 1,6,-1
 23 0 l 1,7,-1
 171 740 l 1,8,-1
 287 740 l 1,9,-1
 198 294 l 1,10,-1
 204 294 l 1,11,-1
 283 383 l 1,12,-1
 427 522 l 1,13,-1
 564 522 l 1,14,-1
 344 311 l 1,15,-1
 429 95 l 1,16,-1
 491 95 l 1,17,-1
 472 0 l 1,0,-1
201 -264 m 1,18,-1
 128 -264 l 1,19,20
 154 -241 154 -241 169.5 -220.5 c 128,-1,21
 185 -200 185 -200 199 -173 c 1,22,23
 169 -167 169 -167 166 -141 c 2,24,-1
 165 -130 l 1,25,-1
 166 -119 l 2,26,27
 166 -86 166 -86 188.5 -68.5 c 128,-1,28
 211 -51 211 -51 236 -51 c 0,29,30
 290 -51 290 -51 290 -97 c 0,31,32
 289 -99 289 -99 289 -103 c 128,-1,33
 289 -107 289 -107 286 -127 c 0,34,35
 263 -212 263 -212 201 -264 c 1,18,-1
EndSplineSet
EndChar

StartChar: kgreenlandic
Encoding: 312 312 247
Width: 547
Flags: W
LayerCount: 2
Fore
SplineSet
472 0 m 1,0,-1
 409 0 l 2,1,2
 337 0 337 0 316 70 c 1,3,-1
 257 228 l 1,4,-1
 167 147 l 1,5,-1
 138 0 l 1,6,-1
 23 0 l 1,7,-1
 127 522 l 1,8,-1
 243 522 l 1,9,-1
 195 283 l 1,10,-1
 201 283 l 1,11,-1
 289 376 l 1,12,-1
 443 522 l 1,13,-1
 580 522 l 1,14,-1
 351 304 l 1,15,-1
 429 95 l 1,16,-1
 492 95 l 1,17,-1
 472 0 l 1,0,-1
EndSplineSet
EndChar

StartChar: Lacute
Encoding: 313 313 248
Width: 502
Flags: W
LayerCount: 2
Fore
SplineSet
418 0 m 1,0,-1
 29 0 l 1,1,-1
 169 698 l 1,2,-1
 290 698 l 1,3,-1
 171 107 l 1,4,-1
 439 107 l 1,5,-1
 418 0 l 1,0,-1
257 746 m 1,6,-1
 186 784 l 1,7,-1
 299 966 l 1,8,-1
 395 916 l 1,9,-1
 257 746 l 1,6,-1
EndSplineSet
EndChar

StartChar: lacute
Encoding: 314 314 249
Width: 274
Flags: W
LayerCount: 2
Fore
SplineSet
207 0 m 1,0,-1
 121 0 l 2,1,2
 78 0 78 0 58.5 21 c 128,-1,3
 39 42 39 42 39 73 c 0,4,5
 39 83 39 83 170 740 c 1,6,-1
 286 740 l 1,7,-1
 157 95 l 1,8,-1
 225 95 l 1,9,-1
 207 0 l 1,0,-1
256 781 m 1,10,-1
 186 819 l 1,11,-1
 299 1002 l 1,12,-1
 394 951 l 1,13,-1
 256 781 l 1,10,-1
EndSplineSet
EndChar

StartChar: Lcedilla
Encoding: 315 315 250
Width: 502
Flags: W
LayerCount: 2
Fore
SplineSet
418 0 m 1,0,-1
 29 0 l 1,1,-1
 169 698 l 1,2,-1
 290 698 l 1,3,-1
 171 107 l 1,4,-1
 439 107 l 1,5,-1
 418 0 l 1,0,-1
176 -264 m 1,6,-1
 103 -264 l 1,7,8
 150 -224 150 -224 174 -173 c 1,9,10
 140 -167 140 -167 140 -133 c 0,11,12
 140 -121 140 -121 145 -103 c 0,13,14
 158 -51 158 -51 212 -51 c 0,15,16
 243 -51 243 -51 254 -63.5 c 128,-1,17
 265 -76 265 -76 265 -102 c 0,18,19
 265 -111 265 -111 263.5 -116.5 c 128,-1,20
 262 -122 262 -122 261 -127 c 0,21,22
 238 -212 238 -212 176 -264 c 1,6,-1
EndSplineSet
EndChar

StartChar: lcedilla
Encoding: 316 316 251
Width: 274
Flags: W
LayerCount: 2
Fore
SplineSet
207 0 m 1,0,-1
 121 0 l 2,1,2
 78 0 78 0 58.5 21 c 128,-1,3
 39 42 39 42 39 73 c 0,4,5
 39 83 39 83 170 740 c 1,6,-1
 286 740 l 1,7,-1
 157 95 l 1,8,-1
 225 95 l 1,9,-1
 207 0 l 1,0,-1
77 -264 m 1,10,-1
 4 -264 l 1,11,12
 51 -224 51 -224 75 -173 c 1,13,14
 41 -167 41 -167 41 -133 c 0,15,16
 41 -121 41 -121 46 -103 c 0,17,18
 59 -51 59 -51 113 -51 c 0,19,20
 144 -51 144 -51 155 -63.5 c 128,-1,21
 166 -76 166 -76 166 -102 c 0,22,23
 166 -111 166 -111 164.5 -116.5 c 128,-1,24
 163 -122 163 -122 162 -127 c 0,25,26
 139 -212 139 -212 77 -264 c 1,10,-1
EndSplineSet
EndChar

StartChar: Lcaron
Encoding: 317 317 252
Width: 502
Flags: W
LayerCount: 2
Fore
SplineSet
418 0 m 1,0,-1
 29 0 l 1,1,-1
 169 698 l 1,2,-1
 290 698 l 1,3,-1
 171 107 l 1,4,-1
 439 107 l 1,5,-1
 418 0 l 1,0,-1
409 536 m 1,6,-1
 328 536 l 1,7,-1
 373 740 l 1,8,-1
 505 740 l 1,9,-1
 409 536 l 1,6,-1
EndSplineSet
EndChar

StartChar: lcaron
Encoding: 318 318 253
Width: 319
Flags: W
LayerCount: 2
Fore
SplineSet
207 0 m 1,0,-1
 121 0 l 2,1,2
 78 0 78 0 58.5 21 c 128,-1,3
 39 42 39 42 39 73 c 0,4,5
 39 83 39 83 170 740 c 1,6,-1
 286 740 l 1,7,-1
 157 95 l 1,8,-1
 225 95 l 1,9,-1
 207 0 l 1,0,-1
386 536 m 1,10,-1
 305 536 l 1,11,-1
 350 740 l 1,12,-1
 482 740 l 1,13,-1
 386 536 l 1,10,-1
EndSplineSet
EndChar

StartChar: Ldot
Encoding: 319 319 254
Width: 502
Flags: W
LayerCount: 2
Fore
SplineSet
418 0 m 1,0,-1
 29 0 l 1,1,-1
 169 698 l 1,2,-1
 290 698 l 1,3,-1
 171 107 l 1,4,-1
 439 107 l 1,5,-1
 418 0 l 1,0,-1
401 302 m 0,6,7
 339 302 339 302 339 352 c 0,8,9
 339 376 339 376 345.5 397.5 c 128,-1,10
 352 419 352 419 370.5 432.5 c 128,-1,11
 389 446 389 446 424 446 c 0,12,13
 486 446 486 446 486 396 c 0,14,15
 486 392 486 392 485 387 c 128,-1,16
 484 382 484 382 484 377 c 0,17,18
 480 302 480 302 401 302 c 0,6,7
EndSplineSet
EndChar

StartChar: ldot
Encoding: 320 320 255
Width: 388
Flags: W
LayerCount: 2
Fore
SplineSet
207 0 m 1,0,-1
 121 0 l 2,1,2
 78 0 78 0 58.5 21 c 128,-1,3
 39 42 39 42 39 73 c 0,4,5
 39 83 39 83 170 740 c 1,6,-1
 286 740 l 1,7,-1
 157 95 l 1,8,-1
 225 95 l 1,9,-1
 207 0 l 1,0,-1
331 266 m 0,10,11
 268 266 268 266 268 315 c 0,12,13
 268 340 268 340 275 361.5 c 128,-1,14
 282 383 282 383 300.5 396.5 c 128,-1,15
 319 410 319 410 353 410 c 0,16,17
 416 410 416 410 416 360 c 0,18,19
 416 350 416 350 413 341 c 0,20,21
 409 266 409 266 331 266 c 0,10,11
EndSplineSet
EndChar

StartChar: Lslash
Encoding: 321 321 256
Width: 512
Flags: W
LayerCount: 2
Fore
SplineSet
422 0 m 1,0,-1
 34 0 l 1,1,-1
 86 256 l 1,2,-1
 -4 229 l 1,3,-1
 15 324 l 1,4,-1
 104 352 l 1,5,-1
 174 698 l 1,6,-1
 294 698 l 1,7,-1
 233 390 l 1,8,-1
 409 445 l 1,9,-1
 390 347 l 1,10,-1
 214 294 l 1,11,-1
 176 107 l 1,12,-1
 444 107 l 1,13,-1
 422 0 l 1,0,-1
EndSplineSet
EndChar

StartChar: lslash
Encoding: 322 322 257
Width: 286
Flags: W
LayerCount: 2
Fore
SplineSet
209 0 m 1,0,-1
 122 0 l 2,1,2
 79 0 79 0 59.5 21 c 128,-1,3
 40 42 40 42 40 73 c 0,4,5
 40 83 40 83 84 306 c 1,6,-1
 10 282 l 1,7,-1
 29 374 l 1,8,-1
 103 398 l 1,9,-1
 171 740 l 1,10,-1
 288 740 l 1,11,-1
 228 440 l 1,12,-1
 331 474 l 1,13,-1
 313 382 l 1,14,-1
 209 348 l 1,15,-1
 159 95 l 1,16,-1
 228 95 l 1,17,-1
 209 0 l 1,0,-1
EndSplineSet
EndChar

StartChar: Nacute
Encoding: 323 323 258
Width: 694
Flags: W
LayerCount: 2
Fore
SplineSet
560 0 m 1,0,-1
 428 0 l 1,1,-1
 299 369 l 1,2,-1
 253 518 l 1,3,-1
 247 518 l 1,4,-1
 143 0 l 1,5,-1
 29 0 l 1,6,-1
 169 698 l 1,7,-1
 301 698 l 1,8,-1
 429 329 l 1,9,-1
 476 180 l 1,10,-1
 482 180 l 1,11,-1
 586 698 l 1,12,-1
 700 698 l 1,13,-1
 560 0 l 1,0,-1
461 746 m 1,14,-1
 390 784 l 1,15,-1
 503 966 l 1,16,-1
 598 916 l 1,17,-1
 461 746 l 1,14,-1
EndSplineSet
EndChar

StartChar: nacute
Encoding: 324 324 259
Width: 578
Flags: W
LayerCount: 2
Fore
SplineSet
509 0 m 1,0,-1
 426 0 l 2,1,2
 350 2 350 2 350 69 c 0,3,4
 350 101 350 101 363 151 c 2,5,-1
 374 203 l 2,6,7
 403 326 403 326 403 369 c 0,8,9
 403 435 403 435 340 435 c 0,10,11
 304 435 304 435 273 411 c 128,-1,12
 242 387 242 387 221.5 351 c 128,-1,13
 201 315 201 315 194 277 c 2,14,-1
 139 0 l 1,15,-1
 23 0 l 1,16,-1
 127 522 l 1,17,-1
 243 522 l 1,18,-1
 220 407 l 1,19,-1
 226 407 l 1,20,21
 254 468 254 468 294.5 501 c 128,-1,22
 335 534 335 534 394 534 c 0,23,24
 461 534 461 534 491.5 495.5 c 128,-1,25
 522 457 522 457 522 395 c 0,26,27
 522 355 522 355 512 313 c 2,28,-1
 468 95 l 1,29,-1
 528 95 l 1,30,-1
 509 0 l 1,0,-1
371 581 m 1,31,-1
 301 619 l 1,32,-1
 414 802 l 1,33,-1
 509 751 l 1,34,-1
 371 581 l 1,31,-1
EndSplineSet
EndChar

StartChar: Ncedilla
Encoding: 325 325 260
Width: 694
Flags: W
LayerCount: 2
Fore
SplineSet
560 0 m 1,0,-1
 428 0 l 1,1,-1
 299 369 l 1,2,-1
 253 518 l 1,3,-1
 247 518 l 1,4,-1
 143 0 l 1,5,-1
 29 0 l 1,6,-1
 169 698 l 1,7,-1
 301 698 l 1,8,-1
 429 329 l 1,9,-1
 476 180 l 1,10,-1
 482 180 l 1,11,-1
 586 698 l 1,12,-1
 700 698 l 1,13,-1
 560 0 l 1,0,-1
248 -264 m 1,14,-1
 175 -264 l 1,15,16
 201 -241 201 -241 216.5 -220.5 c 128,-1,17
 232 -200 232 -200 246 -173 c 1,18,19
 216 -167 216 -167 213 -141 c 2,20,-1
 212 -130 l 1,21,-1
 213 -119 l 2,22,23
 213 -86 213 -86 235.5 -68.5 c 128,-1,24
 258 -51 258 -51 283 -51 c 0,25,26
 337 -51 337 -51 337 -97 c 0,27,28
 336 -99 336 -99 336 -103 c 128,-1,29
 336 -107 336 -107 333 -127 c 0,30,31
 310 -212 310 -212 248 -264 c 1,14,-1
EndSplineSet
EndChar

StartChar: ncedilla
Encoding: 326 326 261
Width: 578
Flags: W
LayerCount: 2
Fore
SplineSet
509 0 m 1,0,-1
 426 0 l 2,1,2
 350 2 350 2 350 69 c 0,3,4
 350 101 350 101 363 151 c 2,5,-1
 374 203 l 2,6,7
 403 326 403 326 403 369 c 0,8,9
 403 435 403 435 340 435 c 0,10,11
 304 435 304 435 273 411 c 128,-1,12
 242 387 242 387 221.5 351 c 128,-1,13
 201 315 201 315 194 277 c 2,14,-1
 139 0 l 1,15,-1
 23 0 l 1,16,-1
 127 522 l 1,17,-1
 243 522 l 1,18,-1
 220 407 l 1,19,-1
 226 407 l 1,20,21
 254 468 254 468 294.5 501 c 128,-1,22
 335 534 335 534 394 534 c 0,23,24
 461 534 461 534 491.5 495.5 c 128,-1,25
 522 457 522 457 522 395 c 0,26,27
 522 355 522 355 512 313 c 2,28,-1
 468 95 l 1,29,-1
 528 95 l 1,30,-1
 509 0 l 1,0,-1
212 -264 m 1,31,-1
 139 -264 l 1,32,33
 165 -241 165 -241 180.5 -220.5 c 128,-1,34
 196 -200 196 -200 210 -173 c 1,35,36
 180 -167 180 -167 177 -141 c 2,37,-1
 176 -130 l 1,38,-1
 177 -119 l 2,39,40
 177 -86 177 -86 199.5 -68.5 c 128,-1,41
 222 -51 222 -51 247 -51 c 0,42,43
 301 -51 301 -51 301 -97 c 0,44,45
 300 -99 300 -99 300 -103 c 128,-1,46
 300 -107 300 -107 297 -127 c 0,47,48
 274 -212 274 -212 212 -264 c 1,31,-1
EndSplineSet
EndChar

StartChar: Ncaron
Encoding: 327 327 262
Width: 694
Flags: W
LayerCount: 2
Fore
SplineSet
560 0 m 1,0,-1
 428 0 l 1,1,-1
 299 369 l 1,2,-1
 253 518 l 1,3,-1
 247 518 l 1,4,-1
 143 0 l 1,5,-1
 29 0 l 1,6,-1
 169 698 l 1,7,-1
 301 698 l 1,8,-1
 429 329 l 1,9,-1
 476 180 l 1,10,-1
 482 180 l 1,11,-1
 586 698 l 1,12,-1
 700 698 l 1,13,-1
 560 0 l 1,0,-1
502 756 m 1,14,-1
 390 756 l 1,15,-1
 296 909 l 1,16,-1
 358 956 l 1,17,-1
 452 841 l 1,18,-1
 591 956 l 1,19,-1
 651 909 l 1,20,-1
 502 756 l 1,14,-1
EndSplineSet
EndChar

StartChar: ncaron
Encoding: 328 328 263
Width: 578
Flags: W
LayerCount: 2
Fore
SplineSet
509 0 m 1,0,-1
 426 0 l 2,1,2
 350 2 350 2 350 69 c 0,3,4
 350 101 350 101 363 151 c 2,5,-1
 374 203 l 2,6,7
 403 326 403 326 403 369 c 0,8,9
 403 435 403 435 340 435 c 0,10,11
 304 435 304 435 273 411 c 128,-1,12
 242 387 242 387 221.5 351 c 128,-1,13
 201 315 201 315 194 277 c 2,14,-1
 139 0 l 1,15,-1
 23 0 l 1,16,-1
 127 522 l 1,17,-1
 243 522 l 1,18,-1
 220 407 l 1,19,-1
 226 407 l 1,20,21
 254 468 254 468 294.5 501 c 128,-1,22
 335 534 335 534 394 534 c 0,23,24
 461 534 461 534 491.5 495.5 c 128,-1,25
 522 457 522 457 522 395 c 0,26,27
 522 355 522 355 512 313 c 2,28,-1
 468 95 l 1,29,-1
 528 95 l 1,30,-1
 509 0 l 1,0,-1
412 592 m 1,31,-1
 299 592 l 1,32,-1
 206 745 l 1,33,-1
 268 792 l 1,34,-1
 362 676 l 1,35,-1
 500 792 l 1,36,-1
 560 745 l 1,37,-1
 412 592 l 1,31,-1
EndSplineSet
EndChar

StartChar: napostrophe
Encoding: 329 329 264
Width: 847
Flags: W
LayerCount: 2
Fore
SplineSet
166 465 m 1,0,-1
 77 465 l 1,1,2
 155 527 155 527 190 596 c 1,3,4
 146 606 146 606 146 645 c 0,5,6
 146 691 146 691 167 720.5 c 128,-1,7
 188 750 188 750 236 750 c 0,8,9
 272 750 272 750 287 733 c 128,-1,10
 302 716 302 716 302 696 c 0,11,12
 302 643 302 643 265 578 c 128,-1,13
 228 513 228 513 166 465 c 1,0,-1
778 0 m 1,14,-1
 695 0 l 2,15,16
 657 0 657 0 638 19 c 128,-1,17
 619 38 619 38 619 69 c 0,18,19
 619 101 619 101 632 151 c 2,20,-1
 649 230 l 2,21,22
 671 333 671 333 671 369 c 0,23,24
 671 435 671 435 608 435 c 0,25,26
 571 435 571 435 540.5 410.5 c 128,-1,27
 510 386 510 386 490 350 c 128,-1,28
 470 314 470 314 463 277 c 2,29,-1
 407 0 l 1,30,-1
 291 0 l 1,31,-1
 396 522 l 1,32,-1
 512 522 l 1,33,-1
 489 407 l 1,34,-1
 494 407 l 1,35,36
 523 469 523 469 563 501.5 c 128,-1,37
 603 534 603 534 662 534 c 0,38,39
 730 534 730 534 760.5 495.5 c 128,-1,40
 791 457 791 457 791 395 c 0,41,42
 791 359 791 359 783 324 c 2,43,-1
 737 95 l 1,44,-1
 797 95 l 1,45,-1
 778 0 l 1,14,-1
EndSplineSet
EndChar

StartChar: Eng
Encoding: 330 330 265
Width: 694
Flags: W
LayerCount: 2
Fore
SplineSet
399 -200 m 2,0,-1
 321 -200 l 1,1,-1
 341 -104 l 1,2,-1
 426 -104 l 1,3,-1
 447 0 l 1,4,-1
 428 0 l 1,5,-1
 315 326 l 2,6,7
 289 398 289 398 277 440 c 2,8,-1
 253 518 l 1,9,-1
 247 518 l 1,10,-1
 143 0 l 1,11,-1
 29 0 l 1,12,-1
 169 698 l 1,13,-1
 301 698 l 1,14,-1
 434 314 l 1,15,-1
 476 180 l 1,16,-1
 482 180 l 1,17,-1
 586 698 l 1,18,-1
 700 698 l 1,19,-1
 546 -72 l 2,20,21
 524 -200 524 -200 399 -200 c 2,0,-1
EndSplineSet
EndChar

StartChar: eng
Encoding: 331 331 266
Width: 577
Flags: W
LayerCount: 2
Fore
SplineSet
291 -200 m 2,0,-1
 216 -200 l 1,1,-1
 235 -106 l 1,2,-1
 313 -106 l 1,3,-1
 398 322 l 2,4,5
 403 350 403 350 403 367 c 0,6,7
 403 435 403 435 341 435 c 0,8,9
 301 435 301 435 271 410.5 c 128,-1,10
 241 386 241 386 222 351.5 c 128,-1,11
 203 317 203 317 196 286 c 2,12,-1
 139 0 l 1,13,-1
 23 0 l 1,14,-1
 127 522 l 1,15,-1
 243 522 l 1,16,-1
 220 407 l 1,17,-1
 226 407 l 1,18,19
 283 534 283 534 393 534 c 0,20,21
 461 534 461 534 491.5 496 c 128,-1,22
 522 458 522 458 522 394 c 0,23,24
 522 362 522 362 515 324 c 2,25,-1
 435 -75 l 1,26,27
 415 -200 415 -200 291 -200 c 2,0,-1
EndSplineSet
EndChar

StartChar: Omacron
Encoding: 332 332 267
Width: 690
Flags: W
LayerCount: 2
Fore
SplineSet
305 -12 m 0,0,1
 196 -12 196 -12 126 61.5 c 128,-1,2
 56 135 56 135 56 267 c 0,3,4
 56 388 56 388 108 499 c 128,-1,5
 160 610 160 610 264 672 c 0,6,7
 330 710 330 710 414 710 c 0,8,9
 527 710 527 710 595 635.5 c 128,-1,10
 663 561 663 561 663 431 c 0,11,12
 663 316 663 316 618.5 214.5 c 128,-1,13
 574 113 574 113 493.5 50.5 c 128,-1,14
 413 -12 413 -12 305 -12 c 0,0,1
315 96 m 0,15,16
 399 96 399 96 448.5 149.5 c 128,-1,17
 498 203 498 203 515 299 c 2,18,-1
 535 398 l 2,19,20
 540 423 540 423 540 442 c 2,21,-1
 541 456 l 1,22,23
 538 602 538 602 405 602 c 0,24,25
 244 602 244 602 203 398 c 2,26,-1
 184 300 l 2,27,28
 179 275 179 275 179 256 c 2,29,-1
 178 242 l 1,30,31
 178 96 178 96 315 96 c 0,15,16
582 795 m 1,32,-1
 306 795 l 1,33,-1
 324 883 l 1,34,-1
 600 883 l 1,35,-1
 582 795 l 1,32,-1
EndSplineSet
EndChar

StartChar: omacron
Encoding: 333 333 268
Width: 546
Flags: W
LayerCount: 2
Fore
SplineSet
239 -12 m 0,0,1
 151 -12 151 -12 94.5 41 c 128,-1,2
 38 94 38 94 38 204 c 0,3,4
 38 288 38 288 70 363.5 c 128,-1,5
 102 439 102 439 162 486.5 c 128,-1,6
 222 534 222 534 307 534 c 0,7,8
 394 534 394 534 451 480.5 c 128,-1,9
 508 427 508 427 508 317 c 0,10,11
 508 178 508 178 430.5 83 c 128,-1,12
 353 -12 353 -12 239 -12 c 0,0,1
246 84 m 0,13,14
 344 84 344 84 373 225 c 2,15,-1
 389 301 l 2,16,17
 393 313 393 313 393 340 c 0,18,19
 392 384 392 384 369.5 410.5 c 128,-1,20
 347 437 347 437 300 437 c 0,21,22
 203 437 203 437 173 297 c 2,23,-1
 157 220 l 2,24,25
 153 204 153 204 153 182 c 0,26,27
 153 138 153 138 174.5 111 c 128,-1,28
 196 84 196 84 246 84 c 0,13,14
474 630 m 1,29,-1
 198 630 l 1,30,-1
 216 718 l 1,31,-1
 492 718 l 1,32,-1
 474 630 l 1,29,-1
EndSplineSet
EndChar

StartChar: Obreve
Encoding: 334 334 269
Width: 690
GlyphClass: 7
Flags: W
LayerCount: 2
Fore
SplineSet
305 -12 m 0,0,1
 196 -12 196 -12 126 61.5 c 128,-1,2
 56 135 56 135 56 267 c 0,3,4
 56 388 56 388 108 499 c 128,-1,5
 160 610 160 610 264 672 c 0,6,7
 330 710 330 710 414 710 c 0,8,9
 527 710 527 710 595 635.5 c 128,-1,10
 663 561 663 561 663 431 c 0,11,12
 663 316 663 316 618.5 214.5 c 128,-1,13
 574 113 574 113 493.5 50.5 c 128,-1,14
 413 -12 413 -12 305 -12 c 0,0,1
315 96 m 0,15,16
 399 96 399 96 448.5 149.5 c 128,-1,17
 498 203 498 203 515 299 c 2,18,-1
 535 398 l 2,19,20
 540 423 540 423 540 442 c 2,21,-1
 541 456 l 1,22,23
 538 602 538 602 405 602 c 0,24,25
 244 602 244 602 203 398 c 2,26,-1
 184 300 l 2,27,28
 179 275 179 275 179 256 c 2,29,-1
 178 242 l 1,30,31
 178 96 178 96 315 96 c 0,15,16
441 750 m 256,32,33
 394 750 394 750 360.5 772.5 c 128,-1,34
 327 795 327 795 308.5 830.5 c 128,-1,35
 290 866 290 866 286 906 c 1,36,-1
 352 940 l 1,37,-1
 365 912 l 2,38,39
 381 875 381 875 397.5 855 c 128,-1,40
 414 835 414 835 446 835 c 0,41,42
 481 835 481 835 505 859 c 128,-1,43
 529 883 529 883 562 931 c 2,44,-1
 569 940 l 1,45,-1
 639 904 l 1,46,47
 620 863 620 863 591.5 828.5 c 128,-1,48
 563 794 563 794 525.5 772 c 128,-1,49
 488 750 488 750 441 750 c 256,32,33
EndSplineSet
EndChar

StartChar: obreve
Encoding: 335 335 270
Width: 546
Flags: W
LayerCount: 2
Fore
SplineSet
239 -12 m 0,0,1
 151 -12 151 -12 94.5 41 c 128,-1,2
 38 94 38 94 38 204 c 0,3,4
 38 288 38 288 70 363.5 c 128,-1,5
 102 439 102 439 162 486.5 c 128,-1,6
 222 534 222 534 307 534 c 0,7,8
 394 534 394 534 451 480.5 c 128,-1,9
 508 427 508 427 508 317 c 0,10,11
 508 178 508 178 430.5 83 c 128,-1,12
 353 -12 353 -12 239 -12 c 0,0,1
246 84 m 0,13,14
 344 84 344 84 373 225 c 2,15,-1
 389 301 l 2,16,17
 393 313 393 313 393 340 c 0,18,19
 392 384 392 384 369.5 410.5 c 128,-1,20
 347 437 347 437 300 437 c 0,21,22
 203 437 203 437 173 297 c 2,23,-1
 157 220 l 2,24,25
 153 204 153 204 153 182 c 0,26,27
 153 138 153 138 174.5 111 c 128,-1,28
 196 84 196 84 246 84 c 0,13,14
331 586 m 0,29,30
 282 586 282 586 249.5 609.5 c 128,-1,31
 217 633 217 633 199 668.5 c 128,-1,32
 181 704 181 704 176 742 c 1,33,-1
 243 776 l 1,34,-1
 255 748 l 2,35,36
 272 710 272 710 288.5 691 c 128,-1,37
 305 672 305 672 337 672 c 256,38,39
 369 672 369 672 392 694 c 128,-1,40
 415 716 415 716 449 761 c 2,41,-1
 460 776 l 1,42,-1
 529 740 l 1,43,44
 456 586 456 586 331 586 c 0,29,30
EndSplineSet
EndChar

StartChar: Odblacute
Encoding: 336 336 271
Width: 690
Flags: W
LayerCount: 2
Fore
SplineSet
305 -12 m 0,0,1
 196 -12 196 -12 126 61.5 c 128,-1,2
 56 135 56 135 56 267 c 0,3,4
 56 388 56 388 108 499 c 128,-1,5
 160 610 160 610 264 672 c 0,6,7
 330 710 330 710 414 710 c 0,8,9
 527 710 527 710 595 635.5 c 128,-1,10
 663 561 663 561 663 431 c 0,11,12
 663 316 663 316 618.5 214.5 c 128,-1,13
 574 113 574 113 493.5 50.5 c 128,-1,14
 413 -12 413 -12 305 -12 c 0,0,1
315 96 m 0,15,16
 399 96 399 96 448.5 149.5 c 128,-1,17
 498 203 498 203 515 299 c 2,18,-1
 535 398 l 2,19,20
 540 423 540 423 540 442 c 2,21,-1
 541 456 l 1,22,23
 538 602 538 602 405 602 c 0,24,25
 244 602 244 602 203 398 c 2,26,-1
 184 300 l 2,27,28
 179 275 179 275 179 256 c 2,29,-1
 178 242 l 1,30,31
 178 96 178 96 315 96 c 0,15,16
351 746 m 1,32,-1
 286 778 l 1,33,-1
 395 962 l 1,34,-1
 485 915 l 1,35,-1
 351 746 l 1,32,-1
531 746 m 1,36,-1
 467 778 l 1,37,-1
 577 962 l 1,38,-1
 666 915 l 1,39,-1
 531 746 l 1,36,-1
EndSplineSet
EndChar

StartChar: odblacute
Encoding: 337 337 272
Width: 546
GlyphClass: 7
Flags: W
LayerCount: 2
Fore
SplineSet
239 -12 m 0,0,1
 151 -12 151 -12 94.5 41 c 128,-1,2
 38 94 38 94 38 204 c 0,3,4
 38 288 38 288 70 363.5 c 128,-1,5
 102 439 102 439 162 486.5 c 128,-1,6
 222 534 222 534 307 534 c 0,7,8
 394 534 394 534 451 480.5 c 128,-1,9
 508 427 508 427 508 317 c 0,10,11
 508 178 508 178 430.5 83 c 128,-1,12
 353 -12 353 -12 239 -12 c 0,0,1
246 84 m 0,13,14
 344 84 344 84 373 225 c 2,15,-1
 389 301 l 2,16,17
 393 313 393 313 393 340 c 0,18,19
 392 384 392 384 369.5 410.5 c 128,-1,20
 347 437 347 437 300 437 c 0,21,22
 203 437 203 437 173 297 c 2,23,-1
 157 220 l 2,24,25
 153 204 153 204 153 182 c 0,26,27
 153 138 153 138 174.5 111 c 128,-1,28
 196 84 196 84 246 84 c 0,13,14
252 582 m 1,29,-1
 187 614 l 1,30,-1
 297 799 l 1,31,-1
 386 751 l 1,32,-1
 252 582 l 1,29,-1
432 582 m 1,33,-1
 368 614 l 1,34,-1
 478 799 l 1,35,-1
 567 751 l 1,36,-1
 432 582 l 1,33,-1
EndSplineSet
EndChar

StartChar: OE
Encoding: 338 338 273
Width: 950
GlyphClass: 7
Flags: W
LayerCount: 2
Fore
SplineSet
301 -12 m 1,0,1
 247 -12 247 -12 201.5 6.5 c 128,-1,2
 156 25 156 25 124 61.5 c 128,-1,3
 92 98 92 98 74 152 c 128,-1,4
 56 206 56 206 56 276 c 0,5,6
 56 365 56 365 81.5 443 c 128,-1,7
 107 521 107 521 154.5 580.5 c 128,-1,8
 202 640 202 640 270 675 c 128,-1,9
 338 710 338 710 420 710 c 0,10,11
 485 710 485 710 549 698 c 1,12,-1
 980 698 l 1,13,-1
 958 591 l 1,14,-1
 645 591 l 1,15,-1
 608 406 l 1,16,-1
 887 406 l 1,17,-1
 865 299 l 1,18,-1
 587 299 l 1,19,-1
 548 107 l 1,20,-1
 874 107 l 1,21,-1
 853 0 l 1,22,-1
 408 0 l 1,23,24
 387 -4 387 -4 369 -6 c 2,25,-1
 286 -12 l 1,26,-1
 301 -12 l 1,0,1
327 96 m 0,27,28
 373 96 373 96 428 109 c 1,29,-1
 524 590 l 1,30,31
 476 602 476 602 415 602 c 0,32,33
 243 602 243 602 204 403 c 2,34,-1
 185 305 l 2,35,36
 178 270 178 270 178 243 c 0,37,38
 178 96 178 96 327 96 c 0,27,28
EndSplineSet
EndChar

StartChar: oe
Encoding: 339 339 274
Width: 852
Flags: W
LayerCount: 2
Fore
SplineSet
246 84 m 0,0,1
 344 84 344 84 373 225 c 2,2,-1
 389 301 l 2,3,4
 393 313 393 313 393 340 c 0,5,6
 392 384 392 384 369.5 410.5 c 128,-1,7
 347 437 347 437 300 437 c 0,8,9
 203 437 203 437 173 297 c 2,10,-1
 157 220 l 2,11,12
 153 204 153 204 153 182 c 0,13,14
 153 138 153 138 174.5 111 c 128,-1,15
 196 84 196 84 246 84 c 0,0,1
507 291 m 1,16,17
 631 296 631 296 676.5 317 c 128,-1,18
 722 338 722 338 722 382 c 0,19,20
 722 441 722 441 657 442 c 0,21,22
 652 442 652 442 648 443 c 2,23,-1
 639 442 l 2,24,25
 588 439 588 439 555.5 405 c 128,-1,26
 523 371 523 371 512 316 c 2,27,-1
 507 291 l 1,16,17
590 -12 m 0,28,29
 466 -12 466 -12 420 82 c 1,30,-1
 414 82 l 1,31,32
 348 -12 348 -12 234 -12 c 0,33,34
 147 -12 147 -12 92.5 45 c 128,-1,35
 38 102 38 102 38 204 c 0,36,37
 38 293 38 293 71.5 368 c 128,-1,38
 105 443 105 443 166 488.5 c 128,-1,39
 227 534 227 534 309 534 c 0,40,41
 423 534 423 534 465 438 c 1,42,-1
 471 438 l 1,43,44
 543 534 543 534 657 534 c 0,45,46
 728 534 728 534 782 497 c 128,-1,47
 836 460 836 460 836 394 c 0,48,49
 836 304 836 304 750 260 c 128,-1,50
 664 216 664 216 494 213 c 1,51,52
 492 198 492 198 492 182 c 0,53,54
 492 84 492 84 598 84 c 0,55,56
 678 84 678 84 736 161 c 1,57,-1
 808 101 l 1,58,59
 720 -12 720 -12 590 -12 c 0,28,29
EndSplineSet
EndChar

